<?xml version="1.0" encoding="UTF-8"?>
<svg width="160px" height="160px" viewBox="0 0 160 160" version="1.1" xmlns="http://www.w3.org/2000/svg" xmlns:xlink="http://www.w3.org/1999/xlink">
    <!-- Generator: Sketch 53.2 (72643) - https://sketchapp.com -->
    <title>Group 8</title>
    <desc>Created with Sketch.</desc>
    <g id="Application-Flow" stroke="none" stroke-width="1" fill="none" fill-rule="evenodd">
        <g id="2---Borrowers---Approved" transform="translate(-560.000000, -170.000000)" fill="#D82027">
            <g id="Group-4" transform="translate(302.000000, 170.000000)">
                <g id="Group-8" transform="translate(338.000000, 80.000000) rotate(180.000000) translate(-338.000000, -80.000000) translate(258.000000, 0.000000)">
                    <g id="Page-1" transform="translate(40.000000, 33.000000)">
                        <path d="M25,40.4599 C29.502,39.6699 33.301,36.6619 35.1,32.4599 L42.33,17.1899 C43.25,15.2489 43.867,13.1779 44.16,11.0499 L44.93,5.9999 C44.966,5.9649 45.011,5.9409 45.06,5.9299 C46.824,6.2099 48.388,7.2189 49.37,8.7099 C50.69,10.8499 50.69,14.0999 49.37,18.0999 C47.43,23.9399 46.83,28.5499 47.57,31.8099 C48.04,33.8799 49.887,35.3449 52.01,35.3299 C58.62,35.3299 62.7,35.3899 69.01,36.7199 L69.11,36.7199 C69.777,36.8409 70.409,37.1069 70.96,37.4999 L71.28,37.7699 C73.84,40.0799 72.22,43.0399 71.88,43.5899 C71.219,44.6229 71.406,45.9829 72.32,46.7999 C73.293,47.7849 73.891,49.0799 74.01,50.4599 C73.951,52.3209 73.139,54.0789 71.76,55.3299 C70.991,56.1439 70.856,57.3689 71.43,58.3299 C71.54,58.5199 74.11,62.9899 69.02,66.7309 C68.145,67.3879 67.791,68.5319 68.14,69.5699 C68.41,70.3699 69.47,74.4699 63.98,76.8799 C62.24,77.6069 60.366,77.9619 58.48,77.9199 L37.31,77.9199 C34.776,77.9159 32.292,77.2249 30.12,75.9199 L24.48,72.5399 L24.48,40.5399 L25,40.4599 Z M5,77.9999 L19.48,77.9999 L19.48,34.2399 L5,34.2399 L5,77.9999 Z M5,29.2399 C2.239,29.2399 0,31.4789 0,34.2399 L0,77.9999 C0,80.7619 2.239,82.9999 5,82.9999 L19.48,82.9999 C22.11,83.0069 24.296,80.9739 24.48,78.3499 L27.58,80.2099 C30.531,81.9809 33.908,82.9179 37.35,82.9199 L58.48,82.9199 C61.036,82.9469 63.569,82.4429 65.92,81.4399 C72.67,78.4399 73.73,73.1699 73.23,69.6699 C76.78,66.6889 78.08,61.8009 76.48,57.4499 C78.153,55.4259 79.041,52.8659 78.98,50.2399 C78.871,48.1829 78.158,46.2039 76.93,44.5499 C78.502,40.9279 77.581,36.7059 74.64,34.0699 C74.433,33.8769 74.216,33.6929 73.99,33.5199 C72.853,32.6739 71.541,32.0929 70.15,31.8199 L70.04,31.8199 C63.41,30.4099 58.95,30.3199 52.39,30.3199 C52.14,28.8099 52.15,25.6399 54.13,19.6699 C55.96,14.1399 55.8,9.5699 53.65,6.0799 C51.855,3.2549 48.899,1.3729 45.58,0.9399 L45.27,0.9399 C42.912,0.8989 40.811,2.4239 40.12,4.6799 C40.084,4.7979 40.058,4.9179 40.04,5.0399 L39.29,10.4399 C39.064,12.0619 38.592,13.6399 37.89,15.1199 L30.6,30.4299 C29.493,32.9919 27.211,34.8559 24.48,35.4299 L24.48,34.2399 C24.48,31.4789 22.241,29.2399 19.48,29.2399 L5,29.2399 Z" id="Fill-11"></path>
                        <path d="M12.2398,67.1699 C13.9248,67.1699 15.2898,68.5349 15.2898,70.2199 C15.2898,71.9039 13.9248,73.2699 12.2398,73.2699 C10.5558,73.2699 9.1898,71.9039 9.1898,70.2199 C9.1898,68.5349 10.5558,67.1699 12.2398,67.1699" id="Fill-13"></path>
                    </g>
                    <path d="M80,155 C121.421356,155 155,121.421356 155,80 C155,38.5786438 121.421356,5 80,5 C38.5786438,5 5,38.5786438 5,80 C5,121.421356 38.5786438,155 80,155 Z M80,160 C35.81722,160 0,124.18278 0,80 C0,35.81722 35.81722,0 80,0 C124.18278,0 160,35.81722 160,80 C160,124.18278 124.18278,160 80,160 Z" id="Oval-2" fill-rule="nonzero"></path>
                </g>
            </g>
        </g>
    </g>
</svg>