<?xml version="1.0" encoding="UTF-8"?>
<svg width="160px" height="160px" viewBox="0 0 160 160" version="1.1" xmlns="http://www.w3.org/2000/svg" xmlns:xlink="http://www.w3.org/1999/xlink">
    <!-- Generator: Sketch 53.2 (72643) - https://sketchapp.com -->
    <title>Group 8</title>
    <desc>Created with Sketch.</desc>
    <g id="Application-Flow" stroke="none" stroke-width="1" fill="none" fill-rule="evenodd">
        <g id="2---Borrowers---Approved" transform="translate(-560.000000, -170.000000)" fill="#00A499" fill-rule="nonzero">
            <g id="Group-4" transform="translate(302.000000, 170.000000)">
                <g id="Group-8" transform="translate(338.000000, 80.000000) rotate(180.000000) translate(-338.000000, -80.000000) translate(258.000000, 0.000000)">
                    <path d="M80,155 C121.421356,155 155,121.421356 155,80 C155,38.5786438 121.421356,5 80,5 C38.5786438,5 5,38.5786438 5,80 C5,121.421356 38.5786438,155 80,155 Z M80,160 C35.81722,160 0,124.18278 0,80 C0,35.81722 35.81722,-2.52242671e-13 80,-2.52242671e-13 C124.18278,-2.52242671e-13 160,35.81722 160,80 C160,124.18278 124.18278,160 80,160 Z" id="Oval-2"></path>
                    <path d="M48.8389002,46.25 L111.412,46.25 C116.191718,46.25 120.431906,48.6872734 122.930591,52.8101041 C125.337477,56.9901057 125.371239,61.953202 122.935643,66.0937154 L91.5956867,121.055717 C89.2545108,125.245247 84.9219657,127.75 80.0669704,127.75 C75.2119751,127.75 70.87943,125.245247 68.5350698,121.050077 L37.1932249,66.0849572 C34.8407618,61.8753438 34.8407618,57.0369369 37.1900406,52.8329644 C39.8151663,48.7054872 44.1543148,46.25 48.8389002,46.25 Z M41.6541662,63.5875574 L72.9991955,118.558318 C74.5167725,121.159806 77.2110469,122.741228 80.1839295,122.741228 C83.1568121,122.741228 85.8510864,121.159806 87.3723526,118.551921 L118.713693,63.5875574 C120.218588,61.0076654 120.218588,57.9046153 118.717382,55.3311196 C117.222007,52.7676203 114.552506,51.2587719 111.528959,51.2587719 L48.8389002,51.2587719 C45.8153527,51.2587719 43.1458517,52.7676203 41.6504771,55.3311196 C40.1492713,57.9046153 40.1492713,61.0076654 41.6504771,63.5811611 L41.6541662,63.5875574 Z M79.5991341,75.1388889 C80.9490202,75.1388889 82.1035201,76.2933888 82.1035201,77.6432749 L82.1035201,99.8654971 C82.1035201,101.215383 80.9490202,102.369883 79.5991341,102.369883 C78.2492481,102.369883 77.0947482,101.215383 77.0947482,99.8654971 L77.0947482,77.6432749 C77.0947482,76.2933888 78.2492481,75.1388889 79.5991341,75.1388889 Z M79.5991341,62.2733918 C80.9490202,62.2733918 82.1035201,63.4278917 82.1035201,64.7777778 L82.1035201,68.2865497 C82.1035201,69.6364358 80.9490202,70.7909357 79.5991341,70.7909357 C78.2492481,70.7909357 77.0947482,69.6364358 77.0947482,68.2865497 L77.0947482,64.7777778 C77.0947482,63.4278917 78.2492481,62.2733918 79.5991341,62.2733918 Z" id="Combined-Shape"></path>
                </g>
            </g>
        </g>
    </g>
</svg>