<?xml version="1.0" encoding="UTF-8"?>
<svg width="30px" height="30px" viewBox="0 0 30 30" version="1.1" xmlns="http://www.w3.org/2000/svg" xmlns:xlink="http://www.w3.org/1999/xlink">
    <!-- Generator: Sketch 51.2 (57519) - http://www.bohemiancoding.com/sketch -->
    <title>Fill 1</title>
    <desc>Created with Sketch.</desc>
    <defs></defs>
    <g id="Application-Flow" stroke="none" stroke-width="1" fill="none" fill-rule="evenodd">
        <g id="2c---Borrowers---Denied---Offer-v3" transform="translate(-632.000000, -765.000000)" fill="#FFFFFF">
            <g id="Group-18" transform="translate(341.000000, 735.000000)">
                <g id="Group-8">
                    <path d="M320.692311,55.2091313 C318.992643,59.2841737 315.008639,59.9983564 313.706638,59.9983564 C313.324304,59.9983564 307.369965,60.3141038 298.810623,52.1930265 C291.922283,45.6573548 291.080615,38.6292237 291.007282,37.2938822 C290.935949,35.9932161 291.308282,32.7303816 295.79562,30.3060948 C296.351621,30.0056846 297.453955,29.8726506 297.738622,30.1573901 C297.864955,30.2837557 301.631292,36.4830081 301.730293,36.688394 C301.829293,36.8934464 301.878959,37.0954981 301.878959,37.2935488 C301.878959,37.5766212 301.677292,37.9307117 301.273625,38.355487 C300.870292,38.7802624 300.431625,39.1696953 299.957291,39.5234525 C299.482957,39.877543 299.04429,40.252639 298.640623,40.6490737 C298.237289,41.045175 298.035622,41.3712584 298.035622,41.6259903 C298.062956,42.2871594 298.604623,44.6554318 302.73096,48.2820261 C306.857964,51.9096207 308.845966,52.9315488 309.036966,53.0022335 C309.227967,53.0729182 309.3873,53.1079272 309.514633,53.1079272 C309.7693,53.1079272 310.095301,52.9065424 310.491301,52.5031058 C310.887635,52.0993359 312.219969,50.2728687 312.644303,49.8687653 C313.069304,49.4656622 313.422971,49.2642774 313.706638,49.2642774 C313.904638,49.2642774 314.106305,49.3132899 314.310971,49.4126487 C314.516638,49.511674 320.722311,53.1439364 320.840978,53.2653008 C321.162978,53.5953852 320.935311,54.6256488 320.692311,55.2091313" id="Fill-1"></path>
                </g>
            </g>
        </g>
    </g>
</svg>