<?xml version="1.0" encoding="UTF-8"?>
<svg width="282px" height="31px" viewBox="0 0 282 31" version="1.1" xmlns="http://www.w3.org/2000/svg" xmlns:xlink="http://www.w3.org/1999/xlink">
    <!-- Generator: Sketch 52.4 (67378) - http://www.bohemiancoding.com/sketch -->
    <title>Group 9</title>
    <desc>Created with Sketch.</desc>
    <defs>
        <polygon id="path-1" points="0.0151346228 0.011019037 4.50925455 0.011019037 4.50925455 4.34695185 0.0151346228 4.34695185 0.0151346228 0.011019037"></polygon>
        <polygon id="path-3" points="0 4.3550056 0 0.0177155655 4.37221547 0.0177155655 4.37221547 4.3550056"></polygon>
    </defs>
    <g id="Page-1" stroke="none" stroke-width="1" fill="none" fill-rule="evenodd">
        <g id="Merchant-Portal---Dashboard-V2" transform="translate(-50.000000, -19.000000)">
            <g id="Header">
                <g id="Group-9" transform="translate(50.000000, 19.000000)">
                    <g id="Page-1">
                        <polygon id="Fill-10" fill="#002147" points="40.4756017 25.4702142 42.8101568 25.4702142 42.8101568 3.19531905 40.4756017 3.19531905"></polygon>
                        <g id="Group-55" transform="translate(45.957447, 2.571474)">
                            <path d="M12.7089564,14.1413901 C12.4663863,11.2730748 10.8292037,8.7709772 7.70635094,8.7709772 C4.97766911,8.7709772 2.91597779,11.0594736 2.6127762,14.1413901 L12.7089564,14.1413901 Z M8.1308155,21.2205246 C10.283432,21.2205246 11.7993958,20.3356493 13.0727894,18.993013 L14.5280776,20.3050907 C12.9514823,22.0748853 11.0413918,23.2649494 8.07018402,23.2649494 C3.76490691,23.2649494 0.247927446,19.9389171 0.247927446,15.0262653 C0.247927446,10.4492285 3.43141166,6.78758131 7.76698243,6.78758131 C12.4057548,6.78758131 15.0738051,10.5102132 15.0738051,15.1483232 C15.0738051,15.3619244 15.0738051,15.6060401 15.0435115,15.8806703 L2.6127762,15.8806703 C2.94627145,19.2981576 5.37179585,21.2205246 8.1308155,21.2205246 Z" id="Fill-11" fill="#002147"></path>
                            <path d="M20.4400361,22.8987582 L18.105481,22.8987582 L18.105481,7.12322273 L20.4400361,7.12322273 L20.4400361,9.86948018 C21.4708597,8.16071445 23.1080864,6.7876078 25.8064746,6.7876078 C29.5963178,6.7876078 31.8095658,9.35073432 31.8095658,13.1038807 L31.8095658,22.8987582 L29.4750548,22.8987582 L29.4750548,13.6836555 C29.4750548,10.7543554 27.8984596,8.92353185 25.1394399,8.92353185 C22.4410518,8.92353185 20.4400361,10.9069277 20.4400361,13.8667423 L20.4400361,22.8987582 Z" id="Fill-13" fill="#002147"></path>
                            <path d="M42.7242048,8.89303063 C39.6923214,8.89303063 37.2061655,11.1510125 37.2061655,14.9957465 C37.2061655,18.7488929 39.7529528,21.1289768 42.7242048,21.1289768 C45.6348252,21.1289768 48.3938007,18.6878639 48.3938007,14.9957465 C48.3938007,11.3340993 45.6348252,8.89303063 42.7242048,8.89303063 Z M48.3028756,22.8987714 L48.3028756,19.7253115 C47.0294819,21.617164 45.1800228,23.2343863 42.2997402,23.2343863 C38.5401906,23.2343863 34.8109789,20.2440574 34.8109789,15.0262609 C34.8109789,9.83893481 38.5401906,6.78757689 42.2997402,6.78757689 C45.2103165,6.78757689 47.0901134,8.37428477 48.3028756,10.1440794 L48.3028756,0.623876296 L50.6374306,0.623876296 L50.6374306,22.8987714 L48.3028756,22.8987714 Z" id="Fill-15" fill="#002147"></path>
                            <path d="M55.0027652,22.8987847 L57.3373202,22.8987847 L57.3373202,7.12324923 L55.0027652,7.12324923 L55.0027652,22.8987847 Z M54.8512085,3.6752033 L57.5192589,3.6752033 L57.5192589,1.08156232 L54.8512085,1.08156232 L54.8512085,3.6752033 Z" id="Fill-17" fill="#002147"></path>
                            <path d="M64.0373556,22.8987582 L61.7028005,22.8987582 L61.7028005,7.12322273 L64.0373556,7.12322273 L64.0373556,9.86948018 C65.0681792,8.16071445 66.7054059,6.7876078 69.4037499,6.7876078 C73.1936373,6.7876078 75.4068853,9.35073432 75.4068853,13.1038807 L75.4068853,22.8987582 L73.0723743,22.8987582 L73.0723743,13.6836555 C73.0723743,10.7543554 71.4957791,8.92353185 68.7367594,8.92353185 C66.0383713,8.92353185 64.0373556,10.9069277 64.0373556,13.8667423 L64.0373556,22.8987582 Z" id="Fill-19" fill="#002147"></path>
                            <path d="M86.2305285,8.86249851 C83.2592765,8.86249851 80.8034585,10.9069233 80.8034585,14.2023969 C80.8034585,17.4368416 83.319908,19.6032801 86.2305285,19.6032801 C89.2017362,19.6032801 91.9910937,17.4673561 91.9910937,14.2329114 C91.9910937,10.9679523 89.2017362,8.86249851 86.2305285,8.86249851 M86.2608663,27.8419642 C83.6534474,27.8419642 81.227923,27.1096612 79.135938,25.6450112 L80.1970553,23.8141876 C81.9858828,25.1262212 83.9868985,25.8280538 86.2305285,25.8280538 C89.6868764,25.8280538 91.9304622,23.905731 91.9304622,20.2135694 L91.9304622,18.3522313 C90.5660992,20.1830549 88.6560087,21.6781753 85.7757261,21.6781753 C82.0161765,21.6781753 78.4082719,18.8709772 78.4082719,14.2634259 C78.4082719,9.62536007 82.0465143,6.78760339 85.7757261,6.78760339 C88.7166843,6.78760339 90.6267307,8.25225342 91.9001244,9.96097499 L91.9001244,7.12321831 L94.2346795,7.12321831 L94.2346795,20.1525405 C94.2346795,25.248279 91.0815331,27.8419642 86.2608663,27.8419642" id="Fill-20" fill="#002147"></path>
                            <path d="M105.340579,23.1802331 C100.560716,23.1802331 97.6368477,20.4934148 97.6368477,15.222185 L97.6368477,4.98676877 L101.552282,4.98676877 L101.552282,15.1198666 C101.552282,18.0369344 103.001476,19.5466716 105.391407,19.5466716 C107.781339,19.5466716 109.230577,18.0880715 109.230577,15.2477977 L109.230577,4.98676877 L113.145967,4.98676877 L113.145967,15.0942539 C113.145967,20.5190275 110.120398,23.1802331 105.340579,23.1802331" id="Fill-21" fill="#D82027"></path>
                            <path d="M122.578579,23.1546601 C119.883591,23.1546601 117.163079,22.2078728 115.02742,20.2887295 L117.341043,17.4995486 C118.942853,18.8301735 120.620884,19.6745983 122.654887,19.6745983 C124.256609,19.6745983 125.222783,19.0348986 125.222783,17.9857487 L125.222783,17.9345674 C125.222783,16.9365988 124.612582,16.4248743 121.637885,15.6571993 C118.052988,14.7359805 115.739321,13.738056 115.739321,10.1812444 L115.739321,10.1300631 C115.739321,6.88029493 118.332653,4.73085797 121.968422,4.73085797 C124.56171,4.73085797 126.773677,5.54971423 128.578844,7.0082702 L126.544841,9.97651926 C124.96851,8.87623222 123.417616,8.21091979 121.91755,8.21091979 C120.417484,8.21091979 119.629318,8.90180078 119.629318,9.77179416 L119.629318,9.82297543 C119.629318,11.0000565 120.392048,11.383894 123.468444,12.1771375 C127.078778,13.1239249 129.112781,14.428937 129.112781,17.5507741 L129.112781,17.6019553 C129.112781,21.158767 126.417749,23.1546601 122.578579,23.1546601" id="Fill-22" fill="#D82027"></path>
                            <path d="M139.104814,9.5926906 L136.740319,15.4013459 L141.46931,15.4013459 L139.104814,9.5926906 Z M144.494878,22.8987626 L142.867676,18.8813636 L135.341953,18.8813636 L133.71475,22.8987626 L129.723052,22.8987626 L137.350475,4.85879791 L140.960809,4.85879791 L148.588276,22.8987626 L144.494878,22.8987626 Z" id="Fill-23" fill="#D82027"></path>
                        </g>
                        <g id="Page-1-Copy">
                            <g id="Group-3" transform="translate(13.435203, 0.033774)">
                                <mask id="mask-2" fill="white">
                                    <use xlink:href="#path-1"></use>
                                </mask>
                                <g id="Clip-2"></g>
                                <path d="M2.25997021,0.0110055991 C2.44325841,0.560613662 2.61497988,1.11380515 2.79292959,1.66520493 C3.36503791,1.66699664 3.93714623,1.664757 4.50925455,1.66610078 C4.04747505,2.00831803 3.58436093,2.34874356 3.12302631,2.69051288 C3.29964139,3.24280851 3.47714623,3.79465622 3.65331644,4.34695185 C3.1870882,4.00697424 2.72619845,3.65982979 2.25774584,3.32343561 C1.79774584,3.66744457 1.33374197,4.00607839 0.871517602,4.34650392 C1.04679807,3.79420829 1.22474778,3.24236058 1.40136286,2.69051288 C0.939583366,2.34829563 0.476469246,2.00876596 0.0151346228,1.66610078 C0.58724294,1.664757 1.15935126,1.66699664 1.73145957,1.66520493 C1.90674004,1.11335722 2.0855795,0.562853303 2.25997021,0.0110055991" id="Fill-1" fill="#002248" mask="url(#mask-2)"></path>
                            </g>
                            <path d="M8.43349052,1.53906383 C8.70664333,1.39931019 8.98246538,1.26448376 9.26451567,1.14354311 C9.32412882,1.32853751 9.38285222,1.51442777 9.44291025,1.69942217 C10.0145737,1.6998701 10.5862371,1.69897424 11.1583455,1.6998701 C10.6970108,2.04253527 10.2338967,2.38251288 9.77211721,2.72428219 C9.94828743,3.2761299 10.126682,3.82752968 10.3015176,4.38027324 C9.83751373,4.0398477 9.37528936,3.69718253 8.91128549,3.356757 C8.44728162,3.69718253 7.98550213,4.04029563 7.52060851,4.37982531 C7.69633385,3.82752968 7.87383868,3.27568197 8.05045377,2.72383427 C7.80354855,2.54152744 7.55664333,2.35877268 7.30929323,2.1773617 C7.55486383,2.025514 7.80310368,1.87859351 8.05623714,1.73928779 C8.15277485,1.67971333 8.27111141,1.70479731 8.37921586,1.69852632 C8.39701083,1.64522284 8.41525068,1.5923673 8.43349052,1.53906383" id="Fill-4" fill="#002248"></path>
                            <path d="M8.90282398,6.39326764 C8.95843327,6.47747816 8.98023211,6.57736618 9.01137331,6.67232699 C9.15417795,7.12115118 9.29831721,7.56952744 9.44245648,8.01835162 C10.0145648,8.01879955 10.5866731,8.01700784 11.1592263,8.01879955 C10.6978917,8.36191265 10.2338878,8.70189026 9.77210832,9.04455543 C9.9487234,9.59640314 10.1262282,10.1482508 10.3023985,10.7005465 C9.83839458,10.359673 9.37483559,10.0179037 8.9112766,9.67658231 C8.4477176,10.0170078 7.98549323,10.3601209 7.52059961,10.6996506 C7.69588008,10.147355 7.87427466,9.59595521 8.05044487,9.0441075 C7.5882205,8.70189026 7.12466151,8.3610168 6.66243714,8.01879955 C7.23499033,8.01700784 7.80754352,8.01924748 8.38054159,8.0179037 C8.5549323,7.47635834 8.72531915,6.93391713 8.90282398,6.39326764" id="Fill-12" fill="#002248"></path>
                            <path d="M15.1671031,8.01744681 C15.3432733,7.4655991 15.5189986,6.91330347 15.6987279,6.36279955 C15.8735634,6.91464726 16.0524029,7.4655991 16.2272385,8.01744681 C16.8002366,8.01968645 17.3732346,8.01699888 17.9462327,8.01879059 C17.4840083,8.36100784 17.0208942,8.70232923 16.558225,9.04409854 C16.7343952,9.59639418 16.9123449,10.147794 17.0880702,10.7000896 C16.6231766,10.360112 16.1613971,10.016103 15.6960586,9.67657335 C15.2333894,10.0187906 14.7698304,10.3596641 14.3062714,10.7005375 C14.4819967,10.147794 14.6603913,9.59639418 14.8365615,9.04409854 C14.3743371,8.7018813 13.9107781,8.36145577 13.4485538,8.01879059 C14.0215518,8.01655095 14.5945499,8.01968645 15.1671031,8.01744681" id="Fill-14" fill="#002248"></path>
                            <path d="M1.26299807,9.18744009 C1.5770793,8.46582755 1.94676983,7.76929899 2.3640619,7.10278163 C2.45882012,7.40871669 2.55980658,7.71241209 2.65545455,8.01789922 C3.22845261,8.019243 3.80145068,8.01745129 4.37444874,8.01879507 C3.91222437,8.36101232 3.4482205,8.70143785 2.98599613,9.04410302 C3.16261122,9.59639866 3.34056093,10.1482464 3.51628627,10.700542 C3.05317215,10.3592206 2.58916828,10.0196909 2.12738878,9.67702576 C1.66116054,10.0156596 1.19893617,10.3601165 0.734042553,10.7009899 C0.899980658,10.1930392 1.04634429,9.67702576 1.26299807,9.18744009" id="Fill-16" fill="#002248"></path>
                            <g id="Group-30" transform="translate(0.000000, 12.665353)">
                                <mask id="mask-4" fill="white">
                                    <use xlink:href="#path-3"></use>
                                </mask>
                                <g id="Clip-29"></g>
                                <path d="M1.5979795,1.6687794 C1.76970097,1.11737962 1.94854043,0.567771557 2.12560039,0.0177155655 C2.30266035,0.56956327 2.47927544,1.12141097 2.6563354,1.67325868 C3.22844371,1.67460246 3.80010716,1.67281075 4.37221547,1.67415454 C3.91088085,2.01681971 3.44776673,2.35679731 2.98598723,2.69856663 C3.16171257,3.25086226 3.34055203,3.80270997 3.51627737,4.3550056 C3.05138375,4.01458007 2.58915938,3.67057111 2.12337602,3.33104143 C1.66115164,3.67370661 1.19803752,4.01413214 0.734033656,4.35455767 C0.910648743,3.80270997 1.08637408,3.25131019 1.26476867,2.70035834 C0.850590716,2.38367301 0.417728046,2.0893841 0.0120027079,1.76284434 C0.00888858801,1.74089586 0.00310522244,1.69655095 -8.89748549e-06,1.67460246 C0.532950484,1.66967525 1.06546499,1.68042553 1.5979795,1.6687794" id="Fill-28" fill="#002248" mask="url(#mask-4)"></path>
                            </g>
                            <path d="M8.90592921,12.7077044 C9.10923675,13.2416349 9.25915938,13.7970661 9.44289246,14.3390594 C10.0145559,14.3395073 10.5862193,14.3386114 11.1578828,14.3395073 C10.6974379,14.6830683 10.233434,15.0221501 9.77209942,15.3639194 C9.94782476,15.9157671 10.1266642,16.4667189 10.3010549,17.0190146 C9.83660619,16.6799328 9.37482669,16.3363718 8.9112677,15.9963942 C8.44726383,16.3368645 7.98548433,16.6799328 7.52103559,17.0190146 C7.69587118,16.4671669 7.87382089,15.9157671 8.05088085,15.3643673 C7.58910135,15.0221501 7.12554236,14.6821725 6.66420774,14.3395073 C7.23587118,14.3386114 7.8079795,14.3395073 8.38008781,14.3390594 C8.55625803,13.7957223 8.72531025,13.2496976 8.90592921,12.7077044" id="Fill-31" fill="#002248"></path>
                            <path d="M15.6960631,12.6830773 C15.8757923,13.2331333 16.0515176,13.784533 16.2263532,14.3363807 C16.7989064,14.3430997 17.3719044,14.3372766 17.9449025,14.3395162 C17.4835679,14.6826293 17.0200089,15.0217111 16.5586743,15.3639283 C16.7343996,15.916224 16.9127942,16.4680717 17.0885195,17.0203673 C16.6262952,16.6790459 16.1609567,16.342159 15.7022913,15.9968063 C15.2333938,16.3327525 14.7725041,16.6808376 14.3062758,17.0203673 C14.482446,16.4680717 14.6599509,15.916224 14.836566,15.3639283 C14.3747865,15.0217111 13.9112275,14.6821814 13.4498928,14.3395162 C14.022446,14.3372766 14.5954441,14.3430997 15.1684422,14.3363807 C15.3419431,13.784533 15.5216723,13.234477 15.6960631,12.6830773" id="Fill-33" fill="#002248"></path>
                            <path d="M22.0862238,1.28104367 C22.722394,1.5739888 23.3349859,1.91754983 23.925334,2.29470549 C23.7318137,2.43804255 23.5374037,2.58048376 23.3443282,2.72426876 C23.5204985,3.27611646 23.6984482,3.82751624 23.8741735,4.37981187 C23.408835,4.04073012 22.9470555,3.69627324 22.4826068,3.35674356 C22.0194926,3.69806495 21.5568234,4.03983427 21.0932644,4.37981187 C21.2667654,3.82706831 21.4469395,3.27656439 21.6222199,2.72426876 C21.1608853,2.38249944 20.6977712,2.04296976 20.2377712,1.70030459 C20.8085449,1.69851288 21.3797634,1.69985666 21.9514269,1.69940873 C21.9968041,1.56010302 22.0412915,1.42034938 22.0862238,1.28104367" id="Fill-35" fill="#D82028"></path>
                            <path d="M22.3834043,6.67232699 C22.4141006,6.57826204 22.4345648,6.47747816 22.4928433,6.39550728 C22.6694584,6.93526092 22.8398453,7.4772542 23.014236,8.0179037 C23.5867892,8.01879955 24.1588975,8.01700784 24.7310058,8.01879955 C24.2701161,8.36236058 23.8065571,8.70189026 23.3443327,9.0441075 C23.520058,9.59595521 23.6988975,10.1469071 23.8737331,10.6992027 C23.4088395,10.3605689 22.94706,10.0170078 22.4830561,9.67658231 C22.0194971,10.0179037 21.556383,10.359673 21.0923791,10.7009944 C21.2676596,10.1482508 21.4460542,9.59685106 21.6226692,9.04455543 C21.1608897,8.70144233 20.696441,8.36280851 20.2355513,8.01879955 C20.8076596,8.01700784 21.3797679,8.01835162 21.9518762,8.0179037 C22.0960155,7.56952744 22.2397099,7.12115118 22.3834043,6.67232699" id="Fill-37" fill="#D82028"></path>
                            <path d="M28.9119342,7.47052632 C29.4555706,8.40132139 29.910677,9.384972 30.2585687,10.4066965 C29.9271373,10.1630235 29.5997099,9.91397536 29.2633849,9.67702128 C28.8051644,10.022374 28.3411605,10.3596641 27.8789362,10.6996417 C28.0533269,10.1468981 28.2330561,9.59594625 28.4078917,9.04365062 C27.9456673,8.70143337 27.4821083,8.36145577 27.0203288,8.01834267 C27.5933269,8.01699888 28.166325,8.01879059 28.739323,8.01744681 C28.7962669,7.83513998 28.8567698,7.653729 28.9119342,7.47052632" id="Fill-45" fill="#D82028"></path>
                            <path d="M22.3740663,13.0221501 C22.4087665,12.9168869 22.4319,12.8058007 22.4915132,12.7112878 C22.669018,13.2523852 22.8394048,13.7961702 23.0146853,14.3386114 C23.5863487,14.3399552 24.1580122,14.3381635 24.7301205,14.3395073 C24.2696756,14.6830683 23.8056718,15.0217021 23.3443371,15.3643673 C23.5200625,15.916215 23.6989019,16.4676148 23.8737375,17.0199104 C23.4097337,16.6799328 22.9470644,16.3372676 22.4835054,15.9968421 C22.0195015,16.3372676 21.5572772,16.6799328 21.0928284,17.0199104 C21.267664,16.4671669 21.4469484,15.916215 21.6222288,15.3634714 C21.1604493,15.0221501 20.6968903,14.6821725 20.2360006,14.3395073 C20.807664,14.3381635 21.3797723,14.3399552 21.9518807,14.3386114 C22.0929058,13.9000896 22.2330412,13.4611198 22.3740663,13.0221501" id="Fill-47" fill="#D82028"></path>
                            <path d="M29.2682696,12.6826159 C29.4457745,13.231776 29.6255037,13.7804882 29.7945559,14.3327839 C30.2096236,14.3471176 30.6251362,14.3354714 31.0402039,14.3386069 C31.0482116,14.4514849 31.0548847,14.5648108 31.0597783,14.6781366 C30.749701,14.9074759 30.4378441,15.1345756 30.1295462,15.3661545 C30.3088306,15.9166585 30.484111,16.4685062 30.6602812,17.0199507 C30.197612,16.6794804 29.7331632,16.3412945 29.2736081,15.9968376 C28.8051555,16.3327839 28.3456004,16.6812721 27.8784824,17.019458 C28.0546526,16.4676103 28.2317126,15.9162105 28.4083277,15.3643628 C27.946993,15.0221456 27.483434,14.682168 27.0216545,14.3399507 C27.5942077,14.3368152 28.1667609,14.3417424 28.7393141,14.3377111 C28.9141497,13.7854155 29.0929892,13.2344636 29.2682696,12.6826159" id="Fill-49" fill="#D82028"></path>
                            <path d="M1.5962,20.6422889 C1.77859845,20.0981008 1.94587118,19.5489406 2.12560039,19.0038119 C2.30266035,19.5547637 2.47972031,20.1057156 2.65544565,20.6570705 C3.22799884,20.6584143 3.80099691,20.6570705 4.37399497,20.6580112 C3.91266035,21.0019754 3.44865648,21.3411019 2.98643211,21.6837223 C3.16171257,22.2360179 3.34055203,22.7874625 3.5158325,23.3397581 C3.0522735,22.9997805 2.58915938,22.6593102 2.12782476,22.3166898 C1.99080348,22.4138903 1.85600658,22.5146741 1.72120967,22.6141142 C1.39511683,21.9815946 1.10906267,21.3285151 0.870165184,20.6575633 C1.11128704,20.646813 1.36086151,20.679467 1.5962,20.6422889" id="Fill-51" fill="#D82028"></path>
                            <path d="M15.6938253,19.0091467 C15.882452,19.5547682 16.048835,20.1083628 16.2276745,20.657075 C16.8006725,20.6584188 17.3736706,20.657075 17.9466687,20.6580157 C17.4848892,21.0015319 17.0208853,21.3415095 16.5586609,21.6837268 C16.7339414,22.2365151 16.9127809,22.787467 17.0880613,23.3401657 C16.6240574,22.999785 16.1609433,22.6584636 15.6982741,22.3166943 C15.2333805,22.6566719 14.7711561,22.999785 14.3067074,23.3397626 C14.4819878,22.787467 14.6599375,22.2365151 14.8365526,21.6846226 C14.3747731,21.3415095 13.9098795,21.0024278 13.4489897,20.6584188 C14.0228776,20.6539843 14.5967654,20.6642419 15.1706532,20.6530437 C15.3401503,20.1034804 15.5212141,19.5578589 15.6938253,19.0091467" id="Fill-53" fill="#D82028"></path>
                            <path d="M29.2691594,19.0038074 C29.4453296,19.5525196 29.6255037,20.1002912 29.7945559,20.651243 C29.9222348,20.6584099 30.0503586,20.6588578 30.1789273,20.6575588 C29.9631632,21.26271 29.7095849,21.8539754 29.4217513,22.4277268 C29.3705907,22.3905487 29.319875,22.3538634 29.2700491,22.3171333 C28.8051555,22.656215 28.3442658,23.000224 27.8793721,23.3393057 C28.053318,22.7870101 28.2330472,22.2360134 28.4078828,21.6837178 C27.9461033,21.3410974 27.4812097,21.0015677 27.019875,20.6580067 C27.5928731,20.6570661 28.1658712,20.6588578 28.7388692,20.6570661 C28.9159292,20.1057111 29.0912097,19.5543113 29.2691594,19.0038074" id="Fill-55" fill="#D82028"></path>
                            <path d="M8.38009671,20.6575543 C8.55804642,20.1061097 8.73288201,19.5538141 8.91172147,19.0024591 C9.08922631,19.5538141 9.26450677,20.1061097 9.44245648,20.6575543 C10.0150097,20.6580022 10.5875629,20.6566137 11.1601161,20.6584502 C10.6987814,21.0019664 10.2334429,21.3410929 9.77210832,21.685505 C9.94916828,22.2365017 10.1266731,22.7874535 10.3015087,23.3397492 C9.83705996,23.0002195 9.37528046,22.6566585 8.9112766,22.3166809 C8.44727273,22.6575095 7.98504836,23.0002195 7.52059961,23.3397492 C7.6954352,22.7874535 7.87427466,22.2365017 8.05044487,21.684654 C7.5882205,21.3415409 7.12421663,21.0015633 6.66243714,20.6584502 C7.23499033,20.6566137 7.80754352,20.6584502 8.38009671,20.6575543" id="Fill-57" fill="#D82028"></path>
                            <path d="M21.9523255,20.6575543 C22.1298304,20.1065577 22.304666,19.5543068 22.4835054,19.0033102 C22.6619,19.5543068 22.8362907,20.1065577 23.0142404,20.6575543 C23.5867936,20.6580022 24.1589019,20.6566137 24.7314551,20.6584502 C24.2705654,21.0024143 23.8061166,21.3415409 23.3443371,21.684206 C23.5205074,22.236009 23.6984571,22.7874535 23.8741824,23.3397492 C23.4097337,23.0002195 22.9475093,22.6579574 22.4843952,22.3166809 C22.0195015,22.6544188 21.561281,23.0010705 21.0946079,23.3352251 C21.2681089,22.7842732 21.4469484,22.2351579 21.6226737,21.684654 C21.1608942,21.3415409 20.6960006,21.0019664 20.234666,20.6584502 C20.8072191,20.6566137 21.3797723,20.6584502 21.9523255,20.6575543" id="Fill-59" fill="#D82028"></path>
                            <path d="M8.90638743,25.3433057 C9.10658085,25.8803718 9.26006248,26.4349071 9.4429058,26.9787368 C10.0145692,26.9800358 10.5862327,26.9782441 11.158341,26.9795879 C10.6974513,27.322701 10.2334474,27.6618275 9.77211277,28.0044479 C9.94472398,28.5553998 10.1324609,29.1023203 10.2957298,29.6564076 C9.83439516,29.3159821 9.37261567,28.9760493 8.91128104,28.6365196 C8.67015919,28.8143024 8.42859246,28.9903382 8.18880522,29.1695095 C8.04155184,29.0929138 7.89785745,29.010495 7.75371818,28.928972 C7.85337002,28.6207973 7.95168723,28.3121747 8.05000445,28.004 C7.58866983,27.6618275 7.12511083,27.3222979 6.66422108,26.9795879 C7.23588453,26.9782441 7.80754797,26.9795879 8.37921141,26.9791848 C8.55671625,26.4344591 8.72621335,25.8871355 8.90638743,25.3433057" id="Fill-61" fill="#D82028"></path>
                            <path d="M15.1671031,26.9778052 C15.3441631,26.4264054 15.5167743,25.8732139 15.6991727,25.3236058 C15.8780122,25.8763494 16.0466195,26.4331243 16.2356911,26.9827324 C16.8051302,26.9746697 17.3745692,26.9809406 17.9444532,26.9795969 C17.4835634,27.32271 17.0195596,27.6613438 16.5586698,28.0044569 C16.7343952,28.5563046 16.9127897,29.1072564 17.0885151,29.6595521 C16.6236215,29.3200224 16.1613971,28.9769093 15.6969484,28.6364838 C15.2329445,28.9769093 14.771165,29.3200224 14.3067162,29.6595521 C14.4819967,29.1072564 14.6599464,28.5563046 14.8361166,28.0044569 C14.374782,27.6618365 13.9107781,27.3218141 13.4494435,26.9791489 C14.0219967,26.9778052 14.5945499,26.9809406 15.1671031,26.9778052" id="Fill-63" fill="#D82028"></path>
                            <path d="M21.9518673,26.9791624 C22.1356004,26.4362732 22.2850781,25.8803942 22.4897203,25.345523 C22.6685598,25.8889048 22.8380569,26.4353326 23.0155617,26.9791624 C23.5872251,26.9796103 24.1584437,26.9782217 24.7301072,26.9800582 C24.2687725,27.3217828 23.806993,27.662701 23.3447687,28.0030817 C23.4235114,28.2544143 23.5049234,28.5048063 23.5850008,28.7556461 C23.4119447,28.8604614 23.2379988,28.9634849 23.060494,29.0602374 C22.8669737,28.9200358 22.6756778,28.7775498 22.4830472,28.6364972 C22.0194882,28.9773259 21.5572638,29.3195879 21.0928151,29.6595655 C21.2680956,29.1077178 21.4456004,28.556318 21.6226603,28.0048735 C21.1617706,27.6613124 20.6964321,27.3240672 20.236877,26.9787144 C20.8085404,26.9791624 21.3802039,26.9791624 21.9518673,26.9791624" id="Fill-65" fill="#D82028"></path>
                        </g>
                    </g>
                    <path d="M221.406738,18.5419922 L221.406738,25.5 L219.062988,25.5 L219.062988,7.7265625 L225.618164,7.7265625 C227.563161,7.7265625 229.08699,8.22297681 230.189697,9.21582031 C231.292405,10.2086638 231.84375,11.522941 231.84375,13.1586914 C231.84375,14.8839604 231.304612,16.2124791 230.226318,17.1442871 C229.148025,18.0760952 227.603851,18.5419922 225.59375,18.5419922 L221.406738,18.5419922 Z M221.406738,16.6254883 L225.618164,16.6254883 C226.871426,16.6254883 227.831702,16.330488 228.499023,15.7404785 C229.166344,15.1504691 229.5,14.2980199 229.5,13.1831055 C229.5,12.1251575 229.166344,11.2788118 228.499023,10.644043 C227.831702,10.0092742 226.916184,9.67968762 225.752441,9.65527344 L221.406738,9.65527344 L221.406738,16.6254883 Z M233.882324,18.7739258 C233.882324,17.479974 234.136635,16.3162487 234.645264,15.2827148 C235.153893,14.249181 235.861893,13.451663 236.769287,12.8901367 C237.676681,12.3286105 238.712234,12.0478516 239.875977,12.0478516 C241.674488,12.0478516 243.129145,12.6704039 244.23999,13.9155273 C245.350836,15.1606508 245.90625,16.8167214 245.90625,18.8837891 L245.90625,19.0424805 C245.90625,20.3282942 245.660077,21.4818471 245.167725,22.5031738 C244.675372,23.5245005 243.97144,24.3199841 243.055908,24.8896484 C242.140376,25.4593127 241.088548,25.7441406 239.900391,25.7441406 C238.110017,25.7441406 236.659429,25.1215883 235.548584,23.8764648 C234.437739,22.6313414 233.882324,20.9834087 233.882324,18.9326172 L233.882324,18.7739258 Z M236.152832,19.0424805 C236.152832,20.5073315 236.492591,21.6832638 237.172119,22.5703125 C237.851647,23.4573612 238.761062,23.9008789 239.900391,23.9008789 C241.047857,23.9008789 241.959307,23.4512578 242.634766,22.552002 C243.310225,21.6527462 243.647949,20.3934 243.647949,18.7739258 C243.647949,17.3253508 243.304121,16.1514531 242.616455,15.2521973 C241.928789,14.3529415 241.015305,13.9033203 239.875977,13.9033203 C238.761062,13.9033203 237.86182,14.346838 237.178223,15.2338867 C236.494625,16.1209354 236.152832,17.390454 236.152832,19.0424805 Z M255.122559,14.3183594 C254.78076,14.2613929 254.410484,14.2329102 254.011719,14.2329102 C252.530592,14.2329102 251.525556,14.8636005 250.996582,16.125 L250.996582,25.5 L248.738281,25.5 L248.738281,12.2919922 L250.935547,12.2919922 L250.972168,13.8178711 C251.712732,12.6378522 252.762526,12.0478516 254.121582,12.0478516 C254.561037,12.0478516 254.894693,12.1048171 255.122559,12.21875 L255.122559,14.3183594 Z M260.261719,9.09375 L260.261719,12.2919922 L262.727539,12.2919922 L262.727539,14.0375977 L260.261719,14.0375977 L260.261719,22.2285156 C260.261719,22.7574896 260.371581,23.1542142 260.591309,23.4187012 C260.811036,23.6831882 261.185381,23.8154297 261.714355,23.8154297 C261.974773,23.8154297 262.332843,23.7666021 262.788574,23.6689453 L262.788574,25.5 C262.194496,25.6627612 261.616702,25.7441406 261.055176,25.7441406 C260.046056,25.7441406 259.285159,25.4389679 258.772461,24.8286133 C258.259763,24.2182587 258.003418,23.3515681 258.003418,22.2285156 L258.003418,14.0375977 L255.598633,14.0375977 L255.598633,12.2919922 L258.003418,12.2919922 L258.003418,9.09375 L260.261719,9.09375 Z M273.518555,25.5 C273.388346,25.239582 273.282552,24.7757195 273.201172,24.1083984 C272.151362,25.1988987 270.898119,25.7441406 269.441406,25.7441406 C268.139316,25.7441406 267.071212,25.3758989 266.237061,24.6394043 C265.402909,23.9029097 264.98584,22.9690812 264.98584,21.8378906 C264.98584,20.4625582 265.508702,19.3944537 266.554443,18.6335449 C267.600184,17.8726362 269.071117,17.4921875 270.967285,17.4921875 L273.164551,17.4921875 L273.164551,16.4545898 C273.164551,15.6651979 272.928551,15.0365421 272.456543,14.5686035 C271.984535,14.100665 271.288742,13.8666992 270.369141,13.8666992 C269.563473,13.8666992 268.888024,14.0701477 268.342773,14.4770508 C267.797523,14.8839539 267.524902,15.3762992 267.524902,15.9541016 L265.254395,15.9541016 C265.254395,15.2949186 265.48836,14.6581248 265.956299,14.0437012 C266.424237,13.4292775 267.058997,12.9430356 267.860596,12.5849609 C268.662195,12.2268862 269.543127,12.0478516 270.503418,12.0478516 C272.025235,12.0478516 273.217444,12.4283002 274.080078,13.189209 C274.942713,13.9501177 275.390299,14.9978774 275.422852,16.3325195 L275.422852,22.4116211 C275.422852,23.6241923 275.577472,24.5885381 275.886719,25.3046875 L275.886719,25.5 L273.518555,25.5 Z M269.770996,23.7788086 C270.479007,23.7788086 271.150387,23.595705 271.785156,23.2294922 C272.419925,22.8632794 272.879719,22.38721 273.164551,21.8012695 L273.164551,19.0913086 L271.394531,19.0913086 C268.62759,19.0913086 267.244141,19.9010336 267.244141,21.5205078 C267.244141,22.2285192 267.480141,22.781899 267.952148,23.1806641 C268.424156,23.5794291 269.030432,23.7788086 269.770996,23.7788086 Z M281.416504,25.5 L279.158203,25.5 L279.158203,6.75 L281.416504,6.75 L281.416504,25.5 Z" id="Portal" fill="#2B445F"></path>
                    <rect id="Rectangle-13" fill="#E7E7E7" x="205" y="1" width="2" height="30"></rect>
                </g>
            </g>
        </g>
    </g>
</svg>