<?xml version="1.0" encoding="UTF-8"?>
<svg width="16px" height="14px" viewBox="0 0 16 14" version="1.1" xmlns="http://www.w3.org/2000/svg" xmlns:xlink="http://www.w3.org/1999/xlink">
    <!-- Generator: Sketch 53.2 (72643) - https://sketchapp.com -->
    <title>Combined Shape</title>
    <desc>Created with Sketch.</desc>
    <g id="Applicant-Detail" stroke="none" stroke-width="1" fill="none" fill-rule="evenodd">
        <g id="Merchant-Portal---Applicant-Detail---Request-Refund" transform="translate(-845.000000, -28.000000)" fill="#8190A3" fill-rule="nonzero">
            <g id="Group-36" transform="translate(835.000000, 0.000000)">
                <g id="Group-38" transform="translate(0.000000, 17.000000)">
                    <g id="Group-25" transform="translate(18.000000, 18.000000) scale(-1, 1) translate(-18.000000, -18.000000) translate(10.000000, 11.000000)">
                        <path d="M11.9292043,6 L7.82427832,2.23715119 C7.41715933,1.86395879 7.3896564,1.23139142 7.76284881,0.824272426 C8.13604121,0.417153436 8.76860858,0.389650507 9.17572757,0.762842915 L15.1757276,6.26284291 C15.6080947,6.65917948 15.6080947,7.34081463 15.1757276,7.73715119 L9.17572757,13.2371512 C8.76860858,13.6103436 8.13604121,13.5828407 7.76284881,13.1757217 C7.3896564,12.7686027 7.41715933,12.1360353 7.82427832,11.7628429 L11.9291979,8 L1.86962891,8 C1.31734416,8 0.869628906,7.55228475 0.869628906,7 C0.869628906,6.44771525 1.31734416,6 1.86962891,6 L11.9292043,6 Z" id="Combined-Shape"></path>
                    </g>
                </g>
            </g>
        </g>
    </g>
</svg>