<?xml version="1.0" encoding="UTF-8"?>
<svg width="51px" height="44px" viewBox="0 0 51 44" version="1.1" xmlns="http://www.w3.org/2000/svg" xmlns:xlink="http://www.w3.org/1999/xlink">
    <!-- Generator: Sketch 50 (54983) - http://www.bohemiancoding.com/sketch -->
    <title>Fill 1</title>
    <desc>Created with Sketch.</desc>
    <defs></defs>
    <g id="Dashboard" stroke="none" stroke-width="1" fill="none" fill-rule="evenodd">
        <g id="Merchants---Portal---Dashboard" transform="translate(-29.000000, -438.000000)" fill="#002248">
            <g id="Group-7" transform="translate(0.000000, 90.000000)">
                <g id="Group-5" transform="translate(0.500000, 338.000000)">
                    <path d="M63.5359184,35.6939796 C63.5359184,36.3980612 62.9644898,36.9694898 62.2604082,36.9694898 L55.0767347,36.9694898 C54.3721429,36.9694898 53.8007143,36.3980612 53.8007143,35.6939796 C53.8007143,34.9893878 54.3721429,34.4184694 55.0767347,34.4184694 L62.2604082,34.4184694 C62.962449,34.4184694 63.5328571,34.9863265 63.5359184,35.6888776 L63.5359184,35.6939796 Z M51.0104082,32.6327551 C51.4129592,33.2103061 51.2711224,34.0052041 50.6940816,34.4082653 C49.0012245,35.5837755 47.5328571,37.0526531 46.3573469,38.745 C46.1231633,39.0842857 45.7389796,39.2893878 45.3267347,39.2960204 L45.2706122,39.2960204 C44.8338776,39.2771429 44.437449,39.0363265 44.2195918,38.6582653 C43.7905102,37.9143878 43.1726531,37.2965306 42.4282653,36.867449 C41.8160204,36.5194898 41.6017347,35.7404082 41.9502041,35.1281633 C42.2981633,34.5154082 43.0767347,34.3016327 43.6894898,34.6495918 C43.6940816,34.6521429 43.6991837,34.6552041 43.7037755,34.6582653 C44.3007143,35.0011224 44.8466327,35.425102 45.3267347,35.9184694 C46.4680612,34.5460204 47.7894898,33.3347959 49.2553061,32.3164286 C49.8287755,31.9271429 50.6083673,32.0679592 51.0104082,32.6327551 Z M63.5359184,19.6582653 C63.5359184,20.3628571 62.9644898,20.9337755 62.2604082,20.9337755 L55.0767347,20.9337755 C54.3721429,20.9337755 53.8007143,20.3628571 53.8007143,19.6582653 C53.8007143,18.9536735 54.3721429,18.3827551 55.0767347,18.3827551 L62.2604082,18.3827551 C62.9644898,18.3827551 63.5359184,18.9536735 63.5359184,19.6582653 Z M41.9440816,19.117449 C42.2915306,18.5046939 43.070102,18.289898 43.6823469,18.6373469 C43.6828571,18.6373469 43.6833673,18.6373469 43.6833673,18.6378571 C44.2879592,18.9822449 44.8410204,19.4097959 45.3267347,19.9082653 C46.4695918,18.5358163 47.792551,17.3240816 49.2604082,16.3062245 C49.8389796,15.9046939 50.6338776,16.0485714 51.0359184,16.6276531 C51.437449,17.2067347 51.2930612,18.0016327 50.7144898,18.4031633 C49.012449,19.5694898 47.5333673,21.0312245 46.3471429,22.7194898 C46.1180612,23.0618367 45.7379592,23.272551 45.3267347,23.2858163 L45.2706122,23.2858163 C44.8338776,23.267449 44.437449,23.0266327 44.2195918,22.6480612 C43.7905102,21.9036735 43.1726531,21.2858163 42.4282653,20.8572449 C41.8144898,20.5118367 41.5971429,19.7337755 41.942551,19.12 C41.9430612,19.1189796 41.9435714,19.1184694 41.9440816,19.117449 Z M63.5359184,27.6888776 C63.5359184,28.3929592 62.9644898,28.9643878 62.2604082,28.9643878 L55.0767347,28.9643878 C54.3721429,28.9643878 53.8007143,28.3929592 53.8007143,27.6888776 C53.8007143,26.9842857 54.3721429,26.4133673 55.0767347,26.4133673 L62.2604082,26.4133673 C62.9644898,26.4133673 63.5359184,26.9842857 63.5359184,27.6888776 Z M51.0104082,24.6276531 C51.4119388,25.2062245 51.2680612,26.0011224 50.6894898,26.4026531 C50.6889796,26.4026531 50.6889796,26.4031633 50.6884694,26.4031633 C48.9961224,27.5786735 47.5277551,29.0470408 46.3517347,30.739898 C46.1185714,31.0781633 45.7369388,31.2827551 45.3267347,31.2909184 L45.2706122,31.2909184 C44.8338776,31.2720408 44.437449,31.0317347 44.2195918,30.6531633 C43.7889796,29.8995918 43.1655102,29.2740816 42.4134694,28.8419388 C41.8053061,28.4858163 41.6017347,27.7041837 41.9578571,27.0965306 C42.3109184,26.4944898 43.0823469,26.2873469 43.6889796,26.6327551 C44.2920408,26.9807143 44.8435714,27.4118367 45.3267347,27.9133673 C46.4695918,26.5409184 47.792551,25.3291837 49.2604082,24.3113265 C49.8328571,23.9256122 50.6088776,24.0659184 51.0104082,24.6276531 Z M76.4491837,18.4337755 L69.015,18.4337755 L69.015,16.2654082 C69.015,14.2123469 70.6792857,12.5485714 72.7318367,12.5485714 C74.784898,12.5485714 76.4491837,14.2123469 76.4491837,16.2654082 L76.4491837,18.4337755 Z M66.4639796,16.2654082 L66.4639796,47.5409184 C66.4639796,49.5939796 64.8002041,51.2572449 62.7471429,51.2572449 C60.695102,51.2572449 59.0308163,49.5939796 59.0308163,47.5409184 L59.0308163,44.0970408 C59.0308163,43.392449 58.4593878,42.8215306 57.7553061,42.8215306 L38.8420408,42.8215306 L38.8420408,16.3266327 C38.8445918,14.242449 40.5333673,12.5541837 42.617551,12.5511224 L67.6986735,12.5511224 C66.8986735,13.6240816 66.4655102,14.9266327 66.4639796,16.2654082 Z M35.265,51.2552041 C33.215,51.2526531 31.5537755,49.5909184 31.5512245,47.5409184 L31.5512245,45.372551 L56.484898,45.372551 L56.484898,47.5409184 C56.4838776,48.8781633 56.9134694,50.1802041 57.7088776,51.2552041 L35.265,51.2552041 Z M72.7343878,10.000102 L42.6328571,10.000102 C39.14,10.0031633 36.3088776,12.8337755 36.3058163,16.3266327 L36.3058163,42.8215306 L30.2757143,42.8215306 C29.5711224,42.8215306 29.0002041,43.392449 29.0002041,44.0970408 L29.0002041,47.5409184 C29.0058163,50.9990816 31.8073469,53.8006122 35.265,53.8062245 L62.7502041,53.8062245 C66.2078571,53.8006122 69.009898,50.9990816 69.015,47.5409184 L69.015,20.9847959 L77.7246939,20.9847959 C78.4287755,20.9847959 79.0002041,20.4133673 79.0002041,19.7092857 L79.0002041,16.2654082 C78.9945918,12.8077551 76.192551,10.0057143 72.7343878,10.000102 Z" id="Fill-1"></path>
                </g>
            </g>
        </g>
    </g>
</svg>