<?xml version="1.0" encoding="UTF-8"?>
<svg width="160px" height="160px" viewBox="0 0 160 160" version="1.1" xmlns="http://www.w3.org/2000/svg" xmlns:xlink="http://www.w3.org/1999/xlink">
    <!-- Generator: Sketch 50.2 (55047) - http://www.bohemiancoding.com/sketch -->
    <title>Group 8</title>
    <desc>Created with Sketch.</desc>
    <defs></defs>
    <g id="Application-Flow" stroke="none" stroke-width="1" fill="none" fill-rule="evenodd">
        <g id="6---Borrowers---Finalized" transform="translate(-560.000000, -170.000000)">
            <g id="Group-4" transform="translate(292.000000, 170.000000)">
                <g id="Group-8" transform="translate(268.000000, 0.000000)">
                    <circle id="Oval-2" stroke="#D82028" stroke-width="5" cx="80" cy="80" r="77.5"></circle>
                    <g id="Group" transform="translate(33.000000, 26.000000)" fill="#D82028">
                        <path d="M89.0998,89.0132 C89.0998,91.2222 87.3088,93.0132 85.0998,93.0132 L8.9698,93.0132 C6.7608,93.0132 4.9698,91.2222 4.9698,89.0132 L4.9698,45.6132 L32.4098,65.0132 L13.1598,82.2332 C12.1468,83.1712 12.0868,84.7532 13.0248,85.7662 C13.9428,86.7572 15.4808,86.8392 16.4998,85.9532 L43.1498,62.0932 C45.3688,60.1022 48.7308,60.1022 50.9508,62.0932 L77.5998,85.9532 C78.6128,86.8912 80.1948,86.8302 81.1328,85.8182 C82.0718,84.8052 82.0108,83.2232 80.9968,82.2842 C80.9788,82.2672 80.9588,82.2502 80.9398,82.2332 L61.6898,65.0132 L89.0998,45.6132 L89.0998,89.0132 Z M13.3698,34.1132 L13.3698,45.4132 L6.3698,40.4832 L13.3698,34.1132 Z M18.3698,19.6232 C18.3698,18.6012 19.1988,17.7732 20.2198,17.7732 L73.8708,17.7732 C74.8918,17.7732 75.7198,18.6012 75.7198,19.6232 L75.7198,48.9532 L57.8708,61.5832 L54.2808,58.3732 C50.1638,54.6782 43.9258,54.6782 39.8098,58.3732 L36.2198,61.5832 L18.3698,48.9532 L18.3698,19.6232 Z M43.8898,6.2432 C45.6748,4.5962 48.4248,4.5962 50.2098,6.2432 L57.3598,12.7732 L36.7398,12.7732 L43.8898,6.2432 Z M80.7298,34.1132 L87.7298,40.4832 L80.7298,45.4132 L80.7298,34.1132 Z M80.7298,27.3432 L80.7298,19.6232 C80.7248,15.8422 77.6618,12.7792 73.8798,12.7732 L64.7808,12.7732 L53.5798,2.5532 C49.8878,-0.8508 44.2018,-0.8508 40.5098,2.5532 L29.3198,12.7732 L20.2198,12.7732 C16.4388,12.7792 13.3758,15.8422 13.3698,19.6232 L13.3698,27.3432 L1.8398,37.8832 C0.6798,38.9442 0.0128,40.4412 -0.0002,42.0132 L-0.0002,89.0132 C-0.0002,93.9842 4.0298,98.0132 8.9998,98.0132 L85.1298,98.0132 C90.1008,98.0132 94.1298,93.9842 94.1298,89.0132 L94.1298,42.0132 C94.1278,40.4272 93.4598,38.9142 92.2898,37.8432 L80.7298,27.3432 Z" id="Fill-1"></path>
                        <path d="M29.63,35.8732 L37.21,35.8732 L37.21,28.2832 L29.63,28.2832 L29.63,35.8732 Z M39.72,40.8732 C41.101,40.8732 42.22,39.7542 42.22,38.3732 L42.22,25.7832 C42.22,24.4022 41.101,23.2832 39.72,23.2832 L27.13,23.2832 C25.749,23.2832 24.63,24.4022 24.63,25.7832 L24.63,38.3732 C24.63,39.7542 25.749,40.8732 27.13,40.8732 L39.72,40.8732 Z" id="Fill-4"></path>
                        <path d="M49.5402,28.6431 L66.9102,28.6431 C68.2902,28.6431 69.4102,27.5241 69.4102,26.1431 C69.4102,24.7631 68.2902,23.6431 66.9102,23.6431 L49.5402,23.6431 C48.1592,23.6431 47.0402,24.7631 47.0402,26.1431 C47.0402,27.5241 48.1592,28.6431 49.5402,28.6431" id="Fill-6"></path>
                        <path d="M49.5402,39.5132 L66.9102,39.5132 C68.2902,39.5132 69.4102,38.3942 69.4102,37.0132 C69.4102,35.6322 68.2902,34.5132 66.9102,34.5132 L49.5402,34.5132 C48.1592,34.5132 47.0402,35.6322 47.0402,37.0132 C47.0402,38.3942 48.1592,39.5132 49.5402,39.5132" id="Fill-7"></path>
                        <path d="M67.5998,47.8931 C67.5998,46.5131 66.4808,45.3931 65.0998,45.3931 L28.9398,45.3931 C27.5588,45.3931 26.4398,46.5131 26.4398,47.8931 C26.4398,49.2741 27.5588,50.3931 28.9398,50.3931 L65.0998,50.3931 C66.4808,50.3931 67.5998,49.2741 67.5998,47.8931" id="Fill-8"></path>
                    </g>
                </g>
            </g>
        </g>
    </g>
</svg>