<?xml version="1.0" encoding="UTF-8"?>
<svg width="51px" height="55px" viewBox="0 0 51 55" version="1.1" xmlns="http://www.w3.org/2000/svg" xmlns:xlink="http://www.w3.org/1999/xlink">
    <!-- Generator: Sketch 50 (54983) - http://www.bohemiancoding.com/sketch -->
    <title>Page 1</title>
    <desc>Created with Sketch.</desc>
    <defs>
        <polygon id="path-1" points="0.281166667 0.00666666667 11.4928348 0.00666666667 11.4928348 11.2177255 0.281166667 11.2177255 0.281166667 0.00666666667"></polygon>
        <polygon id="path-3" points="13.6183333 30.2956111 13.6183333 0.384479158 0.114816845 0.384479158 0.114816845 30.2956111 13.6183333 30.2956111"></polygon>
        <polygon id="path-5" points="11.6646667 0.00666666667 0.453555556 0.00666666667 0.453555556 11.2177222 11.6646667 11.2177222 11.6646667 0.00666666667"></polygon>
    </defs>
    <g id="Dashboard" stroke="none" stroke-width="1" fill="none" fill-rule="evenodd">
        <g id="Merchants---Portal---Dashboard" transform="translate(-29.000000, -538.000000)">
            <g id="Group-7" transform="translate(0.000000, 90.000000)">
                <g id="Group-5" transform="translate(0.500000, 442.000000)">
                    <g id="Page-1" transform="translate(29.000000, 6.000000)">
                        <path d="M24.859,3.32222222 C26.8073333,3.32222222 28.3867778,4.90166667 28.3867778,6.85 C28.3867778,8.79833333 26.8073333,10.3777778 24.859,10.3777778 C22.9106667,10.3777778 21.3312222,8.79833333 21.3312222,6.85 C21.334,4.90277778 22.9117778,3.325 24.859,3.32222222 M24.859,13.1388889 C28.3323333,13.1388889 31.1478889,10.3233333 31.1478889,6.85 C31.1478889,3.37666667 28.3323333,0.561111111 24.859,0.561111111 C21.3856667,0.561111111 18.5701111,3.37666667 18.5701111,6.85 C18.5762222,10.3205556 21.3884444,13.1327778 24.859,13.1388889" id="Fill-1" fill="#002248"></path>
                        <path d="M17.6923889,18.0333333 C18.2551667,17.3955556 19.0640556,17.0294444 19.9146111,17.0277778 L20.9701667,17.0277778 L23.3035,19.9444444 C23.6657222,20.4033333 24.2190556,20.6694444 24.8035,20.6666667 L24.8812778,20.6666667 C25.4629444,20.6688889 26.0135,20.405 26.3757222,19.95 L28.7479444,17.0277778 L29.7979444,17.0277778 C31.4579444,17.0272222 32.8040556,18.3722222 32.8051667,20.0322222 C32.8051667,20.1416667 32.7990556,20.2516667 32.7862778,20.3611111 L31.5257222,28.6888889 L31.5257222,28.7444444 C31.4279444,29.6294444 30.8357222,30.3816667 29.9979444,30.6833333 C29.5196111,30.8611111 29.1773889,31.2883333 29.1090556,31.7944444 L26.9257222,46.3888889 L26.9257222,46.4333333 C26.9085,46.5983333 26.7690556,46.7233333 26.6035,46.7222222 L23.1146111,46.7222222 C22.9485,46.7233333 22.8096111,46.5983333 22.7923889,46.4333333 L22.7923889,46.3888889 L20.6423889,31.7722222 C20.5740556,31.2661111 20.2318333,30.8388889 19.7535,30.6611111 C18.9162778,30.3594444 18.3235,29.6072222 18.2257222,28.7222222 L18.2257222,28.6666667 L16.9535,20.3333333 C16.8623889,19.4966667 17.1307222,18.6605556 17.6923889,18.0333333 M14.2035,20.6833333 L14.2035,20.7333333 L15.4757222,29.0666667 C15.6612778,30.6733333 16.6023889,32.0955556 18.0090556,32.8944444 L20.0479444,46.7838889 C20.2362778,48.3311111 21.5501667,49.4944444 23.1090556,49.4944444 L26.5979444,49.4944444 C28.1568333,49.4944444 29.4707222,48.3311111 29.6590556,46.7838889 L31.6973889,32.8944444 C33.1046111,32.0955556 34.0451667,30.6733333 34.2312778,29.0666667 L35.5035,20.7333333 L35.5035,20.6833333 C35.8596111,17.5155556 33.5796111,14.6588889 30.4118333,14.3027778 C30.2023889,14.2794444 29.9918333,14.2672222 29.7812778,14.2666667 L28.1923889,14.2666667 C27.7073889,14.2655556 27.2490556,14.4866667 26.9479444,14.8666667 L24.8590556,17.4444444 L22.7979444,14.8722222 C22.4918333,14.4822222 22.0212778,14.2583333 21.5257222,14.2666667 L19.9146111,14.2666667 C16.7268333,14.2805556 14.1535,16.8761111 14.1673889,20.0638889 C14.1685,20.2705556 14.1801667,20.4777778 14.2035,20.6833333" id="Fill-3" fill="#002248"></path>
                        <path d="M43.1256111,48.1942222 C43.1256111,45.5442222 39.9200556,43.4386667 34.1033889,42.2664444 C33.3545,42.1136667 32.6239444,42.5958889 32.4700556,43.3447778 C32.3167222,44.0931111 32.7989444,44.8247778 33.5478333,44.9781111 C38.6867222,46.0108889 40.3478333,47.5886667 40.3478333,48.1942222 C40.3478333,48.6892222 39.2867222,49.7608889 36.3645,50.6942222 C32.6256111,51.7647778 28.7478333,52.2758889 24.8589444,52.2108889 C20.9661667,52.277 17.0850556,51.7658889 13.3422778,50.6942222 C10.4200556,49.7608889 9.35894444,48.6892222 9.35894444,48.1942222 C9.35894444,47.5886667 11.0256111,46.0108889 16.1589444,44.9781111 C16.9078333,44.8247778 17.3900556,44.0931111 17.2367222,43.3447778 C17.0833889,42.5958889 16.3522778,42.1136667 15.6033889,42.2664444 C9.79783333,43.4386667 6.59227778,45.5442222 6.59227778,48.1942222 C6.59227778,49.672 7.6145,51.767 12.4978333,53.3275556 C16.5133889,54.4897778 20.6789444,55.0497778 24.8589444,54.9886667 C29.0395,55.0481111 33.2050556,54.4864444 37.2200556,53.322 C42.0811667,51.767 43.1256111,49.6781111 43.1256111,48.1942222" id="Fill-5" fill="#002248"></path>
                        <g id="Group-9" transform="translate(34.444444, 0.548944)">
                            <mask id="mask-2" fill="white">
                                <use xlink:href="#path-1"></use>
                            </mask>
                            <g id="Clip-8"></g>
                            <path d="M5.88116667,2.77327778 C7.44894444,2.77327778 8.72005556,4.04438889 8.72005556,5.61216667 C8.72005556,7.17994444 7.44894444,8.45105556 5.88116667,8.45105556 C4.31338889,8.45105556 3.04283333,7.17994444 3.04283333,5.61216667 C3.04561111,4.0455 4.31505556,2.77605556 5.88116667,2.77327778 M5.88116667,11.2177222 C8.97672222,11.2210556 11.4895,8.71327778 11.4928333,5.61772222 C11.4950556,2.52161111 8.98838889,0.00938888889 5.89283333,0.00661111111 C2.79616667,0.00383333333 0.2845,2.5105 0.281166667,5.60661111 L0.281166667,5.61216667 C0.2845,8.70438889 2.78894444,11.2116111 5.88116667,11.2177222" id="Fill-7" fill="#002248" mask="url(#mask-2)"></path>
                        </g>
                        <g id="Group-12" transform="translate(36.111111, 12.771167)">
                            <mask id="mask-4" fill="white">
                                <use xlink:href="#path-3"></use>
                            </mask>
                            <g id="Clip-11"></g>
                            <path d="M7.08122222,0.3845 C6.60511111,0.382833333 6.15455556,0.5995 5.859,0.973388889 L4.23122222,3.00672222 L2.60344444,0.973388889 C2.12622222,0.368944444 1.24955556,0.265611111 0.645111111,0.742833333 C0.0406666667,1.2195 -0.0621111111,2.09672222 0.414555556,2.70116667 L2.72566667,5.5845 C3.39844444,6.39727778 4.60344444,6.51116667 5.41677778,5.83783333 C5.509,5.76172222 5.59344444,5.67672222 5.67011111,5.5845 L7.63677778,3.15116667 L8.44788889,3.15116667 C9.77066667,3.15061111 10.8428889,4.22172222 10.8434444,5.54394444 C10.8434444,5.62616667 10.8395556,5.70838889 10.8312222,5.79005556 L9.72011111,12.9567222 L9.72011111,13.0122778 C9.64233333,13.6995 9.18177778,14.2833889 8.53122222,14.5178333 C8.05011111,14.6939444 7.70622222,15.1211667 7.63677778,15.6289444 L5.80344444,28.7345 C5.69788889,29.4906111 6.22511111,30.1889444 6.98122222,30.2956111 L7.17566667,30.2956111 C7.86344444,30.2939444 8.44566667,29.7878333 8.54233333,29.1067222 L10.2867778,16.7233889 C11.5056667,15.9950556 12.3151111,14.7395 12.4756667,13.3289444 L13.5867778,6.15672222 L13.5867778,6.10672222 C13.8995556,3.27672222 11.8595556,0.728388889 9.029,0.415611111 C8.83788889,0.3945 8.64566667,0.383944444 8.45344444,0.3845 L7.08122222,0.3845 Z" id="Fill-10" fill="#002248" mask="url(#mask-4)"></path>
                        </g>
                        <g id="Group-15" transform="translate(3.333333, 0.548944)">
                            <mask id="mask-6" fill="white">
                                <use xlink:href="#path-5"></use>
                            </mask>
                            <g id="Clip-14"></g>
                            <path d="M6.05911111,2.77327778 C7.62688889,2.78883333 8.88522222,4.07216667 8.87022222,5.63994444 C8.85466667,7.20772222 7.57133333,8.46605556 6.00355556,8.45105556 C4.44633333,8.4355 3.19244444,7.16938889 3.19244444,5.61216667 C3.19522222,4.04105556 4.47133333,2.7705 6.04244444,2.77327778 L6.05911111,2.77327778 Z M6.05911111,11.2177222 C9.15466667,11.2177222 11.6646667,8.70827778 11.6646667,5.61216667 C11.6646667,2.51661111 9.15466667,0.00661111111 6.05911111,0.00661111111 C2.963,0.00661111111 0.453555556,2.51661111 0.453555556,5.61216667 C0.456888889,8.70661111 2.96466667,11.2143889 6.05911111,11.2177222 Z" id="Fill-13" fill="#002248" mask="url(#mask-6)"></path>
                        </g>
                        <path d="M0.0367222222,18.9499444 L1.13116667,26.0999444 C1.29561111,27.5066111 2.1045,28.7571667 3.32005556,29.4832778 L5.0645,41.8666111 C5.16116667,42.5477222 5.74338889,43.0543889 6.43116667,43.0555 L6.62561111,43.0555 C7.38172222,42.9493889 7.90894444,42.2505 7.80338889,41.4943889 L5.97005556,28.3943889 C5.90061111,27.8871667 5.55672222,27.4593889 5.07561111,27.2832778 C4.42505556,27.0488333 3.96394444,26.4649444 3.88672222,25.7777222 L3.88672222,25.7221667 L2.77561111,18.5555 C2.64061111,17.2399444 3.59783333,16.0643889 4.91338889,15.9293889 C4.99505556,15.9205 5.07672222,15.9166111 5.15894444,15.9166111 L5.97005556,15.9166111 L7.92005556,18.3499444 C8.26783333,18.7899444 8.79838889,19.0460556 9.35894444,19.0443889 L9.39227778,19.0443889 C9.96394444,19.0582778 10.5089444,18.8032778 10.8645,18.3555 L13.1922778,15.4721667 C13.6367222,14.8510556 13.4939444,13.9866111 12.8722778,13.5421667 C12.2983889,13.1316111 11.5072778,13.2188333 11.0367222,13.7443889 L9.40894444,15.7777222 L7.78672222,13.7555 C7.48505556,13.3677222 7.01727778,13.1449444 6.52561111,13.1555 L5.13672222,13.1555 C2.2895,13.1660556 -0.00994444444,15.4827222 5.55555556e-05,18.3299444 C0.000611111111,18.5127222 0.0111666667,18.6955 0.0311666667,18.8777222 L0.0367222222,18.9499444 Z" id="Fill-16" fill="#002248"></path>
                    </g>
                </g>
            </g>
        </g>
    </g>
</svg>