<?xml version="1.0" encoding="UTF-8"?>
<svg width="80px" height="103px" viewBox="0 0 80 103" version="1.1" xmlns="http://www.w3.org/2000/svg" xmlns:xlink="http://www.w3.org/1999/xlink">
    <!-- Generator: Sketch 53.2 (72643) - https://sketchapp.com -->
    <title>loan-declined</title>
    <desc>Created with Sketch.</desc>
    <g id="Page-1" stroke="none" stroke-width="1" fill="none" fill-rule="evenodd">
        <g id="loan-declined">
            <path d="M5.71428571,4.39490702e-14 C2.59799286,4.39490702e-14 0,2.598 0,5.71428571 L0,88.5714286 C0,91.6877143 2.59799286,94.2857143 5.71428571,94.2857143 L30,94.2857143 C31.0303883,94.3002865 31.9888039,93.7589277 32.5082506,92.8689347 C33.0276974,91.9789417 33.0276974,90.8782012 32.5082506,89.9882081 C31.9888039,89.0982151 31.0303883,88.5568563 30,88.5714286 L5.71428571,88.5714286 L5.71428571,5.71428571 L41.4285714,5.71428571 L41.4285714,25.7142857 C41.4287292,27.2921768 42.7078232,28.5712708 44.2857143,28.5714286 L62.8571429,28.5714286 L62.8571429,52.8571429 C62.8425706,53.8875312 63.3839294,54.8459468 64.2739224,55.3653935 C65.1639154,55.8848402 66.264656,55.8848402 67.154649,55.3653935 C68.044642,54.8459468 68.5860008,53.8875312 68.5714286,52.8571429 L68.5714286,25.7142857 C68.5777401,24.9867842 68.3063145,24.284271 67.8125,23.75 L46.3839286,0.892857143 C45.8387241,0.316972369 45.0787147,-0.00643588414 44.2857143,4.64867402e-14 L5.71428571,4.39490702e-14 Z M47.1428571,10.0446429 L59.1517857,22.8571429 L47.1428571,22.8571429 L47.1428571,10.0446429 Z M58.5714286,60 C46.7705971,60 37.1428571,69.6277143 37.1428571,81.4285714 C37.1428571,93.2294286 46.7705986,102.857143 58.5714286,102.857143 C70.37226,102.857143 80,93.2294286 80,81.4285714 C80,69.6277143 70.37226,60 58.5714286,60 Z M58.5714286,65.7142857 C67.2840286,65.7142857 74.2857143,72.716 74.2857143,81.4285714 C74.2857143,90.1411429 67.2840286,97.1428571 58.5714286,97.1428571 C49.85883,97.1428571 42.8571429,90.1411429 42.8571429,81.4285714 C42.8571429,72.716 49.8588286,65.7142857 58.5714286,65.7142857 Z" id="Shape" fill="#3989E3" fill-rule="nonzero"></path>
            <path d="M58.5453145,71.0171956 C57.0733256,71.178953 55.9688226,72.4384739 56.0006716,73.9189814 L56.0006716,81.0618385 C55.9860994,82.0922268 56.5274582,83.0506424 57.4174512,83.5700891 C58.3074442,84.0895359 59.4081847,84.0895359 60.2981778,83.5700891 C61.1881708,83.0506424 61.7295296,82.0922268 61.7149573,81.0618385 L61.7149573,73.9189814 C61.7326824,73.0961351 61.3947417,72.3056053 60.7876817,71.7498461 C60.1806218,71.194087 59.3634028,70.9270764 58.5453145,71.0171956 Z" id="Shape-path" fill="#D82028"></path>
            <path d="M58.8578145,86.2046956 C57.2798588,86.2046956 56.0006716,87.4841242 56.0006716,89.0618385 C56.0006716,90.6396956 57.2798588,91.9189814 58.8578145,91.9189814 C60.435773,91.9189814 61.7149573,90.6396956 61.7149573,89.0618385 C61.7149573,87.4841242 60.435773,86.2046956 58.8578145,86.2046956 Z" id="Shape-path" fill="#D82028"></path>
        </g>
    </g>
</svg>