<?xml version="1.0" encoding="UTF-8"?>
<svg width="144px" height="144px" viewBox="0 0 144 144" version="1.1" xmlns="http://www.w3.org/2000/svg" xmlns:xlink="http://www.w3.org/1999/xlink">
    <!-- Generator: Sketch 57.1 (83088) - https://sketch.com -->
    <title>Group 5</title>
    <desc>Created with Sketch.</desc>
    <g id="Page-1" stroke="none" stroke-width="1" fill="none" fill-rule="evenodd">
        <g id="Application---Step-3" transform="translate(-921.000000, -164.000000)">
            <g id="Group-5" transform="translate(923.000000, 166.000000)">
                <circle id="Oval" stroke="#3989E3" stroke-width="4" cx="70" cy="70" r="70"></circle>
                <path d="M65.2354897,50.4553491 L58.8710222,37.2814189 C57.8100153,35.0744386 55.7450944,33.5186346 53.3310984,33.1073917 C50.9171024,32.6961487 48.4535201,33.4804872 46.721616,35.2116734 L44.0205981,37.9126913 C36.7570968,45.1762191 34.9297971,56.2607272 39.4775067,65.4713529 L40.3054049,67.1685442 C47.3077654,81.2510294 58.7179244,92.6611884 72.8004096,99.6635489 L74.4976009,100.501796 C83.7141014,105.067194 94.8159497,103.24326 102.087309,95.9690532 L104.788327,93.2680353 C106.519513,91.5361311 107.303851,89.0725489 106.892608,86.6585529 C106.481365,84.2445568 104.925561,82.179636 102.718581,81.1186291 L89.5343021,74.7541616 C86.3483769,73.2040527 82.5292075,73.8530619 80.0341702,76.3685631 L77.1779214,79.2248119 C69.924802,75.8894896 64.105935,70.0669514 60.7751881,62.8117299 L63.6314369,59.9554811 C66.1434199,57.4580098 66.7882201,53.6391282 65.2354897,50.4553491 Z M59.9679873,56.2920315 L55.8284963,60.4315226 C55.1402942,61.1599769 54.9346708,62.2203487 55.3007112,63.1532379 C59.2163557,72.9780324 66.994691,80.7638505 76.8157159,84.6889401 C77.7848783,85.0825807 78.8957235,84.8538773 79.6305698,84.1094113 L83.7700609,79.9699203 C84.7093652,79.0118011 86.1578881,78.7655105 87.3610693,79.3593454 L100.586743,85.7341616 C101.282499,86.0683788 101.772991,86.7192243 101.902552,87.4801386 C102.032113,88.241053 101.784655,89.0175495 101.238713,89.5631908 L98.5376952,92.2642087 C92.836499,97.972615 84.1279653,99.4052958 76.8985057,95.824171 L75.2013144,94.9859241 C62.1080777,88.5127724 51.4893106,77.9376142 44.9623323,64.8711267 L44.1137366,63.1532379 C40.5326119,55.9237784 41.9652927,47.2152447 47.6736989,41.5140485 L50.3747168,38.8130306 C50.8181559,38.3667396 51.4220791,38.1169689 52.0512107,38.1196658 C52.1889472,38.1080009 52.3274233,38.1080009 52.4651598,38.1196658 C53.2290064,38.243006 53.8831339,38.7345693 54.2140948,39.4339542 L60.5785623,52.701023 C61.1723971,53.9042043 60.9261065,55.3527271 59.9679873,56.2920315 Z" id="Shape" stroke="#FFFFFF" fill="#3989E3" fill-rule="nonzero"></path>
            </g>
        </g>
    </g>
</svg>