<?xml version="1.0" encoding="UTF-8"?>
<svg width="144px" height="144px" viewBox="0 0 144 144" version="1.1" xmlns="http://www.w3.org/2000/svg" xmlns:xlink="http://www.w3.org/1999/xlink">
    <!-- Generator: Sketch 54.1 (76490) - https://sketchapp.com -->
    <title>Group 5</title>
    <desc>Created with Sketch.</desc>
    <g id="Page-1" stroke="none" stroke-width="1" fill="none" fill-rule="evenodd">
        <g id="Application---Step-3" transform="translate(-568.000000, -164.000000)">
            <g id="Group-5" transform="translate(570.000000, 166.000000)">
                <circle id="Oval" stroke="#3989E3" stroke-width="4" cx="70" cy="70" r="70"></circle>
                <g id="Group" transform="translate(15.000000, 13.300000)" fill="#3989E3" stroke="#FFFFFF" stroke-width="1.5">
                    <path d="M10.5567917,51.1646667 L6.15679167,46.398 C5.556375,45.7299792 5.611375,44.7010208 6.27939583,44.1006042 C6.43064583,43.9631042 6.60710417,43.8576875 6.79845833,43.7855 L12.837,41.3907083 C16.3615833,39.9435208 18.2109583,36.0557083 17.1109583,32.407375 L15.2203333,26.1969583 C15.0622083,25.683625 15.1699167,25.1256042 15.5067917,24.707375 C15.8333542,24.2765417 16.3535625,24.0359167 16.89325,24.0657083 L23.3672083,24.5240417 C27.1702292,24.7749792 30.5424167,22.0971667 31.158875,18.3365417 L32.15575,11.919875 C32.3024167,11.033 33.138875,10.4325833 34.02575,10.57925 C34.21825,10.6101875 34.4050208,10.6766458 34.5734583,10.7740417 L40.2109583,13.9938333 C43.5350208,15.879875 47.74825,14.9208125 49.927625,11.782375 L53.60575,6.43133333 C54.1156458,5.691125 55.1285625,5.50320833 55.8687708,6.01310417 C56.032625,6.12539583 56.1747083,6.26747917 56.2881458,6.43133333 L59.9662708,11.782375 C62.1456458,14.9208125 66.358875,15.879875 69.6817917,13.9938333 L75.3192917,10.7740417 C76.0984583,10.324875 77.0930417,10.593 77.5410625,11.3710208 C77.6384583,11.5406042 77.7049167,11.727375 77.737,11.919875 L78.7350208,18.3365417 C79.3354375,22.1097708 82.7133542,24.8024792 86.5255417,24.5469583 L93.0006458,24.088625 C93.5346042,24.0450833 94.0559583,24.2731042 94.3871042,24.6959167 C94.7239792,25.1141458 94.8305417,25.6721667 94.6735625,26.1855 L92.7359583,32.407375 C91.6485625,36.064875 93.5197083,39.94925 97.05575,41.37925 L103.048458,43.7855 C103.883771,44.1189375 104.290542,45.06425 103.95825,45.8995625 C103.884917,46.0828958 103.778354,46.2524792 103.644292,46.398 L99.2442917,51.176125 C96.6730417,53.9971667 96.6730417,58.312375 99.2442917,61.1334167 L103.644292,65.9115417 C104.248146,66.5784167 104.196583,67.6062292 103.530854,68.2089375 C103.389917,68.3384167 103.227208,68.4415417 103.048458,68.5125833 L97.0110625,70.907375 C93.4818958,72.351125 91.6302292,76.242375 92.7359583,79.8907083 L94.6277292,86.101125 C94.9084583,86.9547708 94.44325,87.874875 93.59075,88.1556042 C93.3856458,88.2232083 93.1690833,88.2495625 92.9548125,88.232375 L86.4797083,87.7740417 C82.6766875,87.5231042 79.3056458,90.2009167 78.6880417,93.9615417 L77.6911667,100.378208 C77.5456458,101.265083 76.7091875,101.866646 75.8223125,101.719979 C75.6298125,101.687896 75.4430417,101.622583 75.2734583,101.524042 L69.6359583,98.30425 C66.3118958,96.4250833 62.10325,97.3818542 59.9204375,100.515708 L56.2423125,105.86675 C55.7324167,106.606958 54.7195,106.794875 53.9792917,106.284979 C53.8142917,106.172687 53.6722083,106.030604 53.5599167,105.86675 L49.8817917,100.515708 C48.4987708,98.5219583 46.2242917,97.334875 43.7974167,97.34175 C42.5278333,97.3406042 41.278875,97.6728958 40.1765833,98.30425 L34.562,101.524042 C33.7839792,101.972062 32.78825,101.705083 32.3402292,100.925917 C32.2428333,100.757479 32.176375,100.571854 32.1442917,100.378208 L31.158875,93.9615417 C30.5527292,90.19175 27.1771042,87.5013333 23.3672083,87.751125 L16.89325,88.2106042 C15.9972083,88.273625 15.2180417,87.5987292 15.153875,86.7026875 C15.140125,86.5033125 15.1630417,86.3039375 15.2203333,86.1137292 L17.1109583,79.8907083 C18.1983542,76.2332083 16.3283542,72.3499792 12.7911667,70.9188333 L6.79845833,68.5125833 C5.96429167,68.1802917 5.556375,67.2338333 5.8898125,66.3985208 C5.96314583,66.2151875 6.0685625,66.04675 6.202625,65.9000833 L10.602625,61.1219583 C13.1612708,58.2883125 13.1417917,53.97425 10.5567917,51.1646667 L10.5567917,51.1646667 Z M1.940125,62.0271667 C-0.807583333,65.0189375 -0.6105,69.6733125 2.38241667,72.4210208 C3.0435625,73.0294583 3.810125,73.5095625 4.64429167,73.8418542 L10.6828333,76.2355 C11.462,76.5540417 11.8733542,77.411125 11.633875,78.2177917 L9.74325,84.4282083 C8.5298125,88.3068542 10.6908542,92.4318542 14.5672083,93.6452917 C15.4495,93.9214375 16.3741875,94.028 17.2942917,93.9615417 L23.76825,93.5032083 C24.613875,93.4401875 25.36325,94.0394583 25.487,94.8782083 L26.483875,101.296021 C27.1060625,105.308729 30.8666875,108.059875 34.8805417,107.437687 C35.7685625,107.300187 36.6245,106.999979 37.4036667,106.55425 L43.0411667,103.334458 C43.7767917,102.92425 44.702625,103.137375 45.183875,103.827167 L48.862,109.178208 C51.1639792,112.525187 55.743875,113.37425 59.092,111.072271 C59.8333542,110.561229 60.4750208,109.919562 60.9849167,109.178208 L64.6630417,103.827167 C65.142,103.132792 66.0724167,102.918521 66.80575,103.334458 L72.44325,106.55425 C75.970125,108.569771 80.4640833,107.346021 82.48075,103.818 C82.9264792,103.037687 83.2255417,102.182896 83.3641875,101.296021 L84.3610625,94.8782083 C84.4997083,94.048625 85.2387708,93.457375 86.0798125,93.5032083 L92.552625,93.9615417 C96.6054375,94.2445625 100.120854,91.188625 100.403875,87.1358125 C100.46575,86.2420625 100.363771,85.3437292 100.103667,84.4866458 L98.2141875,78.2750833 C97.9747083,77.4684167 98.3849167,76.6113333 99.1652292,76.2927917 L105.202625,73.898 C108.977,72.3946667 110.818354,68.116125 109.315021,64.34175 C108.983875,63.509875 108.502625,62.7444583 107.896479,62.0844583 L103.507937,57.294875 C102.94075,56.6703958 102.94075,55.7193542 103.507937,55.094875 L107.906792,50.31675 C110.656792,47.326125 110.462,42.6728958 107.472521,39.9228958 C106.811375,39.3156042 106.045958,38.8355 105.214083,38.5032083 L99.1755417,36.1084167 C98.3975208,35.789875 97.9850208,34.9327917 98.2245,34.126125 L100.116271,27.9157083 C101.354917,24.0462292 99.2225208,19.9051875 95.3530417,18.6665417 C94.450125,18.3766458 93.4990833,18.2655 92.552625,18.3365417 L86.0798125,18.794875 C85.237625,18.8464375 84.4939792,18.25175 84.3610625,17.419875 L83.3641875,11.0032083 C82.7408542,6.98820833 78.981375,4.23820833 74.966375,4.86154167 C74.0783542,4.99904167 73.2235625,5.29810417 72.44325,5.74383333 L66.80575,9.032375 C66.0712708,9.44258333 65.1442917,9.22945833 64.6630417,8.53966667 L60.9849167,3.188625 C58.6829375,-0.1595 54.1030417,-1.00627083 50.7560625,1.29570833 C50.0147083,1.80560417 49.3730417,2.44727083 48.862,3.188625 L45.183875,8.53966667 C44.702625,9.22945833 43.7767917,9.44258333 43.0411667,9.032375 L37.4036667,5.801125 C33.8767917,3.78445833 29.3828333,5.0105 27.3661667,8.537375 C26.9204375,9.3176875 26.6225208,10.1724792 26.483875,11.0605 L25.487,17.4771667 C25.3575208,18.3124792 24.6115833,18.9094583 23.76825,18.8521667 L17.2942917,18.3365417 C13.2414792,18.0535208 9.72720833,21.1106042 9.4441875,25.1634167 C9.38116667,26.0571667 9.48314583,26.9555 9.74325,27.8125833 L11.633875,34.023 C11.8733542,34.8296667 11.462,35.68675 10.6828333,36.0052917 L4.64429167,38.457375 C0.867625,39.956125 -0.9783125,44.232375 0.5204375,48.0090417 C0.851583333,48.8432083 1.33283333,49.6097708 1.940125,50.2709167 L6.340125,55.0032083 C6.96345833,55.6402917 6.96345833,56.6577917 6.340125,57.294875 L1.940125,62.0271667 Z" id="Fill-1"></path>
                    <path d="M22.2445208,59.1513542 C23.8269167,59.1513542 25.1091042,57.8691667 25.1091042,56.2867708 L25.1091042,56.1492708 C25.1079583,54.0661458 25.323375,51.98875 25.7507708,49.9503125 C25.9753542,48.3839583 24.8879583,46.9321875 23.3216042,46.70875 C21.885875,46.5025 20.5223333,47.403125 20.1476458,48.8044792 C19.6469167,51.2210417 19.397125,53.6822917 19.4028542,56.1492708 L19.4028542,56.2867708 C19.4028542,57.86 20.6712917,59.13875 22.2445208,59.1513542" id="Fill-4"></path>
                    <path d="M26.7937083,39.2593437 C28.0724583,40.1886146 29.8611042,39.9067396 30.7926667,38.6291354 C32.021,36.9619479 33.4189167,35.4253854 34.9635,34.0458021 C36.1127708,32.9584063 36.1631875,31.1456979 35.0757917,29.9964271 C34.0239167,28.8849688 32.2845417,28.7955938 31.1249583,29.7947604 C29.2836042,31.4585104 27.621,33.3101771 26.1635,35.3176771 C25.2720417,36.5861146 25.551625,38.3323646 26.7937083,39.2593437" id="Fill-6"></path>
                    <path d="M44.79475,27.9273958 C45.0938125,27.9273958 45.3917292,27.8815625 45.6770417,27.7898958 C47.6581875,27.1459375 49.7012083,26.7116667 51.772875,26.4951042 C53.3552708,26.3301042 54.5045417,24.915 54.3395417,23.3326042 C54.1745417,21.7502083 52.7594375,20.6009375 51.1770417,20.7659375 C48.7077708,21.0260417 46.272875,21.5451042 43.9124583,22.3128125 C42.4068333,22.7963542 41.57725,24.4108333 42.0619375,25.9164583 C42.4435,27.1035417 43.5480833,27.9067708 44.79475,27.9044792 L44.79475,27.9273958 Z" id="Fill-8"></path>
                    <path d="M45.7570208,84.54325 C43.7632708,83.9061667 41.8428542,83.0616875 40.0278542,82.0224167 C38.6551458,81.2340833 36.9020208,81.7084583 36.1148333,83.0823125 C35.3265,84.4550208 35.8020208,86.207 37.1747292,86.9953333 C39.3288958,88.2316875 41.6056667,89.2377292 43.9695208,89.9974167 C45.4751458,90.490125 47.0965,89.6708542 47.5903542,88.1640833 C48.0842083,86.6584583 47.2626458,85.0371042 45.7570208,84.54325" id="Fill-10"></path>
                    <path d="M27.721375,68.3863125 C27.0911667,66.9356875 25.4033542,66.2699583 23.9527292,66.9013125 C22.5021042,67.5315208 21.836375,69.2193333 22.4677292,70.6699583 C22.4768958,70.692875 22.4872083,70.7135 22.496375,70.7364167 C23.5287708,73.0005833 24.7960625,75.1513125 26.277625,77.1519375 C27.2275208,78.4180833 29.0230417,78.67475 30.2880417,77.7248542 C31.5541875,76.7761042 31.8108542,74.9805833 30.8609583,73.7144375 C29.632625,72.0518333 28.58075,70.2677708 27.721375,68.3863125" id="Fill-12"></path>
                    <path d="M64.2280833,84.4861875 C62.250375,85.1312917 60.2119375,85.5701458 58.1425625,85.7924375 C56.5624583,85.8737917 55.3455833,87.2235833 55.4280833,88.8059792 C55.5105833,90.3872292 56.8592292,91.6029583 58.441625,91.5216042 L58.751,91.5216042 C61.2202708,91.2569167 63.6551667,90.7344167 66.0155833,89.962125 C67.5246458,89.48775 68.36225,87.8801458 67.887875,86.3710833 C67.4135,84.860875 65.80475,84.0232708 64.2968333,84.4976458 C64.2727708,84.5056667 64.251,84.5113958 64.2280833,84.5194167 L64.2280833,84.4861875 Z" id="Fill-14"></path>
                    <path d="M64.0903542,27.7668646 C66.0841042,28.4073854 68.0045208,29.2553021 69.8195208,30.2991562 C71.1842083,31.0989479 72.939625,30.6417604 73.7394167,29.2770729 C74.5392083,27.9112396 74.0820208,26.1569687 72.7161875,25.3560312 C72.7070208,25.3503021 72.6955625,25.3434271 72.6841042,25.3376979 C70.5310833,24.0979062 68.2531667,23.0884271 65.8893125,22.3241562 C64.387125,21.8268646 62.7657708,22.6426979 62.2684792,24.1460313 C61.7723333,25.6493646 62.5870208,27.2695729 64.0903542,27.7668646" id="Fill-16"></path>
                    <path d="M74.7352604,82.3086458 C75.7951562,83.4819792 77.6055729,83.5736458 78.7800521,82.5148958 C80.6225521,80.8477083 82.2851562,78.9926042 83.7415104,76.9805208 C84.6971354,75.7201042 84.4507812,73.9234375 83.1892187,72.9678125 C81.9288021,72.0110417 80.1321354,72.2585417 79.1765104,73.5189583 C79.1513021,73.5521875 79.1249479,73.5877083 79.1008854,73.6232292 C77.8794271,75.3110417 76.4849479,76.8659375 74.9415104,78.2638542 C73.7681771,79.3248958 73.6753646,81.1353125 74.7352604,82.3086458" id="Fill-18"></path>
                    <path d="M84.7153542,56.1491562 C84.7176458,58.2128021 84.5056667,60.2707187 84.0851458,62.2908229 C83.6772292,63.8193646 84.5847292,65.3891562 86.1132708,65.7982187 C87.6418125,66.2061354 89.2116042,65.2974896 89.6195208,63.7689479 C89.6493125,63.6600937 89.6722292,63.5489479 89.6882708,63.4366562 C90.1878542,61.0407187 90.4422292,58.5978021 90.4445208,56.1491562 L90.4445208,56.0804062 C90.4445208,54.5174896 89.178375,53.2501979 87.6143125,53.2501979 C87.604,53.2501979 87.5913958,53.2501979 87.5799375,53.2501979 C85.9895208,53.2628021 84.7084792,54.5587396 84.7153542,56.1491562" id="Fill-20"></path>
                    <path d="M82.1484583,43.9690625 C82.6491875,45.4701042 84.2728333,46.2802083 85.7727292,45.7783333 C87.2737708,45.2776042 88.083875,43.6551042 87.5831458,42.1540625 C87.527,41.9890625 87.45825,41.8297917 87.3746042,41.6773958 C86.3605417,39.4097917 85.1127292,37.255625 83.6506458,35.2492708 C82.577,34.08625 80.7654375,34.0129167 79.6012708,35.0842708 C78.6147083,35.9952083 78.3924167,37.46875 79.0673125,38.6294792 C80.2750208,40.2978125 81.3097083,42.0876042 82.1484583,43.9690625" id="Fill-22"></path>
                    <path d="M43.8319063,52.0929063 L49.4694063,57.7304063 C50.6060729,58.8097813 52.3889896,58.8097813 53.5256562,57.7304063 L66.0278437,45.2179063 L69.6933646,48.8845729 L51.4860729,67.0804063 L40.1537813,55.7481146 L43.8319063,52.0929063 Z M35.8110729,59.5064479 L47.7391979,71.4345729 C49.8143021,73.5028021 53.1693021,73.5028021 55.2444062,71.4345729 L74.0360729,52.6314479 C76.1043021,50.5563438 76.1043021,47.2001979 74.0360729,45.1262396 L69.8194062,40.8637396 C67.7488854,38.7909271 64.3893021,38.7897813 62.3164896,40.8614479 C62.3153437,40.8625938 62.3153437,40.8625938 62.3141979,40.8637396 L51.4860729,51.6574896 L47.5673229,47.7387396 C45.4968021,45.6659271 42.1372188,45.6647813 40.0644062,47.7364479 L40.0621146,47.7387396 L35.7996146,52.0012396 C33.7302396,54.0751979 33.7336771,57.4347813 35.8087813,59.5041563 C35.8099271,59.5053021 35.8110729,59.5064479 35.8110729,59.5064479 L35.8110729,59.5064479 Z" id="Fill-24"></path>
                </g>
            </g>
        </g>
    </g>
</svg>