<?xml version="1.0" encoding="UTF-8"?>
<svg width="36px" height="36px" viewBox="0 0 36 36" version="1.1" xmlns="http://www.w3.org/2000/svg" xmlns:xlink="http://www.w3.org/1999/xlink">
    <!-- Generator: Sketch 52.2 (67145) - http://www.bohemiancoding.com/sketch -->
    <title>Group 10</title>
    <desc>Created with Sketch.</desc>
    <g id="Application-Flow" stroke="none" stroke-width="1" fill="none" fill-rule="evenodd">
        <g id="2c---Borrowers---Denied---Offer-v3" transform="translate(-623.000000, -959.000000)">
            <g id="Group-14" transform="translate(256.000000, 959.000000)">
                <g id="Group-12" transform="translate(270.000000, 0.000000)">
                    <g id="Group-10" transform="translate(97.000000, 0.000000)">
                        <circle id="Oval-2" fill="#002248" cx="18" cy="18" r="18"></circle>
                        <path d="M15.4406304,15.0026523 C16.2999808,12.4038439 17.1323467,9.79673265 18.0020757,7.2 C18.8510475,9.80088411 19.7020949,12.4017682 20.5531424,15.0026523 C23.301403,15.0026523 26.0517394,14.9964251 28.8,15.004728 C26.5831251,16.6154911 24.3600231,18.2179512 22.1389967,19.8245628 C22.983817,22.4275226 23.8431674,25.026331 24.685912,27.6292908 C22.4399769,26.0289064 20.2293292,24.3807803 17.9647127,22.8073804 C15.768595,24.4409764 13.5268115,26.0185278 11.3120123,27.6272151 C12.1485297,25.0221795 13.0141072,22.4275226 13.8568518,19.8245628 C11.6379012,18.2179512 9.41272343,16.6217182 7.2,15.0068038 C9.94618489,14.9943494 12.6923698,15.004728 15.4406304,15.0026523" id="Fill-1" fill="#FFFFFF"></path>
                    </g>
                </g>
            </g>
        </g>
    </g>
</svg>