<?xml version="1.0" encoding="UTF-8"?>
<svg width="50px" height="52px" viewBox="0 0 50 52" version="1.1" xmlns="http://www.w3.org/2000/svg" xmlns:xlink="http://www.w3.org/1999/xlink">
    <!-- Generator: Sketch 50 (54983) - http://www.bohemiancoding.com/sketch -->
    <title>Group 3</title>
    <desc>Created with Sketch.</desc>
    <defs></defs>
    <g id="Dashboard" stroke="none" stroke-width="1" fill="none" fill-rule="evenodd">
        <g id="Merchants---Portal---Dashboard---Dropdown" transform="translate(-29.000000, -539.000000)" fill="#002248">
            <g id="Group-14">
                <g id="Group-7" transform="translate(0.000000, 90.000000)">
                    <g id="Group-5" transform="translate(0.500000, 442.000000)">
                        <g id="Group-3" transform="translate(29.000000, 7.000000)">
                            <path d="M2.7173913,24.5671196 C2.7201087,21.9241848 4.8625,19.782337 7.50543478,19.7790761 L21.8152174,19.7790761 C24.4581522,19.782337 26.6,21.9241848 26.6032609,24.5671196 L26.6032609,35.1758152 C26.6059783,37.8230978 24.4625,39.9714674 21.8152174,39.9747283 L18.5543478,39.9747283 C17.9597826,39.9736413 17.4336957,40.3589674 17.2554348,40.9258152 C16.5320652,43.0627717 15.0407609,44.8540761 13.0706522,45.9529891 C13.4440217,44.3122283 13.3956522,42.6029891 12.9293478,40.9855978 C12.7717391,40.3910326 12.2347826,39.9763587 11.6195652,39.9747283 L7.50543478,39.9747283 C4.85815217,39.9714674 2.71467391,37.8230978 2.7173913,35.1758152 L2.7173913,24.5671196 Z M21.8152174,17.0616848 L20.6141304,17.0616848 L20.6141304,12.257337 C20.6141304,12.1269022 20.701087,12.0345109 20.7717391,12.0345109 L40.6630435,12.0345109 C40.7391304,12.0345109 40.8206522,12.1269022 40.8206522,12.257337 L40.8206522,37.8877717 C40.8206522,38.0182065 40.7336957,38.1105978 40.6630435,38.1105978 L28.7065217,38.1105978 C29.1021739,37.1828804 29.3054348,36.1839674 29.3043478,35.1758152 L29.3043478,24.5671196 C29.301087,20.4296196 25.9527174,17.0736413 21.8152174,17.0616848 Z M14.6956522,9.06168478 C14.7005435,7.16331522 15.9233696,5.48233696 17.7282609,4.89320652 C26.1641304,2.09809783 35.276087,2.09809783 43.7119565,4.89320652 C45.5168478,5.48233696 46.7396739,7.16331522 46.7445652,9.06168478 L46.7445652,42.6269022 C46.7396739,44.5252717 45.5168478,46.20625 43.7119565,46.7953804 C35.276087,49.5904891 26.1641304,49.5904891 17.7282609,46.7953804 C17.4407609,46.6970109 17.1641304,46.569837 16.9021739,46.4149457 C18.0184783,45.367663 18.9048913,44.1002717 19.5054348,42.6921196 L21.8152174,42.6921196 C23.6152174,42.6855978 25.3516304,42.0296196 26.7065217,40.8442935 L40.6630435,40.8442935 C42.2673913,40.8236413 43.5532609,39.5089674 43.5380435,37.9046196 L43.5380435,12.257337 C43.5532609,10.6524457 42.2673913,9.33831522 40.6630435,9.31711957 L20.7717391,9.31711957 C19.1673913,9.33831522 17.8815217,10.6524457 17.8967391,12.257337 L17.8967391,17.0508152 L14.6956522,17.0508152 L14.6956522,9.06168478 Z M7.50543478,42.6921196 L10.5217391,42.6921196 C10.6923913,43.7595109 10.6027174,44.8519022 10.2608696,45.8769022 C9.94130435,46.7932065 10.2125,47.8116848 10.9456522,48.4475543 C11.6679348,49.0779891 12.701087,49.205163 13.5543478,48.7682065 C13.9021739,48.5942935 14.2663043,48.382337 14.6413043,48.1540761 C15.3070652,48.6932065 16.0630435,49.1095109 16.875,49.382337 C25.8711957,52.3796196 35.5961957,52.3796196 44.5923913,49.382337 C47.5076087,48.4252717 49.4798913,45.70625 49.4836957,42.6377717 L49.4836957,9.06168478 C49.4798913,5.99375 47.5076087,3.27418478 44.5923913,2.31711957 C35.5940217,-0.667119565 25.8728261,-0.667119565 16.875,2.31711957 C13.9597826,3.27418478 11.9880435,5.99375 11.9836957,9.06168478 L11.9836957,17.0616848 L7.50543478,17.0616848 C3.36141304,17.0649457 0.0027173913,20.4230978 -6.3527471e-22,24.5671196 L-6.3527471e-22,35.1758152 C-0.0027173913,39.3241848 3.35706522,42.6888587 7.50543478,42.6921196 Z" id="Fill-1"></path>
                            <path d="M32.3369565,43.5455978 L28.5326087,43.5455978 C27.7820652,43.5455978 27.173913,44.15375 27.173913,44.9042935 C27.173913,45.654837 27.7820652,46.2629891 28.5326087,46.2629891 L32.3369565,46.2629891 C33.0875,46.2629891 33.6956522,45.654837 33.6956522,44.9042935 C33.6956522,44.15375 33.0875,43.5455978 32.3369565,43.5455978" id="Fill-4"></path>
                            <path d="M14.6577174,31.5779348 C15.4077174,31.5871739 16.0234783,30.9855435 16.0321739,30.2355435 C16.0408696,29.485 15.4397826,28.8697826 14.6897826,28.861087 C13.943587,28.8518478 13.33,29.446413 13.3153261,30.1920652 C13.2973913,30.9393478 13.8881522,31.56 14.6354348,31.5779348 L14.6577174,31.5779348 Z" id="Fill-6"></path>
                            <path d="M9.08706522,31.5779348 C9.83706522,31.5779348 10.4457609,30.9697826 10.4457609,30.2192391 C10.4457609,29.4686957 9.83706522,28.8605435 9.08706522,28.8605435 C8.33652174,28.8605435 7.72836957,29.4686957 7.72836957,30.2192391 C7.7251087,30.9665217 8.32836957,31.5752174 9.07619565,31.5779348 L9.08706522,31.5779348 Z" id="Fill-8"></path>
                            <path d="M20.2336957,31.5779348 C20.9842391,31.5779348 21.5923913,30.9697826 21.5923913,30.2192391 C21.5923913,29.4686957 20.9842391,28.8605435 20.2336957,28.8605435 C19.4831522,28.8605435 18.875,29.4686957 18.875,30.2192391 C18.8722826,30.9665217 19.4755435,31.5752174 20.2228261,31.5779348 L20.2336957,31.5779348 Z" id="Fill-10"></path>
                        </g>
                    </g>
                </g>
            </g>
        </g>
    </g>
</svg>