<?xml version="1.0" encoding="UTF-8"?>
<svg width="160px" height="160px" viewBox="0 0 160 160" version="1.1" xmlns="http://www.w3.org/2000/svg" xmlns:xlink="http://www.w3.org/1999/xlink">
    <!-- Generator: Sketch 49.3 (51167) - http://www.bohemiancoding.com/sketch -->
    <title>Group 8</title>
    <desc>Created with Sketch.</desc>
    <defs></defs>
    <g id="Page-1" stroke="none" stroke-width="1" fill="none" fill-rule="evenodd">
        <g id="2---Borrowers---Approved" transform="translate(-560.000000, -170.000000)">
            <g id="Group-4" transform="translate(302.000000, 170.000000)">
                <g id="Group-8" transform="translate(258.000000, 0.000000)">
                    <g id="Page-1" transform="translate(40.000000, 25.000000)" fill="#04BC6C">
                        <path d="M60.5601,24.5098 C60.5601,25.8908 61.6791,27.0098 63.0601,27.0098 L68.6601,27.0098 C70.0401,27.0098 71.1601,25.8908 71.1601,24.5098 C71.1601,23.1298 70.0401,22.0098 68.6601,22.0098 L63.0601,22.0098 C61.6791,22.0098 60.5601,23.1298 60.5601,24.5098" id="Fill-1"></path>
                        <path d="M22.1402,24.5098 C22.1402,25.8908 23.2592,27.0098 24.6402,27.0098 L30.2402,27.0098 C31.6202,27.0098 32.7402,25.8908 32.7402,24.5098 C32.7402,23.1298 31.6202,22.0098 30.2402,22.0098 L24.6402,22.0098 C23.2592,22.0098 22.1402,23.1298 22.1402,24.5098" id="Fill-3"></path>
                        <path d="M49.1499,8.1001 L49.1499,2.5001 C49.1499,1.1191 48.0309,0.0001 46.6499,0.0001 C45.2689,0.0001 44.1499,1.1191 44.1499,2.5001 L44.1499,8.1001 C44.1499,9.4801 45.2689,10.6001 46.6499,10.6001 C48.0309,10.6001 49.1499,9.4801 49.1499,8.1001" id="Fill-5"></path>
                        <path d="M60.48,7.1802 L56.48,11.1802 C55.502,12.1582 55.502,13.7422 56.48,14.7202 C57.458,15.6982 59.043,15.6982 60.02,14.7202 L64.02,10.7202 C64.998,9.7432 64.998,8.1582 64.02,7.1802 C63.043,6.2022 61.458,6.2022 60.48,7.1802" id="Fill-7"></path>
                        <path d="M35.0498,15.4101 C36.4308,15.4121 37.5518,14.2951 37.5548,12.9141 C37.5558,12.2491 37.2918,11.6101 36.8198,11.1401 L32.8198,7.1401 C31.8418,6.1621 30.2578,6.1621 29.2798,7.1401 C28.3018,8.1181 28.3018,9.7021 29.2798,10.6801 L33.2798,14.6801 C33.7488,15.1491 34.3858,15.4121 35.0498,15.4101" id="Fill-9"></path>
                        <path d="M25,55.4599 C29.502,54.6699 33.301,51.6619 35.1,47.4599 L42.33,32.1899 C43.25,30.2489 43.867,28.1779 44.16,26.0499 L44.93,20.9999 C44.966,20.9649 45.011,20.9409 45.06,20.9299 C46.824,21.2099 48.388,22.2189 49.37,23.7099 C50.69,25.8499 50.69,29.0999 49.37,33.0999 C47.43,38.9399 46.83,43.5499 47.57,46.8099 C48.04,48.8799 49.887,50.3449 52.01,50.3299 C58.62,50.3299 62.7,50.3899 69.01,51.7199 L69.11,51.7199 C69.777,51.8409 70.409,52.1069 70.96,52.4999 L71.28,52.7699 C73.84,55.0799 72.22,58.0399 71.88,58.5899 C71.219,59.6229 71.406,60.9829 72.32,61.7999 C73.293,62.7849 73.891,64.0799 74.01,65.4599 C73.951,67.3209 73.139,69.0789 71.76,70.3299 C70.991,71.1439 70.856,72.3689 71.43,73.3299 C71.54,73.5199 74.11,77.9899 69.02,81.7309 C68.145,82.3879 67.791,83.5319 68.14,84.5699 C68.41,85.3699 69.47,89.4699 63.98,91.8799 C62.24,92.6069 60.366,92.9619 58.48,92.9199 L37.31,92.9199 C34.776,92.9159 32.292,92.2249 30.12,90.9199 L24.48,87.5399 L24.48,55.5399 L25,55.4599 Z M5,92.9999 L19.48,92.9999 L19.48,49.2399 L5,49.2399 L5,92.9999 Z M5,44.2399 C2.239,44.2399 0,46.4789 0,49.2399 L0,92.9999 C0,95.7619 2.239,97.9999 5,97.9999 L19.48,97.9999 C22.11,98.0069 24.296,95.9739 24.48,93.3499 L27.58,95.2099 C30.531,96.9809 33.908,97.9179 37.35,97.9199 L58.48,97.9199 C61.036,97.9469 63.569,97.4429 65.92,96.4399 C72.67,93.4399 73.73,88.1699 73.23,84.6699 C76.78,81.6889 78.08,76.8009 76.48,72.4499 C78.153,70.4259 79.041,67.8659 78.98,65.2399 C78.871,63.1829 78.158,61.2039 76.93,59.5499 C78.502,55.9279 77.581,51.7059 74.64,49.0699 C74.433,48.8769 74.216,48.6929 73.99,48.5199 C72.853,47.6739 71.541,47.0929 70.15,46.8199 L70.04,46.8199 C63.41,45.4099 58.95,45.3199 52.39,45.3199 C52.14,43.8099 52.15,40.6399 54.13,34.6699 C55.96,29.1399 55.8,24.5699 53.65,21.0799 C51.855,18.2549 48.899,16.3729 45.58,15.9399 L45.27,15.9399 C42.912,15.8989 40.811,17.4239 40.12,19.6799 C40.084,19.7979 40.058,19.9179 40.04,20.0399 L39.29,25.4399 C39.064,27.0619 38.592,28.6399 37.89,30.1199 L30.6,45.4299 C29.493,47.9919 27.211,49.8559 24.48,50.4299 L24.48,49.2399 C24.48,46.4789 22.241,44.2399 19.48,44.2399 L5,44.2399 Z" id="Fill-11"></path>
                        <path d="M12.2398,82.1699 C13.9248,82.1699 15.2898,83.5349 15.2898,85.2199 C15.2898,86.9039 13.9248,88.2699 12.2398,88.2699 C10.5558,88.2699 9.1898,86.9039 9.1898,85.2199 C9.1898,83.5349 10.5558,82.1699 12.2398,82.1699" id="Fill-13"></path>
                    </g>
                    <circle id="Oval-2" stroke="#04BC6C" stroke-width="5" cx="80" cy="80" r="77.5"></circle>
                </g>
            </g>
        </g>
    </g>
</svg>