<?xml version="1.0" encoding="UTF-8"?>
<svg width="24px" height="21px" viewBox="0 0 24 21" version="1.1" xmlns="http://www.w3.org/2000/svg" xmlns:xlink="http://www.w3.org/1999/xlink">
    <!-- Generator: Sketch 52.4 (67378) - http://www.bohemiancoding.com/sketch -->
    <title>noun_web code_642101_000000</title>
    <desc>Created with Sketch.</desc>
    <g id="Page-1" stroke="none" stroke-width="1" fill="none" fill-rule="evenodd">
        <g id="Merchant-Portal---Dashboard-V2" transform="translate(-492.000000, -691.000000)" fill="#B0ACBE" fill-rule="nonzero">
            <g id="Group-24" transform="translate(452.000000, 606.000000)">
                <g id="Group-14" transform="translate(25.000000, 50.000000)">
                    <g id="Group-15" transform="translate(2.000000, 20.000000)">
                        <g id="noun_web-code_642101_000000" transform="translate(13.000000, 15.000000)">
                            <path d="M24,3.82971111 C23.9995111,1.73848889 22.3055111,0.0449777778 20.2147778,0.0444888889 L3.78522222,0.0444888889 C1.69448889,0.0449777778 0.000488888889,1.73873333 0,3.82971111 L0,16.2591778 C0.000488888889,18.3499111 1.69424444,20.0436667 3.78522222,20.0444 L20.2147778,20.0444 C22.3057556,20.0436667 23.9992667,18.3499111 24,16.2591778 L24,5.04484444 L24,3.82971111 Z M3.78522222,2.04428889 L20.2147778,2.04428889 C21.2003778,2.04624444 21.9982444,2.84386667 21.9999556,3.82971111 L21.9999556,4.04457778 L1.9998,4.04457778 L1.9998,3.82971111 C2.00175556,2.84386667 2.79937778,2.04624444 3.78522222,2.04428889 Z M20.2147778,18.0446 L3.78522222,18.0446 C2.79962222,18.0426444 2.00175556,17.2447778 1.9998,16.2591778 L1.9998,6.04462222 L21.9999556,6.04462222 L21.9999556,16.2591778 C21.9982444,17.2447778 21.2003778,18.0426444 20.2147778,18.0446 Z" id="Shape"></path>
                            <path d="M9.34117778,9.75062222 C8.95055556,9.36 8.31744444,9.36024444 7.92706667,9.75062222 L6.39928889,11.2786444 C6.30175556,11.3764222 6.22842222,11.4893556 6.17953333,11.6096222 C6.03311111,11.9706667 6.10644444,12.3999111 6.39928889,12.693 L7.92706667,14.2207778 C8.31768889,14.6111556 8.9508,14.6111556 9.34117778,14.2207778 C9.73155556,13.8301556 9.73155556,13.1970444 9.34117778,12.8064222 L8.52057778,11.9860667 L9.34117778,11.1652222 C9.7318,10.7743556 9.7318,10.1412444 9.34117778,9.75062222 Z" id="Shape"></path>
                            <path d="M16.0729333,9.75062222 C15.6823111,9.36024444 15.0492,9.36024444 14.6588222,9.75062222 C14.2682,10.1412444 14.2682,10.7743556 14.6588222,11.1649778 L15.4794222,11.9858222 L14.6588222,12.8061778 C14.2682,13.1968 14.2682,13.8299111 14.6588222,14.2205333 C15.0494444,14.6109111 15.6825556,14.6109111 16.0729333,14.2205333 L17.6007111,12.6927556 C17.9913333,12.3021333 17.9913333,11.6690222 17.6007111,11.2784 L16.0729333,9.75062222 Z" id="Shape"></path>
                            <path d="M13.1875111,8.45897778 C12.6663556,8.27613333 12.0955778,8.55015556 11.9127333,9.07131111 L10.0989556,14.2378889 C9.91611111,14.7590444 10.1901333,15.3295778 10.7112889,15.5126667 C11.2324444,15.6955111 11.8032222,15.4214889 11.9860667,14.9003333 L13.7998444,9.73375556 C13.9829333,9.2126 13.7086667,8.64182222 13.1875111,8.45897778 Z" id="Shape"></path>
                        </g>
                    </g>
                </g>
            </g>
        </g>
    </g>
</svg>