<?xml version="1.0" encoding="UTF-8"?>
<svg width="20px" height="20px" viewBox="0 0 20 20" version="1.1" xmlns="http://www.w3.org/2000/svg" xmlns:xlink="http://www.w3.org/1999/xlink">
    <!-- Generator: Sketch 52.4 (67378) - http://www.bohemiancoding.com/sketch -->
    <title>Shape</title>
    <desc>Created with Sketch.</desc>
    <g id="Page-1" stroke="none" stroke-width="1" fill="none" fill-rule="evenodd">
        <g id="Merchant-Portal---Dashboard-V2" transform="translate(-494.000000, -782.000000)" fill="#B0ACBE" fill-rule="nonzero">
            <g id="Group-24" transform="translate(452.000000, 606.000000)">
                <g id="Group-14" transform="translate(25.000000, 140.000000)">
                    <g id="Group-15" transform="translate(2.000000, 20.000000)">
                        <path d="M32.6667778,16.0062414 L29.0005778,16.0062414 C27.6414667,16.0060014 26.3972444,16.5093964 25.4886444,17.3421468 C25.3089778,17.5061043 25.1535111,17.6938272 25.0014667,17.8837106 C24.8482,17.6919067 24.6910222,17.5029835 24.5096444,17.3373457 C23.6012889,16.5045953 22.3575556,16 20.9994222,16 L17.3332222,16 C16.0428,16.0021605 15.0004889,17.0262346 15,18.2910837 L15.0019556,30.5490741 C15.0004889,31.817524 16.0342444,32.8365569 17.3144,32.8473594 L22.3345778,32.8512003 C22.8149111,32.8512003 23.2382889,33.029321 23.5362667,33.3015432 C23.8315556,33.5747257 23.9950889,33.9201646 23.999,34.3090535 C23.999,34.4478052 24.0276,34.5774348 24.0784444,34.6953018 C24.2290222,35.0501029 24.5846889,35.3 25.0007333,35.3 C25.5529333,35.3 26.0007556,34.8602195 26.0007556,34.3179355 C26.0022222,33.9206447 26.1669778,33.5742455 26.4617778,33.300583 C26.7570667,33.0298011 27.1777556,32.8514403 27.6673778,32.8512003 L32.6667778,32.8512003 C33.9559778,32.8358368 34.9816667,31.8297668 34.9953556,30.5819616 L35,18.2975652 C34.9995111,17.0315158 33.9554889,16.0067215 32.6667778,16.0062414 Z M22.3345778,30.8875514 L17.3412889,30.8875514 C17.1511111,30.8849108 17.0042,30.7401578 17.0015111,30.562037 L17.002,18.2975652 C17.0017556,18.1098422 17.1498889,17.9646091 17.3329778,17.9636488 L20.9996667,17.9634088 C21.8503333,17.9634088 22.6064,18.279321 23.1456444,18.7731139 C23.6846444,19.2702675 23.9985111,19.9239369 23.9994889,20.6474623 L23.9994889,31.2771605 C23.4942222,31.0354252 22.9324889,30.8875514 22.3345778,30.8875514 Z M25.9990444,31.2764403 L25.9990444,20.663546 C26.0022222,19.9263374 26.3156,19.2736283 26.8531333,18.777915 C27.3911556,18.2850823 28.1464889,17.9701303 29.0008222,17.9698903 L32.6655556,17.9698903 C32.8513333,17.9706104 33.0002,18.1165638 33.0006889,18.2975652 L33.0006889,30.5490741 C32.9982444,30.7384774 32.8488889,30.8851509 32.6653111,30.8858711 L27.6678667,30.8877915 C27.0675111,30.8873114 26.5045556,31.0347051 25.9990444,31.2764403 Z" id="Shape"></path>
                    </g>
                </g>
            </g>
        </g>
    </g>
</svg>