<?xml version="1.0" encoding="UTF-8"?>
<svg width="12px" height="12px" viewBox="0 0 12 12" version="1.1" xmlns="http://www.w3.org/2000/svg" xmlns:xlink="http://www.w3.org/1999/xlink">
    <!-- Generator: Sketch 53.2 (72643) - https://sketchapp.com -->
    <title>Path</title>
    <desc>Created with Sketch.</desc>
    <g id="Applicant-Detail" stroke="none" stroke-width="1" fill="none" fill-rule="evenodd">
        <g id="Merchant-Portal---Applicant-Detail---Request-Refund---Sent" transform="translate(-900.000000, -55.000000)" fill="#FFFFFF" fill-rule="nonzero">
            <g id="Group" transform="translate(340.000000, 26.000000)">
                <g id="Group-38" transform="translate(552.000000, 21.000000)">
                    <path d="M16.2745455,14 L19.6860227,10.5885227 C20.1046591,10.1698864 20.1046591,9.49113636 19.6860227,9.07215909 L18.9278409,8.31397727 C18.5092045,7.89534091 17.8304545,7.89534091 17.4114773,8.31397727 L14,11.7254545 L10.5885227,8.31397727 C10.1698864,7.89534091 9.49113636,7.89534091 9.07215909,8.31397727 L8.31397727,9.07215909 C7.89534091,9.49079545 7.89534091,10.1695455 8.31397727,10.5885227 L11.7254545,14 L8.31397727,17.4114773 C7.89534091,17.8301136 7.89534091,18.5088636 8.31397727,18.9278409 L9.07215909,19.6860227 C9.49079545,20.1046591 10.1698864,20.1046591 10.5885227,19.6860227 L14,16.2745455 L17.4114773,19.6860227 C17.8301136,20.1046591 18.5092045,20.1046591 18.9278409,19.6860227 L19.6860227,18.9278409 C20.1046591,18.5092045 20.1046591,17.8304545 19.6860227,17.4114773 L16.2745455,14 Z" id="Path"></path>
                </g>
            </g>
        </g>
    </g>
</svg>