<?xml version="1.0" encoding="UTF-8"?>
<svg width="26px" height="26px" viewBox="0 0 26 26" version="1.1" xmlns="http://www.w3.org/2000/svg" xmlns:xlink="http://www.w3.org/1999/xlink">
    <!-- Generator: Sketch 53 (72520) - https://sketchapp.com -->
    <title>Combined Shape</title>
    <desc>Created with Sketch.</desc>
    <g id="Page-1" stroke="none" stroke-width="1" fill="none" fill-rule="evenodd">
        <g id="Merchant-Portal---Dashboard-V3" transform="translate(-893.000000, -794.000000)" fill="#B0ACBE" fill-rule="nonzero">
            <g id="Group-11" transform="translate(854.000000, 702.000000)">
                <g id="Group-14" transform="translate(25.000000, 50.000000)">
                    <g id="Group-15" transform="translate(2.000000, 23.000000)">
                        <path d="M22.9512899,34.5370764 L29.2474233,27.3414954 C29.6111054,26.9258588 30.242868,26.8837413 30.6585046,27.2474233 C31.0741412,27.6111054 31.1162587,28.242868 30.7525767,28.6585046 L23.758996,36.6511683 C23.7425421,36.6703055 23.7252457,36.6889679 23.7071068,36.7071068 C23.3165825,37.0976311 22.6834175,37.0976311 22.2928932,36.7071068 C22.2905645,36.7048356 22.2882756,36.702529 22.2860001,36.7002137 L19.2928932,33.7071068 C18.9023689,33.3165825 18.9023689,32.6834175 19.2928932,32.2928932 C19.6834175,31.9023689 20.3165825,31.9023689 20.7071068,32.2928932 L22.9512899,34.5370764 Z M25,43 C31.0751322,43 36,38.0751322 36,32 C36,25.9248678 31.0751322,21 25,21 C18.9248678,21 14,25.9248678 14,32 C14,38.0751322 18.9248678,43 25,43 Z M25,45 C17.8202983,45 12,39.1797017 12,32 C12,24.8202983 17.8202983,19 25,19 C32.1797017,19 38,24.8202983 38,32 C38,39.1797017 32.1797017,45 25,45 Z" id="Combined-Shape"></path>
                    </g>
                </g>
            </g>
        </g>
    </g>
</svg>