<?xml version="1.0" encoding="UTF-8"?>
<svg width="144px" height="144px" viewBox="0 0 144 144" version="1.1" xmlns="http://www.w3.org/2000/svg" xmlns:xlink="http://www.w3.org/1999/xlink">
    <!-- Generator: Sketch 54.1 (76490) - https://sketchapp.com -->
    <title>Group 5</title>
    <desc>Created with Sketch.</desc>
    <g id="Page-1" stroke="none" stroke-width="1" fill="none" fill-rule="evenodd">
        <g id="Application---Step-3---Decline" transform="translate(-568.000000, -154.000000)">
            <g id="Group-5" transform="translate(570.000000, 156.000000)">
                <circle id="Oval" stroke="#3989E3" stroke-width="4" cx="70" cy="70" r="70"></circle>
                <path d="M39.8125189,26.0021982 C38.7818077,26.0993373 37.9955549,26.966905 38.0000189,28.0021482 L38.0000189,98.0004182 C38.0001569,99.1048948 38.8955147,100.000208 40.0000189,100.000318 L65.8125189,100.000318 C69.3159199,108.237818 77.5010329,114.000018 87.0000189,114.000018 C96.1364129,114.000018 104.046063,108.650618 107.750019,100.906618 C108.138513,100.255233 108.125155,99.4401565 107.715525,98.8018506 C107.305895,98.1635447 106.570469,97.8118295 105.816438,97.8936181 C105.062408,97.9754068 104.419503,98.4766276 104.156269,99.1879182 C101.099121,105.579518 94.5786609,110.000118 87.0000189,110.000118 C76.4829279,110.000118 68.0000189,101.517418 68.0000189,91.0006182 C68.0000189,80.4837182 76.4829279,72.0010182 87.0000189,72.0010182 C97.5171209,72.0010182 106.000019,80.4837182 106.000019,91.0006182 C105.989821,91.7218703 106.368773,92.3927418 106.991767,92.7563438 C107.614761,93.1199458 108.385277,93.1199458 109.008271,92.7563438 C109.631265,92.3927418 110.010217,91.7218703 110.000019,91.0006182 C110.000019,80.0389182 102.283615,70.8541182 92.0000189,68.5636182 L92.0000189,44.0017482 C92.0041287,43.4621154 91.790004,42.9437189 91.4062689,42.5642782 L75.4062689,26.5646782 C75.0293731,26.2001053 74.5243793,25.998115 74.0000189,26.0021982 L40.0000189,26.0021982 C39.9375533,25.9992673 39.8749846,25.9992673 39.8125189,26.0021982 Z M42.0000189,30.0020982 L72.0000189,30.0020982 L72.0000189,44.0017482 C72.0001293,45.1062444 72.8954951,46.0015878 74.0000189,46.0016982 L88.0000189,46.0016982 L88.0000189,68.0324182 C87.6697329,68.0184182 87.3337159,68.0014182 87.0000189,68.0014182 C74.3211699,68.0014182 64.0000189,78.3223182 64.0000189,91.0009182 C64.0000189,92.7114182 64.2063389,94.3956182 64.5625189,96.0007182 L42.0000189,96.0007182 L42.0000189,30.0020982 L42.0000189,30.0020982 Z M76.0000189,32.8145282 L85.1875189,42.0017982 L76.0000189,42.0017982 L76.0000189,32.8145282 Z" id="Shape" fill="#3989E3" fill-rule="nonzero"></path>
                <path d="M85.0000189,82.0008182 C84.9777242,80.9644886 85.7508764,80.0828455 86.7812689,79.9696182 C87.3539309,79.9065362 87.9259843,80.0934391 88.3509263,80.4824609 C88.7758684,80.8714828 89.0124267,81.4248401 89.0000189,82.0008182 C89.0102169,82.7220703 88.6312652,83.3929418 88.0082711,83.7565438 C87.3852771,84.1201458 86.6147607,84.1201458 85.9917667,83.7565438 C85.3687727,83.3929418 84.9898209,82.7220703 85.0000189,82.0008182 Z M85.0000189,89.0006182 C84.9777242,87.9642886 85.7508764,87.0826455 86.7812689,86.9694182 C87.3539309,86.9063362 87.9259843,87.0932391 88.3509263,87.4822609 C88.7758684,87.8712828 89.0124267,88.4246401 89.0000189,89.0006182 L89.0000189,101.000318 C89.0102169,101.72157 88.6312652,102.392442 88.0082711,102.756044 C87.3852771,103.119646 86.6147607,103.119646 85.9917667,102.756044 C85.3687727,102.392442 84.9898209,101.72157 85.0000189,101.000318 L85.0000189,89.0006182 Z" id="Combined-Shape" fill="#D82027"></path>
            </g>
        </g>
    </g>
</svg>