<?xml version="1.0" encoding="UTF-8"?>
<svg width="44px" height="40px" viewBox="0 0 44 40" version="1.1" xmlns="http://www.w3.org/2000/svg" xmlns:xlink="http://www.w3.org/1999/xlink">
    <!-- Generator: Sketch 52.4 (67378) - http://www.bohemiancoding.com/sketch -->
    <title>noun_Caution_261853_000000</title>
    <desc>Created with Sketch.</desc>
    <g id="Page-1" stroke="none" stroke-width="1" fill="none" fill-rule="evenodd">
        <g id="Merchant-Portal---Dashboard-V2" transform="translate(-699.000000, -269.000000)" fill="#3989E3" fill-rule="nonzero">
            <g id="Group-27" transform="translate(452.000000, 207.000000)">
                <g id="Group-17" transform="translate(188.000000, 39.000000)">
                    <g id="Group-12" transform="translate(36.000000, 0.000000)">
                        <g id="noun_Caution_261853_000000" transform="translate(23.000000, 23.000000)">
                            <path d="M22,26.6692683 C23.1733333,26.6692683 24.1066222,27.5917073 24.1066222,28.7517073 C24.1066222,29.9117073 23.1733333,30.8604878 22,30.8604878 C20.7997778,30.8604878 19.8664889,29.9117073 19.8664889,28.7517073 C19.8664889,27.5917073 20.7997778,26.6692683 22,26.6692683 Z" id="Shape"></path>
                            <path d="M24.0000444,13.804878 L24.0000444,22.7414634 C24.0000444,23.8487805 23.0931556,24.7185366 22,24.7185366 C20.8799556,24.7185366 19.9999556,23.8487805 19.9999556,22.7414634 L19.9999556,13.804878 C19.9999556,12.7239024 20.8799556,11.8278049 22,11.8278049 C23.0931556,11.8278049 24.0000444,12.7243902 24.0000444,13.804878 Z" id="Shape"></path>
                            <path d="M14.5332,4.28878049 C16.1597333,1.46829268 19.1199556,0.0185365854 22,0.0448780488 C24.8800444,0.0185365854 27.8133778,1.46829268 29.4668,4.28878049 L42.8266667,27.1702439 C43.6264889,28.5409756 44,30.0170732 44,31.4404878 C44,33.6809756 43.0931111,35.7902439 41.5731556,37.3717073 C40.0532,38.9268293 37.84,39.9814634 35.3598667,39.955122 L8.64013333,39.955122 C6.1336,39.9814634 3.9468,38.9268293 2.42684444,37.3717073 C0.88,35.7902439 0,33.6814634 0,31.4404878 C0,30.0170732 0.373511111,28.5409756 1.17333333,27.1702439 L1.14644444,27.1702439 L14.5332,4.28878049 Z M22,3.99902439 C20.3998667,3.99902439 18.9068,4.73707317 17.9999111,6.26585366 L4.61315556,29.1473171 L4.61315556,29.1736585 C4.18635556,29.9117073 3.9996,30.6760976 3.9996,31.4404878 C3.9996,32.6004878 4.47968889,33.7868293 5.3064,34.6302439 C6.13311111,35.4736585 7.25315556,36.0009756 8.63964444,36.0009756 L35.3598667,36.0009756 C36.7463556,36.0009756 37.84,35.4736585 38.6931111,34.6302439 C39.5198222,33.7868293 39.9999111,32.6004878 39.9999111,31.4404878 C39.9999111,30.6760976 39.8131556,29.9117073 39.3599556,29.1473171 L26.0000889,6.26585366 C25.0932,4.73707317 23.5732444,3.99902439 22,3.99902439 Z" id="Shape"></path>
                        </g>
                    </g>
                </g>
            </g>
        </g>
    </g>
</svg>