<?xml version="1.0" encoding="UTF-8"?>
<svg width="144px" height="144px" viewBox="0 0 144 144" version="1.1" xmlns="http://www.w3.org/2000/svg" xmlns:xlink="http://www.w3.org/1999/xlink">
    <!-- Generator: Sketch 55.2 (78181) - https://sketchapp.com -->
    <title>declined</title>
    <desc>Created with Sketch.</desc>
    <g id="Page-1" stroke="none" stroke-width="1" fill="none" fill-rule="evenodd">
        <g id="declined" transform="translate(2.000000, 2.000000)">
            <circle id="Oval" stroke="#3989E3" stroke-width="4" cx="70" cy="70" r="70"></circle>
            <path d="M105.489083,45.0892771 L34.5109171,45.0892771 C33.5511887,45.0892771 32.7166425,45.4648229 32.0907326,46.0907326 C31.4648229,46.7166425 31.0892771,47.5511887 31.0892771,48.5109171 L31.0892771,92.1576904 C31.0892771,93.1174187 31.4648229,93.951965 32.0907326,94.5778749 C32.7166425,95.2037846 33.5511887,95.5793304 34.5109171,95.5793304 L105.489083,95.5793304 C106.407084,95.5793304 107.283358,95.2037846 107.86754,94.5778749 L107.909267,94.5778749 C108.493449,93.951965 108.868996,93.1174187 108.868996,92.1576904 L108.868996,48.5109171 C108.868996,47.5929161 108.535177,46.800097 107.992722,46.1741873 L107.86754,46.0907326 C107.283358,45.4648229 106.407084,45.0892771 105.489083,45.0892771 Z M42.4224163,75.3791364 C41.2957787,75.3791364 40.3777777,74.4611354 40.3777777,73.3344979 C40.3777777,72.2078603 41.2957787,71.2898593 42.4224163,71.2898593 L97.2688012,71.2898593 C98.3954384,71.2898593 99.3134397,72.2078603 99.3134397,73.3344979 C99.3134397,74.4611354 98.3954384,75.3791364 97.2688012,75.3791364 L42.4224163,75.3791364 Z M42.4224163,86.7706938 C41.2957787,86.7706938 40.3777777,85.8526928 40.3777777,84.7260553 C40.3777777,83.5994177 41.2957787,82.6814168 42.4224163,82.6814168 L97.2688012,82.6814168 C98.3954384,82.6814168 99.3134397,83.5994177 99.3134397,84.7260553 C99.3134397,85.8526928 98.3954384,86.7706938 97.2688012,86.7706938 L42.4224163,86.7706938 Z M105.489083,41 C107.533721,41 109.411451,41.8345463 110.788453,43.2115478 C112.20718,44.6720039 113,46.5080059 113,48.5109171 L113,92.1576904 C113,94.2440563 112.123726,96.1217856 110.788453,97.4570597 C109.411451,98.8340612 107.533721,99.6686075 105.489083,99.6686075 L34.5109171,99.6686075 C32.4662785,99.6686075 30.5885492,98.8340612 29.2115478,97.4570597 C27.8345463,96.1217856 27,94.2440563 27,92.1576904 L27,48.5109171 C27,46.4245512 27.8345463,44.5468219 29.2115478,43.2115478 C30.5468219,41.8345463 32.4245512,41 34.5109171,41 L105.489083,41 Z" id="Fill-1" fill="#3989E3" fill-rule="nonzero"></path>
        </g>
    </g>
</svg>