<?xml version="1.0" encoding="UTF-8"?>
<svg width="144px" height="144px" viewBox="0 0 144 144" version="1.1" xmlns="http://www.w3.org/2000/svg" xmlns:xlink="http://www.w3.org/1999/xlink">
    <!-- Generator: Sketch 55.2 (78181) - https://sketchapp.com -->
    <title>declined</title>
    <desc>Created with Sketch.</desc>
    <g id="Page-1" stroke="none" stroke-width="1" fill="none" fill-rule="evenodd">
        <g id="declined" transform="translate(2.000000, 2.000000)">
            <circle id="Oval" stroke="#3989E3" stroke-width="4" cx="70" cy="70" r="70"></circle>
            <path d="M105.489083,45.0892771 L34.5109171,45.0892771 C33.5511887,45.0892771 32.7166425,45.4648229 32.0907326,46.0907326 C31.4648229,46.7166425 31.0892771,47.5511887 31.0892771,48.5109171 L31.0892771,92.1576904 C31.0892771,93.1174187 31.4648229,93.951965 32.0907326,94.5778749 C32.7166425,95.2037846 33.5511887,95.5793304 34.5109171,95.5793304 L105.489083,95.5793304 C106.407084,95.5793304 107.283358,95.2037846 107.86754,94.5778749 L107.909267,94.5778749 C108.493449,93.951965 108.868996,93.1174187 108.868996,92.1576904 L108.868996,48.5109171 C108.868996,47.5929161 108.535177,46.800097 107.992722,46.1741873 L107.86754,46.0907326 C107.283358,45.4648229 106.407084,45.0892771 105.489083,45.0892771 Z M39.2678312,51.2231927 L66.5992237,51.2231927 C67.7258613,51.2231927 68.6438623,52.1411936 68.6438623,53.2678312 L68.6438623,87.4007763 C68.6438623,88.5274138 67.7258613,89.4454148 66.5992237,89.4454148 L39.2678312,89.4454148 C38.1411936,89.4454148 37.2231927,88.5274138 37.2231927,87.4007763 L37.2231927,53.2678312 C37.2231927,52.1411936 38.1411936,51.2231927 39.2678312,51.2231927 Z M56.2925764,63.5327511 C55.4580301,62.6982048 54.2479379,62.1557496 52.9126637,62.1557496 C51.6191169,62.1557496 50.4090247,62.6982048 49.5327511,63.5327511 C48.6982048,64.4090247 48.1557496,65.6191169 48.1557496,66.9126637 C48.1557496,68.2062105 48.6564774,69.3745754 49.4492965,70.2091218 L49.5327511,70.2925764 C50.4090247,71.16885 51.6191169,71.7113052 52.9126637,71.7113052 C54.2479379,71.7113052 55.4580301,71.16885 56.2925764,70.2925764 C57.16885,69.4580301 57.7113052,68.2479379 57.7113052,66.9126637 C57.7113052,65.6191169 57.16885,64.4090247 56.2925764,63.5327511 Z M41.3124697,76.8437651 C41.479379,76.6768559 41.6880155,76.5099467 41.8549248,76.3013101 C43.1901989,74.966036 44.7758369,73.8811256 46.5283842,73.0883067 C44.9844735,71.4609413 44.0664725,69.3328481 44.0664725,66.9126637 C44.0664725,64.4924794 45.0679282,62.2809316 46.6535662,60.6535662 C48.2809316,59.0679282 50.4924794,58.0664725 52.9126637,58.0664725 C55.3745754,58.0664725 57.5861232,59.0679282 59.2134886,60.6535662 C60.7991266,62.2809316 61.8005823,64.4924794 61.8005823,66.9126637 C61.8005823,69.3328481 60.8408539,71.5026686 59.3386706,73.0883067 C61.0912179,73.8811256 62.6768559,74.966036 64.01213,76.3013101 C64.1790393,76.5099467 64.3459486,76.6768559 64.5128579,76.8437651 L64.5128579,55.3124697 L41.3124697,55.3124697 L41.3124697,76.8437651 Z M64.3459486,85.3561377 C63.9286753,82.9776807 62.7603106,80.8495875 61.1329452,79.2222223 C59.004852,77.094129 56.1256672,75.8005823 52.9126637,75.8005823 C49.7413876,75.8005823 46.8622028,77.094129 44.7341096,79.2222223 C43.1067443,80.8495875 41.9383795,82.9776807 41.5211063,85.3561377 L64.3459486,85.3561377 Z M76.8224163,55.3124697 C75.6957787,55.3124697 74.7777777,54.3944688 74.7777777,53.2678312 C74.7777777,52.1411936 75.6957787,51.2231927 76.8224163,51.2231927 L97.2688012,51.2231927 C98.3954384,51.2231927 99.3134397,52.1411936 99.3134397,53.2678312 C99.3134397,54.3944688 98.3954384,55.3124697 97.2688012,55.3124697 L76.8224163,55.3124697 Z M76.8224163,66.7040272 C75.6957787,66.7040272 74.7777777,65.7860262 74.7777777,64.6593886 C74.7777777,63.5327511 75.6957787,62.6147501 76.8224163,62.6147501 L97.2688012,62.6147501 C98.3954384,62.6147501 99.3134397,63.5327511 99.3134397,64.6593886 C99.3134397,65.7860262 98.3954384,66.7040272 97.2688012,66.7040272 L76.8224163,66.7040272 Z M76.8224163,78.0955847 C75.6957787,78.0955847 74.7777777,77.1775837 74.7777777,76.0092188 C74.7777777,74.8825813 75.6957787,73.9645803 76.8224163,73.9645803 L97.2688012,73.9645803 C98.3954384,73.9645803 99.3134397,74.8825813 99.3134397,76.0092188 C99.3134397,77.1775837 98.3954384,78.0955847 97.2688012,78.0955847 L76.8224163,78.0955847 Z M76.8224163,89.4454148 C75.6957787,89.4454148 74.7777777,88.5274138 74.7777777,87.4007763 C74.7777777,86.2741387 75.6957787,85.3561377 76.8224163,85.3561377 L87.0456089,85.3561377 C88.1722465,85.3561377 89.0902475,86.2741387 89.0902475,87.4007763 C89.0902475,88.5274138 88.1722465,89.4454148 87.0456089,89.4454148 L76.8224163,89.4454148 Z M34.5109171,41 L105.489083,41 C107.533721,41 109.411451,41.8345463 110.788453,43.2115478 L110.913634,43.3367298 C112.20718,44.6720039 113,46.5080059 113,48.5109171 L113,92.1576904 C113,94.2440563 112.123726,96.1217856 110.788453,97.4570597 L110.746725,97.498787 C109.411451,98.8340612 107.533721,99.6686075 105.489083,99.6686075 L34.5109171,99.6686075 C32.4662785,99.6686075 30.5885492,98.8340612 29.2115478,97.4570597 L29.2115478,97.498787 C27.8345463,96.1217856 27,94.2440563 27,92.1576904 L27,48.5109171 C27,46.4245512 27.8345463,44.5468219 29.2115478,43.2115478 C30.5468219,41.8345463 32.4245512,41 34.5109171,41 Z" id="Fill-1" fill="#3989E3" fill-rule="nonzero"></path>
        </g>
    </g>
</svg>