<?xml version="1.0" encoding="UTF-8"?>
<svg width="120px" height="120px" viewBox="0 0 120 120" version="1.1" xmlns="http://www.w3.org/2000/svg" xmlns:xlink="http://www.w3.org/1999/xlink">
    <!-- Generator: Sketch 54.1 (76490) - https://sketchapp.com -->
    <title>Group</title>
    <desc>Created with Sketch.</desc>
    <g id="Page-1" stroke="none" stroke-width="1" fill="none" fill-rule="evenodd">
        <g id="Group" fill="#3989E3" fill-rule="nonzero">
            <path d="M65.8978194,37.8275643 C65.900739,35.4071667 64.4449735,33.2234732 62.2096551,32.2952034 C59.9743367,31.3669335 57.3999233,31.8769981 55.6874099,33.5874457 C53.9748965,35.2978934 53.461725,37.8716892 54.3872962,40.1081265 C55.3128673,42.3445637 57.494802,43.8029638 59.9152015,43.8029656 C63.2148501,43.7989997 65.8898708,41.1272058 65.8978194,37.8275643 L65.8978194,37.8275643 Z M57.5481343,37.8275643 C57.5452159,36.865949 58.1226191,35.9975313 59.0104805,35.6281876 C59.8983419,35.258844 60.9213115,35.4615185 61.6012794,36.1414864 C62.2812473,36.8214543 62.4839218,37.8444239 62.1145781,38.7322852 C61.7452345,39.6201466 60.8768168,40.1975499 59.9152015,40.1946315 C58.6067338,40.1946375 57.5448947,39.1360259 57.5409176,37.8275643 L57.5481343,37.8275643 Z M83.7302064,56.7208016 L82.4456394,56.7208016 L84.1776398,73.7304884 C84.2784689,74.720683 83.5583589,75.6054818 82.5683228,75.7078555 L82.3806894,75.7078555 C81.4562044,75.7050932 80.6834005,75.0039607 80.5909557,74.0841051 L78.6785387,55.0970512 C78.6279602,54.5943717 78.7904689,54.0935151 79.1265428,53.7162894 C79.4626166,53.3390636 79.9414613,53.1200337 80.4466224,53.1124675 L81.933256,53.1124675 L81.933256,48.5443165 C81.933256,47.5479026 82.7410091,46.7401495 83.737423,46.7401495 L88.1251573,46.7401495 L88.1251573,42.2225152 L59.9152015,24.916945 L31.7052456,42.2369486 L31.7052456,46.7473662 L36.0352465,46.7473662 C37.0316605,46.7473662 37.8394136,47.5551193 37.8394136,48.5515332 L37.8394136,53.1124675 L39.3332639,53.1124675 C39.8472261,53.1057746 40.3396421,53.3186218 40.6869061,53.6975805 C41.03417,54.0765392 41.2033084,54.5856263 41.1518643,55.0970512 L39.1889305,74.0913218 C39.1231847,74.7358886 38.7185608,75.296418 38.1274767,75.5617638 C37.5363925,75.8271097 36.8486479,75.7569597 36.3233096,75.3777388 C35.7979713,74.9985178 35.5148506,74.3678385 35.5805964,73.7232717 L37.3342468,56.7208016 L36.0352465,56.7208016 C35.0388326,56.7208016 34.2310795,55.9130485 34.2310795,54.9166345 L34.2310795,50.3484836 L29.9010786,50.3484836 C28.9046647,50.3484836 28.0969116,49.5407305 28.0969116,48.5443165 L28.0969116,41.2121817 C28.096735,40.585411 28.421863,40.0034592 28.9556951,39.6750314 L58.9698179,21.2653109 C59.5478403,20.911563 60.275346,20.911563 60.8533683,21.2653109 L90.8747079,39.6750314 C91.40854,40.0034592 91.7336679,40.585411 91.7334914,41.2121817 L91.7334914,48.5443165 C91.7334914,49.5407305 90.9257383,50.3484836 89.9293243,50.3484836 L85.5415901,50.3484836 L85.5415901,54.9166345 C85.5415939,55.3963824 85.3505223,55.8563764 85.0106129,56.1949315 C84.6707035,56.5334867 84.2099504,56.7227206 83.7302064,56.7208016 Z M70.0185369,73.7304884 L71.7721872,56.7208016 L70.429887,56.7208016 C69.433473,56.7208016 68.6257199,55.9130485 68.6257199,54.9166345 L68.6257199,50.3484836 L51.1036496,50.3484836 L51.1036496,54.9166345 C51.1036496,55.9130485 50.2958965,56.7208016 49.2994826,56.7208016 L48.007699,56.7208016 L49.7396994,73.7304884 C49.8405284,74.720683 49.1204185,75.6054818 48.1303824,75.7078555 L47.942749,75.7078555 C47.0182639,75.7050932 46.2454601,75.0039607 46.1530153,74.0841051 L44.2117316,55.0970512 C44.1607108,54.5894042 44.3270145,54.0838892 44.6694615,53.7056846 C45.0119086,53.3274801 45.4984777,53.1119508 46.0086819,53.1124675 L47.4953156,53.1124675 L47.4953156,48.5443165 C47.4953156,47.5479026 48.3030687,46.7401495 49.2994826,46.7401495 L70.429887,46.7401495 C71.4263009,46.7401495 72.234054,47.5479026 72.234054,48.5443165 L72.234054,53.1124675 L73.7712043,53.1124675 C74.2814086,53.1119508 74.7679777,53.3274801 75.1104247,53.7056846 C75.4528717,54.0838892 75.6191754,54.5894042 75.5681547,55.0970512 L73.626871,74.0913218 C73.5611252,74.7358886 73.1565012,75.296418 72.5654171,75.5617638 C71.974333,75.8271097 71.2865883,75.7569598 70.76125,75.3777388 C70.2359117,74.9985178 69.952791,74.3678386 70.0185369,73.7232717 L70.0185369,73.7304884 Z M26.4442946,90.3793418 C26.0989206,89.9832095 25.9434442,89.4561706 26.0185111,88.9360082 L27.1876114,80.5358065 C27.3103483,79.6417082 28.0748625,78.975841 28.9773451,78.9770062 L48.8087492,78.9770062 C49.8051631,78.9770062 50.6129162,79.7847593 50.6129162,80.7811732 C50.6129162,81.7775871 49.8051631,82.5853402 48.8087492,82.5853402 L30.5433621,82.5853402 L29.8794286,87.3916412 L89.9509743,87.3916412 L89.2870409,82.6142069 L71.0216538,82.6142069 C70.0252398,82.6142069 69.2174867,81.8064538 69.2174867,80.8100399 C69.2174867,79.8136259 70.0252398,79.0058728 71.0216538,79.0058728 L90.8602745,79.0058728 C91.7505386,79.0062116 92.5074715,79.6558868 92.6427915,80.5358065 L93.8335418,88.9504415 C93.9044928,89.4672899 93.7482438,89.9895478 93.4050968,90.3825064 C93.0619499,90.775465 92.5655032,91.000649 92.0438081,90.9999753 L27.8154615,90.9999753 C27.2898178,91.002723 26.7891143,90.7760888 26.4442946,90.3793418 L26.4442946,90.3793418 Z M58.1110344,82.3977069 L58.1110344,80.7956065 C55.8369658,80.2327135 53.9634362,78.626831 53.0593667,76.4656056 C52.787126,75.8669826 52.8621643,75.1676472 53.2552093,74.640409 C53.6482543,74.1131707 54.2970411,73.8415528 54.9484793,73.9315128 C55.5999175,74.0214729 56.1508085,74.4587598 56.3862507,75.0727887 C56.9815862,76.4940341 58.3743157,77.4168243 59.9152015,77.4109892 C61.7554518,77.4109892 63.7328189,76.3645723 63.7328189,74.0624551 C63.7328189,73.4634717 63.7328189,71.630438 59.511068,70.6634044 L59.446118,70.6634044 C53.3913334,69.2561541 52.4892499,65.7416368 52.4892499,63.7642697 C52.4862868,60.4491215 54.8510825,57.6046882 58.1110344,57.0022516 L58.1110344,55.407368 C58.1110344,54.410954 58.9187875,53.6032009 59.9152015,53.6032009 C60.9116154,53.6032009 61.7193685,54.410954 61.7193685,55.407368 L61.7193685,57.016685 C63.5502707,57.4732408 65.1377822,58.6116028 66.1576194,60.1992356 C66.5267443,60.7408244 66.5731226,61.4399973 66.2787676,62.0255968 C65.9844127,62.6111963 65.3956296,62.9911016 64.7407636,63.0179756 C64.0858977,63.0448495 63.4679661,62.7144646 63.1266188,62.1549527 C62.4252022,61.0610463 61.2146686,60.4000133 59.9152015,60.4013023 C58.0749511,60.4013023 56.097584,61.4477192 56.097584,63.7498363 C56.097584,64.3488198 56.097584,66.1818535 60.3193349,67.148887 L60.3842849,67.148887 C66.4390695,68.5922207 67.341153,72.0706547 67.341153,74.0480218 C67.3441161,77.36317 64.9793204,80.2076033 61.7193685,80.8100399 L61.7193685,82.3904902 C61.7193685,83.3869041 60.9116154,84.1946572 59.9152015,84.1946572 C58.9187875,84.1946572 58.1110344,83.3869041 58.1110344,82.3904902 L58.1110344,82.3977069 Z" id="Shape"></path>
            <path d="M60,120 C93.137085,120 120,93.137085 120,60 C120,26.862915 93.137085,0 60,0 C26.862915,0 0,26.862915 0,60 C0,93.137085 26.862915,120 60,120 Z M60,116 C29.072054,116 4,90.927946 4,60 C4,29.072054 29.072054,4 60,4 C90.927946,4 116,29.072054 116,60 C116,90.927946 90.927946,116 60,116 Z" id="Oval"></path>
        </g>
    </g>
</svg>