<?xml version="1.0" encoding="UTF-8"?>
<svg width="120px" height="120px" viewBox="0 0 120 120" version="1.1" xmlns="http://www.w3.org/2000/svg" xmlns:xlink="http://www.w3.org/1999/xlink">
    <!-- Generator: Sketch 54.1 (76490) - https://sketchapp.com -->
    <title>Group</title>
    <desc>Created with Sketch.</desc>
    <g id="Page-1" stroke="none" stroke-width="1" fill="none" fill-rule="evenodd">
        <g id="Group">
            <path d="M60,120 C93.137085,120 120,93.137085 120,60 C120,26.862915 93.137085,0 60,0 C26.862915,0 0,26.862915 0,60 C0,93.137085 26.862915,120 60,120 Z M60,116 C29.072054,116 4,90.927946 4,60 C4,29.072054 29.072054,4 60,4 C90.927946,4 116,29.072054 116,60 C116,90.927946 90.927946,116 60,116 Z" id="Oval" fill="#3989E3" fill-rule="nonzero"></path>
            <g id="noun_Paper_1430549_000000" transform="translate(26.000000, 22.000000)" fill="#3989E3" fill-rule="nonzero">
                <path d="M20.1010851,14.6862726 C20.1010851,13.675709 20.9203088,12.8564854 21.9308723,12.8564854 L30.9361915,12.8564854 C31.9467551,12.8564854 32.7659787,13.675709 32.7659787,14.6862726 C32.7659787,15.6968362 31.9467551,16.5160599 30.9361915,16.5160599 L21.9308723,16.5160599 C20.9203088,16.5160599 20.1010851,15.6968362 20.1010851,14.6862726 Z M10.3085319,23.3192514 C9.29796833,23.3192514 8.47874469,22.5000277 8.47874469,21.4894641 C8.47874469,20.4789005 9.29796833,19.6596769 10.3085319,19.6596769 L28.5053404,19.6596769 C29.515904,19.6596769 30.3351277,20.4789005 30.3351277,21.4894641 C30.3351277,22.5000277 29.515904,23.3192514 28.5053404,23.3192514 L10.3085319,23.3192514 Z M8.47874469,28.2926556 C8.47874469,27.282092 9.29796833,26.4628684 10.3085319,26.4628684 L23.6064043,26.4628684 C24.6169678,26.4628684 25.4361915,27.282092 25.4361915,28.2926556 C25.4361915,29.3032192 24.6169678,30.1224428 23.6064043,30.1224428 L10.3085319,30.1224428 C9.29796833,30.1224428 8.47874469,29.3032192 8.47874469,28.2926556 Z M20.2872553,33.2660599 C21.2978189,33.2660599 22.1170426,34.0852835 22.1170426,35.0958471 C22.1170426,36.1064107 21.2978189,36.9256343 20.2872553,36.9256343 L10.3085319,36.9256343 C9.29796833,36.9256343 8.47874469,36.1064107 8.47874469,35.0958471 C8.47874469,34.0852835 9.29796833,33.2660599 10.3085319,33.2660599 L20.2872553,33.2660599 Z M18.8191702,40.0639322 C19.8297338,40.0639322 20.6489575,40.8831559 20.6489575,41.8937194 C20.6489575,42.904283 19.8297338,43.7235067 18.8191702,43.7235067 L10.3085319,43.7235067 C9.29796833,43.7235067 8.47874469,42.904283 8.47874469,41.8937194 C8.47874469,40.8831559 9.29796833,40.0639322 10.3085319,40.0639322 L18.8191702,40.0639322 Z M41.0319362,11.664996 L41.0312318,31.9735718 C41.0346188,32.0373132 41.0346188,32.1011895 41.0319362,32.1384003 L41.0319362,46.2926552 C41.0319384,48.7491592 39.0423024,50.7414766 36.5851277,50.7447833 L4.9461573,50.7447828 C2.49199298,50.741482 0.503322564,48.7528116 0.500021281,46.2979748 L0.500023839,15.2836166 C0.496047403,14.0404175 0.989603963,12.8472981 1.87005818,11.9708312 L11.9867209,1.86480675 C12.8676948,0.982972415 14.0655772,0.49136834 15.3085319,0.500102416 L36.5858002,0.500102868 C39.0399645,0.503403699 41.0286349,2.49207411 41.0319362,4.94691093 L41.0319362,11.664996 Z M6.73091218,12.2820173 L12.1808723,12.2820173 C12.239626,12.2820173 12.2872553,12.234388 12.2872553,12.1756343 L12.2872553,6.74194457 L6.73091218,12.2820173 Z M4.15959568,15.9469109 L4.15959148,46.3000409 C4.15872639,46.5093914 4.24128482,46.7104642 4.38901371,46.8588035 C4.5367426,47.0071428 4.73747323,47.0905297 4.94682979,47.0905279 L36.5830701,47.0905322 C37.0195108,47.0887361 37.3723654,46.7344235 37.3723617,46.2979748 L37.3723617,4.95754922 C37.3723617,4.52277187 37.019905,4.17031518 36.5851277,4.17031518 L15.9361915,4.17031518 L15.9361908,12.1817658 C15.9328147,14.2597976 14.2490782,15.9435341 12.170234,15.9469109 L4.15959568,15.9469109 Z" id="Combined-Shape"></path>
            </g>
            <polygon id="Rectangle" fill="#FFFFFF" points="49 56 60.0356445 41 70 41 70 77 49 77"></polygon>
            <g id="noun_Paper_1430549_000000" transform="translate(51.000000, 43.000000)" fill="#3989E3" fill-rule="nonzero">
                <path d="M20.3670213,15.0638298 C20.3670213,14.0532662 21.1862449,13.2340426 22.1968085,13.2340426 L31.2021277,13.2340426 C32.2126912,13.2340426 33.0319149,14.0532662 33.0319149,15.0638298 C33.0319149,16.0743934 32.2126912,16.893617 31.2021277,16.893617 L22.1968085,16.893617 C21.1862449,16.893617 20.3670213,16.0743934 20.3670213,15.0638298 Z M10.5744681,23.6968085 C9.5639045,23.6968085 8.74468085,22.8775849 8.74468085,21.8670213 C8.74468085,20.8564577 9.5639045,20.037234 10.5744681,20.037234 L31.2021277,20.037234 C32.2126912,20.037234 33.0319149,20.8564577 33.0319149,21.8670213 C33.0319149,22.8775849 32.2126912,23.6968085 31.2021277,23.6968085 L10.5744681,23.6968085 Z M31.2021277,30.5 L10.5744681,30.5 C9.5639045,30.5 8.74468085,29.6807764 8.74468085,28.6702128 C8.74468085,27.6596492 9.5639045,26.8404255 10.5744681,26.8404255 L31.2021277,26.8404255 C32.2126912,26.8404255 33.0319149,27.6596492 33.0319149,28.6702128 C33.0319149,29.6807764 32.2126912,30.5 31.2021277,30.5 Z M31.2021277,33.643617 C32.2126912,33.643617 33.0319149,34.4628407 33.0319149,35.4734043 C33.0319149,36.4839678 32.2126912,37.3031915 31.2021277,37.3031915 L10.5744681,37.3031915 C9.5639045,37.3031915 8.74468085,36.4839678 8.74468085,35.4734043 C8.74468085,34.4628407 9.5639045,33.643617 10.5744681,33.643617 L31.2021277,33.643617 Z M19.0851064,40.4414894 C20.09567,40.4414894 20.9148936,41.260713 20.9148936,42.2712766 C20.9148936,43.2818402 20.09567,44.1010638 19.0851064,44.1010638 L10.5744681,44.1010638 C9.5639045,44.1010638 8.74468085,43.2818402 8.74468085,42.2712766 C8.74468085,41.260713 9.5639045,40.4414894 10.5744681,40.4414894 L19.0851064,40.4414894 Z M41.2978723,12.0425532 L41.297168,32.351129 C41.3005549,32.4148704 41.3005549,32.4787467 41.2978723,32.5159574 L41.2978723,46.6702123 C41.2978746,49.1267164 39.3082386,51.1190338 36.8510638,51.1223404 L5.21209346,51.12234 C2.75792914,51.1190391 0.76925873,49.1303687 0.765957447,46.6755319 L0.765960004,15.6611737 C0.761983569,14.4179746 1.25554013,13.2248553 2.13599434,12.3483883 L12.2526571,2.2423639 C13.133631,1.36052957 14.3315134,0.868925499 15.5744681,0.877659574 L36.8517363,0.877660027 C39.3059006,0.880960857 41.2945711,2.86963127 41.2978723,5.32446809 L41.2978723,12.0425532 Z M6.99684835,12.6595745 L12.4468085,12.6595745 C12.5055622,12.6595745 12.5531915,12.6119452 12.5531915,12.5531915 L12.5531915,7.11950173 L6.99684835,12.6595745 Z M4.42553185,16.3244681 L4.42552765,46.677598 C4.42466255,46.8869485 4.50722098,47.0880213 4.65494987,47.2363607 C4.80267876,47.3847 5.00340939,47.4680869 5.21276596,47.4680851 L36.8490062,47.4680893 C37.285447,47.4662933 37.6383016,47.1119806 37.6382979,46.6755319 L37.6382979,5.33510638 C37.6382979,4.90032903 37.2858412,4.54787234 36.8510638,4.54787234 L16.2021276,4.54787234 L16.202127,12.559323 C16.1987508,14.6373548 14.5150144,16.3210912 12.4361702,16.3244681 L4.42553185,16.3244681 Z" id="Combined-Shape"></path>
            </g>
        </g>
    </g>
</svg>