<?xml version="1.0" encoding="UTF-8"?>
<svg width="50px" height="48px" viewBox="0 0 50 48" version="1.1" xmlns="http://www.w3.org/2000/svg" xmlns:xlink="http://www.w3.org/1999/xlink">
    <!-- Generator: Sketch 52.4 (67378) - http://www.bohemiancoding.com/sketch -->
    <title>Page 1 Copy</title>
    <desc>Created with Sketch.</desc>
    <defs>
        <polygon id="path-1" points="0.0242153965 0.0176304591 7.21480727 0.0176304591 7.21480727 6.95512296 0.0242153965 6.95512296 0.0242153965 0.0176304591"></polygon>
        <polygon id="path-3" points="0 6.96800896 0 0.0283449048 6.99554476 0.0283449048 6.99554476 6.96800896"></polygon>
    </defs>
    <g id="Page-1" stroke="none" stroke-width="1" fill="none" fill-rule="evenodd">
        <g id="Merchant-Portal---Dashboard-V2" transform="translate(-86.000000, -244.000000)">
            <g id="Group-10" transform="translate(50.000000, 207.000000)">
                <g id="Group-12" transform="translate(25.000000, 25.000000)">
                    <g id="Page-1-Copy" transform="translate(11.000000, 12.000000)">
                        <g id="Group-3" transform="translate(21.496325, 0.054038)">
                            <mask id="mask-2" fill="white">
                                <use xlink:href="#path-1"></use>
                            </mask>
                            <g id="Clip-2"></g>
                            <path d="M3.61595234,0.0176089586 C3.90921346,0.896981859 4.18396781,1.78208824 4.46868735,2.66432788 C5.38406066,2.66719462 6.29943397,2.6636112 7.21480727,2.66576125 C6.47596008,3.21330885 5.73497749,3.7579897 4.99684209,4.3048206 C5.27942623,5.18849362 5.56343397,6.07144994 5.84530631,6.95512296 C5.09934112,6.41115879 4.36191752,5.85572766 3.61239335,5.31749698 C2.87639335,5.86791131 2.13398716,6.40972542 1.39442816,6.95440627 C1.67487691,6.07073326 1.95959644,5.18777693 2.24218058,4.3048206 C1.50333338,3.75727301 0.762350793,3.21402553 0.0242153965,2.66576125 C0.939588704,2.6636112 1.85496201,2.66719462 2.77033532,2.66432788 C3.05078406,1.78137156 3.3369272,0.900565286 3.61595234,0.0176089586" id="Fill-1" fill="#002248" mask="url(#mask-2)"></path>
                        </g>
                        <path d="M13.4935848,2.46250213 C13.9306293,2.2388963 14.3719446,2.02317402 14.8232251,1.82966898 C14.9186061,2.12566002 15.0125636,2.42308443 15.1086564,2.71907548 C16.0233179,2.71979216 16.9379794,2.71835879 17.8533527,2.71979216 C17.1152173,3.26805644 16.3742347,3.8120206 15.6353875,4.35885151 C15.9172599,5.24180784 16.2026912,6.12404748 16.4824282,7.00843718 C15.740022,6.46375633 15.000463,5.91549205 14.2580568,5.3708112 C13.5156506,5.91549205 12.7768034,6.46447301 12.0329736,7.00772049 C12.3141342,6.12404748 12.5981419,5.24109115 12.880726,4.35813483 C12.4856777,4.0664439 12.0906293,3.77403628 11.6948692,3.48377872 C12.0877821,3.2408224 12.4849659,3.00574961 12.8899794,2.78286047 C13.0444398,2.68754132 13.2337783,2.7276757 13.4067454,2.71764211 C13.4352173,2.63235655 13.4644011,2.54778768 13.4935848,2.46250213" id="Fill-4" fill="#002248"></path>
                        <path d="M14.2445184,10.2292282 C14.3334932,10.3639651 14.3683714,10.5237859 14.4181973,10.6757232 C14.6466847,11.3938419 14.8773075,12.1112439 15.1079304,12.8293626 C16.0233037,12.8300793 16.938677,12.8272125 17.8547621,12.8300793 C17.1166267,13.3790602 16.3742205,13.9230244 15.6353733,14.4712887 C15.9179574,15.354245 16.2019652,16.2372013 16.4838375,17.1208744 C15.7414313,16.5754768 14.9997369,16.0286459 14.2580426,15.4825317 C13.5163482,16.0272125 12.7767892,16.5761935 12.0329594,17.119441 C12.3134081,16.235768 12.5988395,15.3535283 12.8807118,14.470572 C12.1411528,13.9230244 11.3994584,13.3776269 10.6598994,12.8300793 C11.5759845,12.8272125 12.4920696,12.830796 13.4088665,12.8286459 C13.6878917,11.9621733 13.9605106,11.0942674 14.2445184,10.2292282" id="Fill-12" fill="#002248"></path>
                        <path d="M24.267365,12.8279149 C24.5492373,11.9449586 24.8303978,11.0612856 25.1179646,10.1804793 C25.3977015,11.0634356 25.6838446,11.9449586 25.9635816,12.8279149 C26.8803785,12.8314983 27.7971754,12.8271982 28.7139723,12.8300649 C27.9744133,13.3776125 27.2334307,13.9237268 26.4931599,14.4705577 C26.7750323,15.3542307 27.0597518,16.2364703 27.3409123,17.1201433 C26.5970826,16.5761792 25.8582354,16.0257648 25.1136938,15.4825174 C24.373423,16.0300649 23.6317286,16.5754625 22.8900342,17.12086 C23.1711947,16.2364703 23.4566261,15.3542307 23.7384984,14.4705577 C22.9989394,13.9230101 22.257245,13.3783292 21.517686,12.8300649 C22.4344829,12.8264815 23.3512798,12.8314983 24.267365,12.8279149" id="Fill-14" fill="#002248"></path>
                        <path d="M2.02079691,14.6999041 C2.52332689,13.5453241 3.11483172,12.4308784 3.78249903,11.3644506 C3.93411219,11.8539467 4.09569052,12.3398594 4.24872727,12.8286387 C5.16552418,12.8307888 6.08232108,12.8279221 6.99911799,12.8300721 C6.25955899,13.3776197 5.5171528,13.9223006 4.77759381,14.4705648 C5.06017795,15.3542378 5.34489749,16.2371942 5.62605803,17.1208672 C4.88507544,16.574753 4.14266925,16.0315055 3.40382205,15.4832412 C2.65785687,16.0250553 1.91829787,16.5761863 1.17446809,17.1215839 C1.43996905,16.3088627 1.67415087,15.4832412 2.02079691,14.6999041" id="Fill-16" fill="#002248"></path>
                        <g id="Group-30" transform="translate(0.000000, 20.264564)">
                            <mask id="mask-4" fill="white">
                                <use xlink:href="#path-3"></use>
                            </mask>
                            <g id="Clip-29"></g>
                            <path d="M2.5567672,2.67004703 C2.83152155,1.78780739 3.11766468,0.90843449 3.40096062,0.0283449048 C3.68425656,0.911301232 3.9668407,1.79425756 4.25013663,2.67721389 C5.16550994,2.67936394 6.08017145,2.6764972 6.99554476,2.67864726 C6.25740936,3.22691153 5.51642677,3.7708757 4.77757957,4.31770661 C5.05874012,5.20137962 5.34488325,6.08433595 5.62604379,6.96800896 C4.882214,6.42332811 4.14265501,5.87291377 3.39740162,5.32966629 C2.65784263,5.87793057 1.91686004,6.42261142 1.17445385,6.96729227 C1.45703799,6.08433595 1.73819853,5.2020963 2.02362986,4.32057335 C1.36094515,3.81387682 0.668364874,3.34301456 0.0192043327,2.82055095 C0.0142217408,2.78543337 0.0049683559,2.71448152 -1.42359768e-05,2.67936394 C0.852720774,2.6714804 1.70474398,2.68868085 2.5567672,2.67004703" id="Fill-28" fill="#002248" mask="url(#mask-4)"></path>
                        </g>
                        <path d="M14.2494867,20.332327 C14.5747788,21.1866159 14.814655,22.0753057 15.1086279,22.942495 C16.0232894,22.9432116 16.9379509,22.9417783 17.8526125,22.9432116 C17.1159007,23.4929093 16.3734945,24.0354401 15.6353591,24.582271 C15.9165196,25.4652273 16.2026627,26.3467503 16.4816879,27.2304233 C15.7385699,26.6878925 14.9997227,26.1381948 14.2580283,25.5942307 C13.5156221,26.1389832 12.7767749,26.6878925 12.0336569,27.2304233 C12.3133939,26.347467 12.5981134,25.4652273 12.8814094,24.5829877 C12.1425622,24.0354401 11.4008678,23.4914759 10.6627324,22.9432116 C11.5773939,22.9417783 12.4927672,22.9432116 13.4081405,22.942495 C13.6900128,22.0731557 13.9604964,21.1995162 14.2494867,20.332327" id="Fill-31" fill="#002248"></path>
                        <path d="M25.1137009,20.2929236 C25.4012676,21.1730132 25.6824282,22.0552529 25.9621651,22.9382092 C26.8782502,22.9489595 27.7950471,22.9396426 28.711844,22.943226 C27.9737086,23.4922069 27.2320142,24.0347377 26.4938788,24.5822853 C26.7750394,25.4659583 27.0604707,26.3489147 27.3416313,27.2325877 C26.6020723,26.6864735 25.8575307,26.1474544 25.1236661,25.59489 C24.3734301,26.132404 23.6360065,26.6893402 22.8900413,27.2325877 C23.1719137,26.3489147 23.4559214,25.4659583 23.7385055,24.5822853 C22.9996583,24.0347377 22.2579639,23.4914903 21.5198285,22.943226 C22.4359137,22.9396426 23.3527106,22.9489595 24.2695075,22.9382092 C24.547109,22.0552529 24.8346757,21.1751633 25.1137009,20.2929236" id="Fill-33" fill="#002248"></path>
                        <path d="M35.3379581,2.04966988 C36.3558304,2.51838208 37.3359774,3.06807973 38.2805345,3.67152878 C37.970902,3.90086809 37.6598459,4.12877402 37.3509252,4.35883001 C37.6327975,5.24178634 37.9175171,6.12402598 38.1986776,7.00769899 C37.454136,6.4651682 36.7152888,5.91403718 35.9721708,5.3707897 C35.2311882,5.91690392 34.4909174,6.46373483 33.7492231,7.00769899 C34.0268246,6.12330929 34.3151031,5.24250302 34.5955519,4.35883001 C33.8574165,3.8119991 33.1164339,3.26875162 32.3804339,2.72048735 C33.2936718,2.7176206 34.2076215,2.71977066 35.122283,2.71905398 C35.1948865,2.49616484 35.2660664,2.27255901 35.3379581,2.04966988" id="Fill-35" fill="#D82028"></path>
                        <path d="M35.8134468,10.6757232 C35.8625609,10.5252193 35.8953037,10.3639651 35.9885493,10.2328116 C36.2711335,11.0964175 36.5437524,11.9636067 36.8227776,12.8286459 C37.7388627,12.8300793 38.654236,12.8272125 39.5696093,12.8300793 C38.8321857,13.3797769 38.0904913,13.9230244 37.3509323,14.470572 C37.6320928,15.3535283 37.918236,16.2350513 38.1979729,17.1187243 C37.4541431,16.5769102 36.7152959,16.0272125 35.9728897,15.4825317 C35.2311954,16.0286459 34.4902128,16.5754768 33.7478066,17.121591 C34.0282553,16.2372013 34.3136867,15.3549617 34.5962708,14.4712887 C33.8574236,13.9223077 33.1143056,13.3804936 32.376882,12.8300793 C33.2922553,12.8272125 34.2076286,12.8293626 35.1230019,12.8286459 C35.3536248,12.1112439 35.5835358,11.3938419 35.8134468,10.6757232" id="Fill-37" fill="#D82028"></path>
                        <path d="M46.2590948,11.9528421 C47.128913,13.4421142 47.8570832,15.0159552 48.4137099,16.6507144 C47.8834197,16.2608376 47.3595358,15.8623606 46.8214159,15.483234 C46.0882631,16.0357984 45.3458569,16.5754625 44.6062979,17.1194267 C44.885323,16.235037 45.1728897,15.353514 45.4526267,14.469841 C44.7130677,13.9222934 43.9713733,13.3783292 43.2325261,12.8293483 C44.149323,12.8271982 45.0661199,12.8300649 45.9829168,12.8279149 C46.0740271,12.536224 46.1708317,12.2459664 46.2590948,11.9528421" id="Fill-45" fill="#D82028"></path>
                        <path d="M35.7985062,20.8354401 C35.8540265,20.667019 35.89104,20.4892811 35.986421,20.3380605 C36.2704288,21.2038163 36.5430477,22.0738723 36.8234965,22.9417783 C37.738158,22.9439283 38.6528195,22.9410616 39.5681928,22.9432116 C38.831481,23.4929093 38.0890748,24.0347234 37.3509394,24.5829877 C37.6321,25.465944 37.9182431,26.3481837 38.19798,27.2318567 C37.4555738,26.6878925 36.7153031,26.1396282 35.9736087,25.5949474 C35.2312025,26.1396282 34.4916435,26.6878925 33.7485255,27.2318567 C34.0282624,26.347467 34.3151174,25.465944 34.5955661,24.5815543 C33.8567189,24.0354401 33.1150245,23.4914759 32.3776009,22.9432116 C33.2922624,22.9410616 34.2076357,22.9439283 35.1230091,22.9417783 C35.3486493,22.2401433 35.5728659,21.5377917 35.7985062,20.8354401" id="Fill-47" fill="#D82028"></path>
                        <path d="M46.8292314,20.2921854 C47.1132391,21.1708417 47.4008059,22.0487812 47.6712894,22.9324542 C48.3353978,22.9553881 49.0002179,22.9367543 49.6643262,22.9417711 C49.6771386,23.1223758 49.6878156,23.3036972 49.6956453,23.4850186 C49.1995215,23.8519615 48.7005506,24.2153209 48.207274,24.5858473 C48.4941289,25.4666535 48.7745776,26.3496099 49.05645,27.2319212 C48.3161792,26.6871686 47.5730612,26.1460712 46.837773,25.5949402 C46.0882488,26.1324542 45.3529606,26.6900354 44.6055718,27.2311328 C44.8874442,26.3481765 45.1707401,25.4659368 45.4533243,24.5829805 C44.7151889,24.0354329 43.9734945,23.4914688 43.2346473,22.9439212 C44.1507324,22.9389044 45.0668175,22.9467879 45.9829026,22.9403377 C46.2626395,22.0566647 46.5487827,21.1751418 46.8292314,20.2921854" id="Fill-49" fill="#D82028"></path>
                        <path d="M2.55392,33.0276623 C2.84575752,32.1569613 3.11339389,31.278305 3.40096062,30.406099 C3.68425656,31.2876219 3.9675525,32.1691449 4.24871304,33.0513129 C5.16479814,33.0534629 6.08159505,33.0513129 6.99839195,33.0528179 C6.26025656,33.6031606 5.51785037,34.145763 4.77829137,34.6939557 C5.05874012,35.5776287 5.34488325,36.45994 5.62533199,37.343613 C4.8836376,36.7996488 4.14265501,36.2548963 3.40451961,35.7067037 C3.18528557,35.8622244 2.96961052,36.0234786 2.75393547,36.1825828 C2.23218692,35.1705514 1.77450027,34.1256242 1.39226429,33.0521012 C1.77805926,33.0349008 2.17737841,33.0871471 2.55392,33.0276623" id="Fill-51" fill="#D82028"></path>
                        <path d="M25.1101205,30.4146347 C25.4119232,31.2876291 25.678136,32.1733805 25.9642791,33.05132 C26.8810761,33.0534701 27.797873,33.05132 28.7146699,33.0528251 C27.9758227,33.6024511 27.2334165,34.1464152 26.4938575,34.6939628 C26.7743062,35.5784242 27.0604494,36.4599471 27.3408981,37.3442652 C26.5984919,36.799656 25.8575093,36.2535418 25.1172385,35.7067109 C24.3734087,36.250675 23.6338497,36.799656 22.8907318,37.3436202 C23.1711805,36.4599471 23.4559,35.5784242 23.7384842,34.6953962 C22.999637,34.1464152 22.2558072,33.6038844 21.5183836,33.0534701 C22.4366041,33.0463749 23.3548246,33.062787 24.2730451,33.0448699 C24.5442405,32.1655686 24.8339426,31.2925742 25.1101205,30.4146347" id="Fill-53" fill="#D82028"></path>
                        <path d="M46.830655,30.4060918 C47.1125274,31.2840314 47.4008059,32.1604658 47.6712894,33.0419888 C47.8755757,33.0534558 48.0805738,33.0541725 48.2862836,33.0520941 C47.9410612,34.0203359 47.5353359,34.9663606 47.074802,35.8843628 C46.9929451,35.8248779 46.9118001,35.7661814 46.8320786,35.7074132 C46.0882488,36.249944 45.3508252,36.8003583 44.6069954,37.3428891 C44.8853088,36.4592161 45.1728755,35.5776215 45.4526125,34.6939485 C44.7137653,34.1457559 43.9699355,33.6025084 43.2318001,33.0528108 C44.148597,33.0513057 45.0653939,33.0541725 45.9821908,33.0513057 C46.2654867,32.1691377 46.5459355,31.2868981 46.830655,30.4060918" id="Fill-55" fill="#D82028"></path>
                        <path d="M13.4081547,33.0520869 C13.6928743,32.1697756 13.9726112,31.2861026 14.2587544,30.4039346 C14.5427621,31.2861026 14.8232108,32.1697756 15.1079304,33.0520869 C16.0240155,33.0528036 16.9401006,33.0505819 17.8561857,33.0535203 C17.1180503,33.6031462 16.3735087,34.1457487 15.6353733,34.6968081 C15.9186692,35.5784027 16.202677,36.4599256 16.4824139,37.3435987 C15.7392959,36.8003512 15.0004487,36.2506535 14.2580426,35.7066894 C13.5156364,36.2520152 12.7760774,36.8003512 12.0329594,37.3435987 C12.3126963,36.4599256 12.5988395,35.5784027 12.8807118,34.6954464 C12.1411528,34.1464654 11.3987466,33.6025012 10.6598994,33.0535203 C11.5759845,33.0505819 12.4920696,33.0535203 13.4081547,33.0520869" id="Fill-57" fill="#D82028"></path>
                        <path d="M35.1237209,33.0520869 C35.4077286,32.1704923 35.6874655,31.2868909 35.9736087,30.4052963 C36.25904,31.2868909 36.5380651,32.1704923 36.8227847,33.0520869 C37.7388698,33.0528036 38.6542431,33.0505819 39.5703282,33.0535203 C38.8329046,33.6038629 38.0897866,34.1464654 37.3509394,34.6947297 C37.6328118,35.5776143 37.9175313,36.4599256 38.1986918,37.3435987 C37.4555738,36.8003512 36.7160149,36.2527319 35.9750323,35.7066894 C35.2312025,36.2470701 34.4980497,36.8017129 33.7513727,37.3363601 C34.0289742,36.4548372 34.3151174,35.5762526 34.5962779,34.6954464 C33.8574307,34.1464654 33.1136009,33.6031462 32.3754655,33.0535203 C33.2915506,33.0505819 34.2076357,33.0535203 35.1237209,33.0520869" id="Fill-59" fill="#D82028"></path>
                        <path d="M14.2502199,40.5492891 C14.5705294,41.4085948 14.8161,42.2958513 15.1086493,43.1659789 C16.0233108,43.1680573 16.9379723,43.1651906 17.8533456,43.1673406 C17.115922,43.7163216 16.3735158,44.2589241 15.6353804,44.8071167 C15.9115584,45.6886396 16.2119375,46.5637124 16.4731677,47.4502522 C15.7350323,46.9055713 14.9961851,46.3616788 14.2580497,45.8184314 C13.8722547,46.1028838 13.4857479,46.3845411 13.1020884,46.6712152 C12.8664829,46.548662 12.6365719,46.4167919 12.4059491,46.2863552 C12.565392,45.7932757 12.7226996,45.2994795 12.8800071,44.8064 C12.1418717,44.2589241 11.4001773,43.7156766 10.6627537,43.1673406 C11.5774152,43.1651906 12.4920768,43.1673406 13.4067383,43.1666956 C13.690746,42.2951346 13.9619414,41.4194168 14.2502199,40.5492891" id="Fill-61" fill="#D82028"></path>
                        <path d="M24.267365,43.1644882 C24.5506609,42.2822486 24.8268388,41.3971422 25.1186764,40.5177693 C25.4048195,41.402159 25.6745913,42.2929989 25.9771058,43.1723718 C26.8882083,43.1594714 27.7993108,43.169505 28.7111251,43.167355 C27.9737015,43.7163359 27.2312953,44.2581501 26.4938717,44.807131 C26.7750323,45.6900873 27.0604636,46.5716103 27.3416241,47.4552833 C26.5977944,46.9120358 25.8582354,46.3630549 25.1151174,45.818374 C24.3727112,46.3630549 23.633864,46.9120358 22.890746,47.4552833 C23.1711947,46.5716103 23.4559143,45.6900873 23.7377866,44.807131 C22.9996512,44.2589384 22.257245,43.7149026 21.5191096,43.1666383 C22.4351947,43.1644882 23.3512798,43.169505 24.267365,43.1644882" id="Fill-63" fill="#D82028"></path>
                        <path d="M35.1229877,43.1666598 C35.4169606,42.2980372 35.656125,41.4086307 35.9835525,40.5528367 C36.2696956,41.4222477 36.540891,42.2965321 36.8248987,43.1666598 C37.7395602,43.1673765 38.6535099,43.1651548 39.5681715,43.1680932 C38.8300361,43.7148524 38.0911889,44.2603216 37.3516299,44.8049308 C37.4776183,45.2070629 37.6078774,45.60769 37.7360012,46.0090338 C37.4591115,46.1767382 37.1807981,46.3415758 36.8967904,46.4963798 C36.5871579,46.2720573 36.2810844,46.0440797 35.9728755,45.8183955 C35.2311811,46.3637214 34.4916221,46.9113406 33.7485041,47.4553048 C34.0289529,46.5723485 34.3129606,45.6901088 34.5962566,44.8077975 C33.858833,44.2580999 33.1142914,43.7185075 32.3790032,43.1659431 C33.2936647,43.1666598 34.2083262,43.1666598 35.1229877,43.1666598" id="Fill-65" fill="#D82028"></path>
                    </g>
                </g>
            </g>
        </g>
    </g>
</svg>