<?xml version="1.0" encoding="UTF-8"?>
<svg width="26px" height="26px" viewBox="0 0 26 26" version="1.1" xmlns="http://www.w3.org/2000/svg" xmlns:xlink="http://www.w3.org/1999/xlink">
    <!-- Generator: Sketch 53.2 (72643) - https://sketchapp.com -->
    <title>Shape</title>
    <desc>Created with Sketch.</desc>
    <g id="Page-1" stroke="none" stroke-width="1" fill="none" fill-rule="evenodd">
        <g id="noun_Check_1231595_000000" fill="#00A499" fill-rule="nonzero">
            <path d="M12.7,0.2 C5.79360731,0.2 0.2,5.79360731 0.2,12.7 C0.2,19.6063927 5.79360731,25.2 12.7,25.2 C19.6063927,25.2 25.2,19.6063927 25.2,12.7 C25.2,5.79360731 19.6063927,0.2 12.7,0.2 Z M17.26621,8.6760274 C18.4363014,8.64748858 19.0356164,10.0744292 18.2079909,10.9020548 L12.1577626,16.9522831 C11.786758,17.3232877 11.1589041,17.3232877 10.7878995,16.9522831 L7.73424658,13.8415525 C6.47853881,12.6143836 8.33356164,10.7593607 9.56073059,12.0150685 L11.2730594,13.7273973 C11.3872146,13.8415525 11.6155251,13.8415525 11.7296804,13.7273973 L16.4100457,9.04703196 C16.6098174,8.81872146 16.9237443,8.6760274 17.26621,8.6760274 L17.26621,8.6760274 Z" id="Shape"></path>
        </g>
    </g>
</svg>