<?xml version="1.0" encoding="UTF-8"?>
<svg width="26px" height="26px" viewBox="0 0 26 26" version="1.1" xmlns="http://www.w3.org/2000/svg" xmlns:xlink="http://www.w3.org/1999/xlink">
    <!-- Generator: Sketch 53 (72520) - https://sketchapp.com -->
    <title>Combined Shape</title>
    <desc>Created with Sketch.</desc>
    <g id="Page-1" stroke="none" stroke-width="1" fill="none" fill-rule="evenodd">
        <g id="Merchant-Portal---Dashboard-V3" transform="translate(-893.000000, -894.000000)" fill="#B0ACBE">
            <g id="Group-11" transform="translate(854.000000, 702.000000)">
                <g id="Group-14" transform="translate(25.000000, 160.000000)">
                    <g id="Group-15" transform="translate(2.000000, 13.000000)">
                        <g id="Group-6" transform="translate(12.000000, 19.000000)">
                            <path d="M0.1632,15.007 C0.0822,14.424 0.0002,13.731 0.0002,13.016 C0.0002,12.727 0.1272,12.418 0.3312,12.21 C0.5282,12.015 0.8442,11.878 1.0932,11.878 C1.1022,11.878 1.1112,11.878 1.1192,11.879 C1.3202,11.888 1.6922,11.942 1.9302,12.197 C2.1582,12.448 2.2742,12.724 2.2742,13.016 C2.2742,13.497 2.3032,13.989 2.3612,14.486 C2.5022,15.404 2.7492,16.307 3.0962,17.175 C3.4702,18.023 3.9412,18.83 4.4992,19.58 C5.0722,20.295 5.7272,20.949 6.4502,21.528 C7.1912,22.08 7.9972,22.549 8.8482,22.925 C9.7152,23.272 10.6272,23.521 11.5622,23.665 C12.5212,23.776 13.4942,23.776 14.4612,23.663 C15.3772,23.522 16.2842,23.274 17.1622,22.923 C18.0122,22.548 18.8192,22.076 19.5672,21.52 C20.2812,20.947 20.9342,20.294 21.5092,19.573 C22.0642,18.83 22.5362,18.022 22.9132,17.168 C23.2602,16.299 23.5092,15.387 23.6522,14.454 C23.7642,13.498 23.7642,12.524 23.6502,11.556 C23.5082,10.631 23.2592,9.722 22.9102,8.851 C22.5372,8.006 22.0662,7.199 21.5072,6.449 C20.9322,5.73 20.2772,5.074 19.5562,4.497 C18.8092,3.942 18.0012,3.47 17.1492,3.093 C16.2872,2.749 15.3762,2.502 14.4372,2.357 C13.4872,2.245 12.5152,2.246 11.5452,2.359 C10.6212,2.502 9.7062,2.752 8.8202,3.104 C7.9792,3.477 7.1772,3.946 6.4332,4.5 C6.0112,4.838 5.6062,5.209 5.2292,5.6 L4.6152,6.241 L6.7172,6.241 C7.0062,6.241 7.3162,6.369 7.5222,6.573 C7.7262,6.778 7.8662,7.109 7.8542,7.36 C7.8452,7.561 7.7902,7.934 7.5362,8.171 C7.2842,8.399 7.0082,8.515 6.7172,8.515 L2.5712,8.515 C2.3852,8.515 2.2012,8.465 2.0262,8.368 C1.7072,8.187 1.4892,7.867 1.4422,7.513 C1.4322,7.436 1.4292,7.359 1.4342,7.266 L1.4342,2.926 C1.4342,2.635 1.5612,2.327 1.7662,2.121 C1.9622,1.924 2.2812,1.788 2.5412,1.788 L2.5532,1.788 C2.7532,1.798 3.1262,1.852 3.3642,2.109 C3.5922,2.356 3.7072,2.631 3.7072,2.926 L3.7072,3.869 L4.3382,3.305 C5.1382,2.59 6.0122,1.984 6.9342,1.503 C9.2882,0.275 11.9652,-0.226 14.4732,0.095 C15.0642,0.171 15.7612,0.273 16.4442,0.46 C17.1092,0.641 17.7572,0.904 18.3032,1.136 C19.3052,1.569 20.2852,2.179 21.2992,3.001 C23.0832,4.451 24.4612,6.438 25.2862,8.748 C26.0892,11.007 26.2202,13.593 25.6522,16.028 C25.1292,18.285 23.9212,20.46 22.2512,22.152 C20.5892,23.834 18.4292,25.069 16.1712,25.627 C13.7512,26.225 11.1632,26.126 8.8852,25.348 C6.5762,24.561 4.5732,23.205 3.0952,21.426 C1.4932,19.504 0.4792,17.284 0.1632,15.007 Z M12.193,21.0285 C11.989,20.8215 11.861,20.5125 11.861,20.2235 L11.861,19.0515 L11.562,18.9355 C11.022,18.7045 10.582,18.4045 10.256,18.0445 C9.836,17.5715 9.549,17.0645 9.379,16.4935 C9.298,16.2245 9.343,15.9125 9.505,15.6135 C9.666,15.3085 10.005,15.1605 10.193,15.0995 C10.435,15.0215 10.805,15.0715 11.052,15.2185 C11.297,15.3615 11.492,15.6175 11.579,15.9095 L11.633,16.0625 C11.689,16.1735 11.751,16.2765 11.843,16.4085 C11.923,16.4975 12.001,16.5735 12.118,16.6735 C12.221,16.7405 12.318,16.7955 12.459,16.8625 C12.576,16.9025 12.685,16.9295 12.841,16.9595 L12.922,16.9615 L13.022,16.9545 C13.052,16.9525 13.086,16.9545 13.117,16.9575 L13.174,16.9635 L13.231,16.9505 C13.352,16.9245 13.459,16.8935 13.605,16.8415 C13.715,16.7845 13.81,16.7275 13.934,16.6405 C14.027,16.5565 14.106,16.4775 14.205,16.3605 C14.269,16.2635 14.322,16.1685 14.391,16.0265 C14.43,15.9075 14.458,15.7995 14.486,15.6475 C14.494,15.5185 14.492,15.4015 14.479,15.2395 C14.454,15.1215 14.423,15.0165 14.372,14.8735 C14.314,14.7595 14.256,14.6635 14.167,14.5365 C14.089,14.4495 14.013,14.3755 13.9,14.2785 C13.791,14.2065 13.686,14.1475 13.544,14.0795 C13.432,14.0415 13.327,14.0155 13.175,13.9865 L12.965,13.9795 C12.777,13.9755 12.588,13.9475 12.347,13.9125 L12.309,13.9075 C12.124,13.8825 11.94,13.8345 11.749,13.7605 C11.078,13.4965 10.58,13.1675 10.225,12.7545 C9.814,12.2745 9.547,11.8005 9.387,11.2675 C9.232,10.7485 9.209,10.2005 9.314,9.4915 C9.38,9.0515 9.562,8.5925 9.825,8.2005 C10.154,7.7075 10.548,7.3185 11.032,7.0095 C11.214,6.8925 11.413,6.7925 11.622,6.7105 L11.861,6.6155 L11.861,5.4595 C11.861,5.1645 11.977,4.8905 12.203,4.6445 C12.443,4.3855 12.816,4.3315 13.018,4.3215 C13.262,4.2965 13.6,4.4505 13.802,4.6535 C14.007,4.8605 14.135,5.1695 14.135,5.4595 L14.135,6.6175 L14.372,6.7125 C14.856,6.9065 15.281,7.1795 15.636,7.5235 C16.029,7.9015 16.327,8.3815 16.576,9.0335 C16.659,9.2555 16.61,9.5755 16.443,9.8905 C16.282,10.1955 15.943,10.3425 15.754,10.4035 C15.514,10.4825 15.145,10.4325 14.898,10.2855 C14.705,10.1725 14.561,10.0075 14.446,9.7705 L14.416,9.7055 C14.35,9.5655 14.276,9.4375 14.166,9.2775 C14.087,9.1895 14.007,9.1125 13.884,9.0065 C13.778,8.9375 13.682,8.8835 13.546,8.8185 C13.442,8.7835 13.336,8.7555 13.211,8.7295 L13.073,8.7205 L12.981,8.7275 C12.95,8.7295 12.917,8.7275 12.887,8.7255 L12.828,8.7205 L12.771,8.7325 C12.649,8.7595 12.543,8.7905 12.4,8.8415 C12.288,8.9005 12.193,8.9565 12.07,9.0425 C11.973,9.1315 11.894,9.2125 11.797,9.3255 C11.731,9.4275 11.676,9.5245 11.607,9.6675 C11.569,9.7805 11.542,9.8875 11.513,10.0405 C11.506,10.1725 11.507,10.2905 11.522,10.4535 C11.546,10.5685 11.576,10.6705 11.627,10.8105 C11.684,10.9235 11.743,11.0215 11.835,11.1535 C11.915,11.2415 11.992,11.3175 12.107,11.4135 C12.212,11.4835 12.31,11.5385 12.451,11.6065 C12.566,11.6445 12.67,11.6715 12.819,11.6985 L13.028,11.7055 C13.212,11.7105 13.4,11.7375 13.596,11.7655 L13.702,11.7805 C13.973,11.8205 14.216,11.9125 14.439,12.0065 C15.015,12.2495 15.471,12.5695 15.796,12.9575 C16.224,13.4735 16.489,13.9595 16.631,14.4865 C16.778,15.0345 16.791,15.6225 16.67,16.2835 C16.619,16.5545 16.509,16.8135 16.372,17.1215 C16.296,17.2915 16.212,17.4375 16.116,17.5675 C15.71,18.1175 15.324,18.4775 14.866,18.7365 C14.712,18.8235 14.547,18.9025 14.376,18.9685 L14.135,19.0635 L14.135,20.2235 C14.135,20.5155 14.02,20.7895 13.794,21.0385 C13.554,21.2975 13.181,21.3515 12.98,21.3605 C12.727,21.3805 12.392,21.2285 12.193,21.0285 Z" id="Combined-Shape"></path>
                        </g>
                    </g>
                </g>
            </g>
        </g>
    </g>
</svg>