<?xml version="1.0" encoding="UTF-8"?>
<svg width="20px" height="20px" viewBox="0 0 20 20" version="1.1" xmlns="http://www.w3.org/2000/svg" xmlns:xlink="http://www.w3.org/1999/xlink">
    <!-- Generator: Sketch 53 (72520) - https://sketchapp.com -->
    <title>noun_menu_416060_000000 copy</title>
    <desc>Created with Sketch.</desc>
    <g id="Page-1" stroke="none" stroke-width="1" fill="none" fill-rule="evenodd">
        <g id="Merchant-Portal---Dashboard-V3" transform="translate(-92.000000, -807.000000)" fill="#B0ACBE" fill-rule="nonzero">
            <g id="Group-11" transform="translate(50.000000, 632.000000)">
                <g id="Group-14" transform="translate(25.000000, 140.000000)">
                    <g id="Group-15" transform="translate(2.000000, 20.000000)">
                        <g id="noun_menu_416060_000000-copy" transform="translate(15.000000, 15.000000)">
                            <path d="M13.9393333,13.0302222 C14.4362222,13.0302222 14.8484444,13.4424444 14.8484444,13.9393333 C14.8484444,14.4484444 14.4362222,14.8484444 13.9393333,14.8484444 L6.06066667,14.8484444 C5.56377778,14.8484444 5.15155556,14.4484444 5.15155556,13.9393333 C5.15155556,13.4424444 5.56377778,13.0302222 6.06066667,13.0302222 L13.9393333,13.0302222 Z" id="Shape"></path>
                            <path d="M13.9393333,9.09088889 C14.4362222,9.09088889 14.8484444,9.50311111 14.8484444,10 C14.8484444,10.5091111 14.4362222,10.9091111 13.9393333,10.9091111 L6.06066667,10.9091111 C5.56377778,10.9091111 5.15155556,10.5091111 5.15155556,10 C5.15155556,9.50311111 5.56377778,9.09088889 6.06066667,9.09088889 L13.9393333,9.09088889 Z" id="Shape"></path>
                            <path d="M13.9393333,5.15155556 C14.4362222,5.15155556 14.8484444,5.56377778 14.8484444,6.06066667 C14.8484444,6.56977778 14.4362222,6.96977778 13.9393333,6.96977778 L6.06066667,6.96977778 C5.56377778,6.96977778 5.15155556,6.56977778 5.15155556,6.06066667 C5.15155556,5.56377778 5.56377778,5.15155556 6.06066667,5.15155556 L13.9393333,5.15155556 L13.9393333,5.15155556 Z" id="Shape"></path>
                            <path d="M0,3.33333333 C0,1.49088889 1.49088889,0 3.33333333,0 L16.6666667,0 C18.5091111,0 20,1.49088889 20,3.33333333 L20,16.6666667 C20,18.5091111 18.5091111,20 16.6666667,20 L3.33333333,20 C1.49088889,20 0,18.5091111 0,16.6666667 L0,3.33333333 Z M3.33333333,18.1817778 L16.6666667,18.1817778 C17.5031111,18.1817778 18.1817778,17.5028889 18.1817778,16.6666667 L18.1817778,3.33333333 C18.1817778,2.49688889 17.5028889,1.81822222 16.6666667,1.81822222 L3.33333333,1.81822222 C2.49688889,1.81822222 1.81822222,2.49711111 1.81822222,3.33333333 L1.81822222,16.6666667 C1.81822222,17.5031111 2.49688889,18.1817778 3.33333333,18.1817778 Z" id="Shape"></path>
                        </g>
                    </g>
                </g>
            </g>
        </g>
    </g>
</svg>