<?xml version="1.0" encoding="UTF-8"?>
<svg width="24px" height="22px" viewBox="0 0 24 22" version="1.1" xmlns="http://www.w3.org/2000/svg" xmlns:xlink="http://www.w3.org/1999/xlink">
    <!-- Generator: Sketch 52.4 (67378) - http://www.bohemiancoding.com/sketch -->
    <title>Shape</title>
    <desc>Created with Sketch.</desc>
    <g id="Page-1" stroke="none" stroke-width="1" fill="none" fill-rule="evenodd" stroke-linecap="round" stroke-linejoin="round">
        <g id="Merchant-Portal---Dashboard-V2" transform="translate(-894.000000, -780.000000)" fill-rule="nonzero" stroke="#B0ACBE" stroke-width="2">
            <g id="Group-24" transform="translate(854.000000, 746.000000)">
                <g id="Group-14" transform="translate(25.000000, 0.000000)">
                    <g id="Group-15" transform="translate(2.000000, 20.000000)">
                        <path d="M14,34.977919 C16.4424538,34.977919 18.832132,35.0038335 21.2006999,34.9995144 L21.2175881,34.9995144 C22.8114106,34.9995144 24.3841228,34.9800786 25.9758343,34.9347282 C27.1685624,34.9001756 28.416177,34.5028201 29.5223532,33.9931685 C32.9675429,32.4339802 34.8611307,29.3587944 35.0257905,26.1993865 C35.0637889,25.9229653 35.0891212,25.6451044 35.1017873,25.3658038 C35.3508881,19.8568157 30.5736427,15.0000089 24.9688762,15.0000089 C21.2896121,14.9950868 17.8968356,17.0307509 16.1052249,20.3181951 C14.3136142,23.6056393 14.4047186,27.6282459 16.3432357,30.827282 C16.3264548,30.9881298 16.2798866,31.1442375 16.2060192,31.2872641 C15.5262697,32.4987664 14.7874116,33.6735565 14,34.977919 Z" id="Shape" transform="translate(24.555556, 25.000000) scale(-1, 1) translate(-24.555556, -25.000000) "></path>
                    </g>
                </g>
            </g>
        </g>
    </g>
</svg>