<?xml version="1.0" encoding="UTF-8"?>
<svg width="19px" height="24px" viewBox="0 0 19 24" version="1.1" xmlns="http://www.w3.org/2000/svg" xmlns:xlink="http://www.w3.org/1999/xlink">
    <!-- Generator: Sketch 53 (72520) - https://sketchapp.com -->
    <title>noun_Incoming Call_1097066_000000</title>
    <desc>Created with Sketch.</desc>
    <g id="Page-1" stroke="none" stroke-width="1" fill="none" fill-rule="evenodd">
        <g id="Merchant-Portal---Dashboard-V3" transform="translate(-94.000000, -715.000000)" fill="#B0ACBE" fill-rule="nonzero">
            <g id="Group-11" transform="translate(50.000000, 632.000000)">
                <g id="Group-14" transform="translate(25.000000, 50.000000)">
                    <g id="Group-15" transform="translate(2.000000, 20.000000)">
                        <g id="noun_Incoming-Call_1097066_000000" transform="translate(17.000000, 13.000000)">
                            <path d="M15,15 C14.4,15 14,15.4 14,16 L14,18 L2,18 L2,6 L14,6 L14,8 C14,8.6 14.4,9 15,9 C15.6,9 16,8.6 16,8 L16,3 C16,1.3 14.7,0 13,0 L3,0 C1.3,0 0,1.3 0,3 L0,21 C0,22.7 1.3,24 3,24 L13,24 C14.7,24 16,22.7 16,21 L16,16 C16,15.4 15.6,15 15,15 Z M3,2 L13,2 C13.6,2 14,2.4 14,3 L14,4 L2,4 L2,3 C2,2.4 2.4,2 3,2 Z M13,22 L3,22 C2.4,22 2,21.6 2,21 L2,20 L14,20 L14,21 C14,21.6 13.6,22 13,22 Z" id="Shape"></path>
                            <path d="M18,11 L11.4,11 L11.7,10.7 C12.1,10.3 12.1,9.7 11.7,9.3 C11.3,8.9 10.7,8.9 10.3,9.3 L8.3,11.3 C7.9,11.7 7.9,12.3 8.3,12.7 L10.3,14.7 C10.7,15.1 11.3,15.1 11.7,14.7 C12.1,14.3 12.1,13.7 11.7,13.3 L11.4,13 L18,13 C18.6,13 19,12.6 19,12 C19,11.4 18.6,11 18,11 Z" id="Shape"></path>
                        </g>
                    </g>
                </g>
            </g>
        </g>
    </g>
</svg>