<?xml version="1.0" encoding="UTF-8"?>
<svg width="144px" height="144px" viewBox="0 0 144 144" version="1.1" xmlns="http://www.w3.org/2000/svg" xmlns:xlink="http://www.w3.org/1999/xlink">
    <!-- Generator: Sketch 55.2 (78181) - https://sketchapp.com -->
    <title>declined</title>
    <desc>Created with Sketch.</desc>
    <g id="Page-1" stroke="none" stroke-width="1" fill="none" fill-rule="evenodd">
        <g id="declined" transform="translate(2.000000, 2.000000)">
            <circle id="Oval" stroke="#3989E3" stroke-width="4" cx="70" cy="70" r="70"></circle>
            <g id="noun_SMS_1429551" transform="translate(29.000000, 30.000000)" fill="#3989E3" fill-rule="nonzero">
                <path d="M11.2239479,64.6157385 L15.7346559,64.6157385 C15.9896052,66.2338448 15.8557807,67.8904353 15.3445406,69.4449056 C14.8665029,70.8342618 15.2722619,72.3787396 16.3685933,73.3428512 C17.4483358,74.2990988 18.9937554,74.4917093 20.2697462,73.8290642 C20.7898999,73.5653554 21.3344358,73.2439604 21.8952265,72.8978426 C22.8903955,73.7154301 24.0216235,74.3461545 25.2355887,74.7602859 C38.6886289,79.3052568 53.2322981,79.3052568 66.6853383,74.7602859 C71.0446949,73.3090962 73.9938988,69.185682 74.0000029,64.5333295 L74.0000029,13.6210516 C73.9938988,8.96869906 71.0446949,4.84528482 66.6853383,3.39409513 C53.2291836,-1.13136504 38.6917435,-1.13136504 25.2355887,3.39409513 C20.8762322,4.84528482 17.9270282,8.96869906 17.920927,13.6210516 L17.920927,25.7516558 L11.2239479,25.7516558 C5.02699352,25.7562008 0.00448831366,30.8488445 2.9387802e-06,37.1323382 L2.9387802e-06,53.2185743 C-0.00215041542,56.2391048 1.17915744,59.1367907 3.28405504,61.2741737 C5.38895265,63.4115568 8.24501762,64.6135536 11.2239479,64.6157385 Z M21.9765006,13.6210516 C21.983794,10.7423009 23.8125802,8.19343496 26.5115908,7.30028155 C39.1266986,3.06179342 52.7535914,3.06179342 65.3686992,7.30028155 C68.0677098,8.19343496 69.8964961,10.7423009 69.9037895,13.6210516 L69.9037895,64.5168477 C69.8964961,67.3955983 68.0677098,69.9444643 65.3686992,70.8376177 C52.7535914,75.0761058 39.1266986,75.0761058 26.5115908,70.8376177 C26.0814787,70.6885499 25.6675354,70.4952559 25.2762257,70.2607547 C26.9455059,68.6728072 28.2711965,66.7505119 29.1692512,64.6157385 L32.623397,64.6157385 C35.3149599,64.6061224 37.9125345,63.6111126 39.9380587,61.8138326 L60.8092267,61.8138326 C63.2088081,61.7821623 65.1312117,59.7886952 65.1086223,57.3555059 L65.1086223,18.4667005 C65.1312117,16.0335112 63.2088081,14.0400442 60.8092267,14.0083738 L31.0629359,14.0083738 C28.6633546,14.0400442 26.740951,16.0335112 26.7635403,18.4667005 L26.7635403,25.735174 L21.9765006,25.735174 L21.9765006,13.6210516 Z M32.623397,25.7516558 L30.8272412,25.7516558 L30.8272412,18.4667005 C30.8272412,18.268919 30.9572796,18.1288237 31.0629359,18.1288237 L60.8092267,18.1288237 C60.9230104,18.1288237 61.0449214,18.268919 61.0449214,18.4667005 L61.0449214,57.3307832 C61.0449214,57.5285648 60.914883,57.6686601 60.8092267,57.6686601 L42.9289426,57.6686601 C43.5204953,56.261807 43.8246252,54.7479562 43.8229568,53.2185743 L43.8229568,37.1323382 C43.8185056,30.8584768 38.8108274,25.769813 32.623397,25.7516558 Z M4.06370221,37.1323382 C4.06818574,33.1245051 7.27131265,29.8766471 11.2239479,29.8721056 L32.623397,29.8721056 C36.5760323,29.8766471 39.7791592,33.1245051 39.7836427,37.1323382 L39.7836427,53.2185743 C39.7857948,55.1462937 39.0326258,56.9959273 37.6898199,58.3605762 C36.3470139,59.7252251 34.5245669,60.4931043 32.623397,60.4952886 L27.7469559,60.4952886 C26.858066,60.4934318 26.0711725,61.0776553 25.8045069,61.9374461 C24.7226038,65.1771821 22.4923013,67.8938571 19.5464074,69.5602782 C20.1049702,67.0717982 20.0322683,64.480356 19.335095,62.028096 C19.0996267,61.1265183 18.2961987,60.497786 17.3763911,60.4952886 L11.2239479,60.4952886 C9.32277799,60.4931043 7.50033099,59.7252251 6.15752504,58.3605762 C4.8147191,56.9959273 4.06155008,55.1462937 4.06370221,53.2185743 L4.06370221,37.1323382 Z" id="Shape"></path>
                <path d="M48.0739437,65.6619718 L42.6021127,65.6619718 C41.5228238,65.6619718 40.6478873,66.5952374 40.6478873,67.7464789 C40.6478873,68.8977203 41.5228238,69.8309859 42.6021127,69.8309859 L48.0739437,69.8309859 C49.1532325,69.8309859 50.028169,68.8977203 50.028169,67.7464789 C50.028169,66.5952374 49.1532325,65.6619718 48.0739437,65.6619718 Z" id="Path"></path>
                <path d="M21.8628212,46.9012603 C23.0116863,46.9148168 23.9548819,45.9961176 23.9716056,44.8472445 C23.9883293,43.6983714 23.0722741,42.7526054 21.9235011,42.7327132 C20.7747282,42.7128209 19.8264808,43.6263045 19.803422,44.775068 C19.7899955,45.3314363 20.0004915,45.8699022 20.3876806,46.2696491 C20.7748697,46.6693961 21.3063316,46.8969522 21.8628212,46.9012603 L21.8628212,46.9012603 Z" id="Path"></path>
                <path d="M12.5070507,46.9014085 C13.6582875,46.9014085 14.5915493,45.9681298 14.5915493,44.816893 C14.5915493,43.6656562 13.6582875,42.7323944 12.5070507,42.7323944 C11.3558139,42.7323944 10.4225352,43.6656562 10.4225352,44.816893 C10.4203246,45.3704163 10.6392254,45.9019118 11.0306286,46.2933151 C11.4220318,46.6847183 11.9535274,46.9036191 12.5070507,46.9014085 L12.5070507,46.9014085 Z" id="Path"></path>
                <path d="M30.2253605,46.9014085 C31.3765973,46.9014085 32.3098592,45.9681298 32.3098592,44.816893 C32.3098592,43.6656562 31.3765973,42.7323944 30.2253605,42.7323944 C29.0741237,42.7323944 28.1408451,43.6656562 28.1408451,44.816893 C28.1386344,45.3704163 28.3575352,45.9019118 28.7489385,46.2933151 C29.1403417,46.6847183 29.6718373,46.9036191 30.2253605,46.9014085 L30.2253605,46.9014085 Z" id="Path"></path>
            </g>
        </g>
    </g>
</svg>