<?xml version="1.0" encoding="UTF-8"?>
<svg width="39px" height="45px" viewBox="0 0 39 45" version="1.1" xmlns="http://www.w3.org/2000/svg" xmlns:xlink="http://www.w3.org/1999/xlink">
    <!-- Generator: Sketch 52.4 (67378) - http://www.bohemiancoding.com/sketch -->
    <title>Group 6</title>
    <desc>Created with Sketch.</desc>
    <g id="Page-1" stroke="none" stroke-width="1" fill="none" fill-rule="evenodd">
        <g id="Merchant-Portal---Dashboard-V2" transform="translate(-1171.000000, -116.000000)" fill="#3F556E">
            <g id="Group-6" transform="translate(1171.000000, 116.000000)">
                <path d="M5.86995,16.1415 C5.86995,8.85975 11.7942,2.93475 19.0767,2.93475 C26.3592,2.93475 32.28345,8.859 32.28345,16.1415 C32.28345,23.424 26.3592,29.3475 19.0767,29.3475 C11.7942,29.3475 5.86995,23.42325 5.86995,16.1415 M38.0637,39.0165 L32.81745,24.60075 C34.33845,22.13925 35.21745,19.24125 35.21745,16.1415 C35.2182,7.24125 27.97695,0 19.0767,0 C10.17645,0 2.9352,7.24125 2.9352,16.1415 C2.9352,19.24125 3.8142,22.13925 5.3352,24.60075 L0.08895,39.0165 C-0.1143,39.57375 0.03795,40.19925 0.47595,40.59975 C0.9147,41.001 1.55295,41.09925 2.0877,40.848 L8.2812,37.95975 L11.16945,44.1525 C11.41095,44.6715 11.9307,45 12.4992,45 C12.5202,45 12.5412,44.99925 12.56295,44.9985 C13.1562,44.973 13.6752,44.592 13.8777,44.03475 L18.1647,32.25675 C18.46695,32.274 18.7707,32.283 19.0767,32.283 C19.3827,32.283 19.68645,32.27325 19.9887,32.25675 L24.2757,44.03475 C24.4782,44.592 24.99645,44.973 25.5897,44.9985 C25.6122,44.99925 25.6332,45 25.65345,45 C26.2227,45 26.74245,44.67075 26.98395,44.1525 L29.87145,37.95975 L36.0657,40.848 C36.60195,41.09925 37.23795,41.001 37.67745,40.59975 C38.1147,40.19925 38.2677,39.57375 38.0637,39.0165" id="Fill-1"></path>
                <text id="VIP" font-family="Roboto-Bold, Roboto" font-size="12" font-weight="bold">
                    <tspan x="9.95800781" y="20.5">VIP</tspan>
                </text>
            </g>
        </g>
    </g>
</svg>