<?xml version="1.0" encoding="UTF-8"?>
<svg width="164px" height="26px" viewBox="0 0 164 26" version="1.1" xmlns="http://www.w3.org/2000/svg" xmlns:xlink="http://www.w3.org/1999/xlink">
    <!-- Generator: Sketch 47 (45396) - http://www.bohemiancoding.com/sketch -->
    <title>Page 1</title>
    <desc>Created with Sketch.</desc>
    <defs>
        <polygon id="path-1" points="0.0123709091 0.00900686499 3.68582545 0.00900686499 3.68582545 3.55316064 0.0123709091 3.55316064 0.0123709091 0.00900686499"></polygon>
        <polygon id="path-3" points="0 3.55974371 0 0.0144805492 3.57381091 0.0144805492 3.57381091 3.55974371"></polygon>
    </defs>
    <g id="Symbols" stroke="none" stroke-width="1" fill="none" fill-rule="evenodd">
        <g id="Header---Mobile" transform="translate(-20.000000, -12.000000)">
            <g id="Group">
                <g id="Page-1" transform="translate(20.000000, 12.500000)">
                    <g id="Group-3" transform="translate(10.981818, 0.027606)">
                        <mask id="mask-2" fill="white">
                            <use xlink:href="#path-1"></use>
                        </mask>
                        <g id="Clip-2"></g>
                        <path d="M1.84728,0.00899588101 C1.99709818,0.458240732 2.13746182,0.910414645 2.28291636,1.36112403 C2.75055273,1.36258856 3.21818909,1.36075789 3.68582545,1.36185629 C3.30837091,1.64158169 2.92982545,1.91984256 2.55273455,2.19920183 C2.69709818,2.65064348 2.84218909,3.10171899 2.98618909,3.55316064 C2.60509818,3.2752659 2.22837091,2.99151304 1.84546182,2.71654737 C1.46946182,2.9977373 1.09018909,3.27453364 0.712370909,3.55279451 C0.855643636,3.10135286 1.00109818,2.65027735 1.14546182,2.19920183 C0.768007273,1.91947643 0.389461818,1.64194783 0.0123709091,1.36185629 C0.480007273,1.36075789 0.947643636,1.36258856 1.41528,1.36112403 C1.55855273,0.910048513 1.70473455,0.460071396 1.84728,0.00899588101" id="Fill-1" fill="#002248" mask="url(#mask-2)"></path>
                    </g>
                    <path d="M6.89346182,1.25801739 C7.11673455,1.14378398 7.34218909,1.03357803 7.57273455,0.934722197 C7.62146182,1.08593501 7.66946182,1.23788009 7.71855273,1.38909291 C8.18582545,1.38945904 8.65309818,1.38872677 9.12073455,1.38945904 C8.74364364,1.66955057 8.36509818,1.94744531 7.98764364,2.22680458 C8.13164364,2.67788009 8.27746182,3.12858947 8.42037091,3.58039725 C8.04109818,3.30213638 7.66328,3.02204485 7.28400727,2.74378398 C6.90473455,3.02204485 6.52728,3.30250252 6.14728,3.58003112 C6.29091636,3.12858947 6.43600727,2.67751396 6.58037091,2.22643844 C6.37855273,2.07742243 6.17673455,1.92804027 5.97455273,1.77975652 C6.17528,1.65563753 6.37818909,1.535546 6.58509818,1.42167872 C6.66400727,1.37298307 6.76073455,1.3934865 6.84909818,1.38836064 C6.86364364,1.34479085 6.87855273,1.30158719 6.89346182,1.25801739" id="Fill-4" fill="#002248"></path>
                    <path d="M33.1258109,2.47760549 C33.7654473,2.47833776 34.4054473,2.47833776 35.0454473,2.47797162 C35.0443564,8.6337611 35.0450836,14.7895506 35.0450836,20.94534 L33.1258109,20.94534 C33.1258109,14.7895506 33.1265382,8.6337611 33.1258109,2.47760549" id="Fill-6" fill="#002248"></path>
                    <path d="M72.2505455,9.36566041 C71.2861818,9.47476796 70.356,9.90753684 69.6723636,10.6050197 C68.8596364,11.4203973 68.4178182,12.5539442 68.3112727,13.6922508 C68.1789091,14.9674911 68.4018182,16.3111982 69.0949091,17.4022737 C69.6861818,18.3476284 70.6392727,19.0604888 71.7185455,19.3306947 C72.724,19.5943103 73.8192727,19.4760494 74.7498182,19.0132577 C75.6370909,18.5826856 76.3741818,17.8577428 76.8436364,16.9881776 C77.3516364,16.0563698 77.5472727,14.9678572 77.4603636,13.9126627 C77.3832727,12.9028686 77.0181818,11.9095506 76.3883636,11.116141 C75.7974545,10.3600769 74.9738182,9.79000824 74.0574545,9.51614096 C73.4741818,9.33636979 72.8549091,9.30122105 72.2505455,9.36566041 M77.4072727,10.3571478 C77.4090909,7.73051167 77.4076364,5.10387551 77.4076364,2.47723936 C78.048,2.47943616 78.688,2.47760549 79.3283636,2.47833776 L79.3283636,20.94534 C78.688,20.9449739 78.048,20.9457062 77.4076364,20.9449739 C77.4076364,20.0688183 77.4087273,19.1922966 77.4072727,18.316141 C76.8989091,19.0689098 76.2898182,19.7660265 75.5389091,20.2811753 C74.6698182,20.890054 73.6134545,21.2107863 72.5563636,21.2159121 C71.3352727,21.237514 70.1130909,20.8625941 69.1043636,20.1709693 C68.2483636,19.5891844 67.5494545,18.7807634 67.0796364,17.8559121 C66.3967273,16.5158664 66.1923636,14.9634636 66.3516364,13.4762325 C66.4778182,12.3060723 66.8712727,11.1564156 67.5498182,10.1931204 C68.2276364,9.21774279 69.1912727,8.44739954 70.2898182,8.00804027 C71.5338182,7.50460778 72.9490909,7.44566041 74.2290909,7.84840641 C75.1010909,8.12556888 75.8938182,8.63595789 76.532,9.29316613 C76.8596364,9.61609519 77.1418182,9.98186178 77.4072727,10.3571478" id="Fill-8" fill="#002248"></path>
                    <path d="M82.8061964,2.85178581 C83.5378327,2.85178581 84.2694327,2.85141968 85.0010691,2.85178581 C85.0010691,3.56977208 85.0018327,4.28775835 85.0007418,5.00537849 C84.2687418,5.00428009 83.5371055,5.00574462 82.8057964,5.00464622 C82.80656,4.28702609 82.8054327,3.56940595 82.8061964,2.85178581" id="Fill-10" fill="#002248"></path>
                    <path d="M7.27709091,5.22580137 C7.32254545,5.29463432 7.34036364,5.37628192 7.36581818,5.45390206 C7.48254545,5.82076705 7.60036364,6.1872659 7.71818182,6.55413089 C8.18581818,6.55449703 8.65345455,6.55303249 9.12145455,6.55449703 C8.74436364,6.83495469 8.36509091,7.11284943 7.98763636,7.39294096 C8.132,7.84401648 8.27709091,8.29509199 8.42109091,8.74653364 C8.04181818,8.46790664 7.66290909,8.18854737 7.284,7.90955423 C6.90509091,8.1878151 6.52727273,8.46827277 6.14727273,8.74580137 C6.29054545,8.29435973 6.43636364,7.84365034 6.58036364,7.39257483 C6.20254545,7.11284943 5.82363636,6.83422243 5.44581818,6.55449703 C5.91381818,6.55303249 6.38181818,6.55486316 6.85018182,6.55376476 C6.99272727,6.1111103 7.132,5.66772357 7.27709091,5.22580137" id="Fill-12" fill="#002248"></path>
                    <path d="M12.3974582,6.5533913 C12.5414582,6.10231579 12.6850945,5.65087414 12.8320036,5.20089703 C12.9749127,5.65197254 13.1210945,6.10231579 13.2640036,6.5533913 C13.7323673,6.55522197 14.2007309,6.55302517 14.6690945,6.5544897 C14.2912764,6.8342151 13.9127309,7.11320824 13.5345491,7.39256751 C13.6785491,7.84400915 13.8240036,8.29471854 13.96764,8.74616018 C13.58764,8.46826545 13.2101855,8.18707551 12.8298218,7.90954691 C12.45164,8.18927231 12.0727309,8.46789931 11.6938218,8.74652632 C11.8374582,8.29471854 11.9832764,7.84400915 12.1272764,7.39256751 C11.7494582,7.11284211 11.3705491,6.83458124 10.9927309,6.5544897 C11.4610945,6.55265904 11.9294582,6.55522197 12.3974582,6.5533913" id="Fill-14" fill="#002248"></path>
                    <path d="M1.03236364,7.50973364 C1.28909091,6.91989382 1.59127273,6.35055744 1.93236364,5.80575195 C2.00981818,6.05582059 2.09236364,6.30405858 2.17054545,6.5537611 C2.63890909,6.5548595 3.10727273,6.55339497 3.57563636,6.55449336 C3.19781818,6.83421876 2.81854545,7.11247963 2.44072727,7.39257117 C2.58509091,7.84401281 2.73054545,8.29508833 2.87418182,8.74652998 C2.49563636,8.46753684 2.11636364,8.19000824 1.73890909,7.9099167 C1.35781818,8.18671304 0.98,8.46826911 0.6,8.74689611 C0.735636364,8.3317016 0.855272727,7.9099167 1.03236364,7.50973364" id="Fill-16" fill="#002248"></path>
                    <path d="M43.5465527,9.25619405 C42.7454618,9.34260137 41.9818255,9.70360824 41.3894618,10.2506105 C40.4341891,11.1253016 39.9090982,12.4020064 39.7923709,13.6816403 C42.5600073,13.6823725 45.3276436,13.6816403 48.09528,13.6820064 C48.0174618,12.7553245 47.7640073,11.8293748 47.2683709,11.038162 C46.9036436,10.4549126 46.3949164,9.95550755 45.7810982,9.64429474 C45.0967345,9.29207506 44.3065527,9.17784165 43.5465527,9.25619405 M41.1985527,8.29692632 C42.6669164,7.48923753 44.4709164,7.37500412 46.0494618,7.90955789 C47.2203709,8.30534737 48.2269164,9.13500412 48.88728,10.1814114 C49.71128,11.4694664 50.0454618,13.0207341 50.0494618,14.5387204 C50.0538255,14.7342719 50.0349164,14.9290178 50.0203709,15.1238371 L39.7927345,15.1238371 C39.9007345,16.3690545 40.4221891,17.6106105 41.3680073,18.4428302 C41.9069164,18.9253931 42.5701891,19.261503 43.2723709,19.424432 C44.1141891,19.6184824 45.0025527,19.5723497 45.8330982,19.3438828 C46.8283709,19.0681849 47.6981891,18.4475899 48.3974618,17.6951872 C48.7970982,18.0605876 49.1989164,18.4234252 49.5996436,18.7873245 C49.0720073,19.3793977 48.4810982,19.9223359 47.7996436,20.3298783 C46.5661891,21.0830133 45.0789164,21.336011 43.6545527,21.2133565 C42.2301891,21.0862719 40.8450982,20.4664458 39.8280073,19.4500613 C38.8410982,18.4951872 38.2080073,17.2023359 37.9669164,15.8520384 C37.69128,14.2868211 37.8603709,12.6264458 38.53928,11.1835167 C39.1010982,9.97637712 40.0298255,8.93326499 41.1985527,8.29692632" id="Fill-18" fill="#002248"></path>
                    <path d="M57.7952727,7.68400549 C58.5516364,7.54157986 59.3341818,7.55183158 60.0887273,7.6997492 C60.8767273,7.85718627 61.6345455,8.20574462 62.2356364,8.74725492 C63.1265455,9.5381016 63.6221818,10.6994746 63.7669091,11.8707332 C63.8232727,12.3056989 63.8356364,12.7457904 63.8309091,13.1840513 L63.8309091,20.9453327 L61.9036364,20.9453327 C61.9029091,18.4069346 61.9054545,15.8681703 61.9021818,13.3297721 C61.9047273,12.4675295 61.7461818,11.5763625 61.2818182,10.8382389 C60.9596364,10.3164998 60.4745455,9.9016714 59.9134545,9.66038993 C59.2705455,9.38652265 58.5541818,9.31000092 57.8632727,9.38432586 C57.1109091,9.46267826 56.3774545,9.76363936 55.8050909,10.2648751 C55.0916364,10.8785135 54.6545455,11.7770032 54.524,12.7051497 C54.4523636,13.1416165 54.4752727,13.5849666 54.472,14.0250581 C54.4723636,16.3316943 54.4716364,18.6383304 54.4723636,20.9449666 C53.8294545,20.9456989 53.1869091,20.9449666 52.544,20.9453327 C52.544,16.5835936 52.5447273,12.2218545 52.5436364,7.86011533 C53.1865455,7.86048146 53.8294545,7.86121373 54.4723636,7.8597492 C54.4727273,8.61288421 54.4701818,9.36601922 54.4734545,10.1191542 C54.8472727,9.50807872 55.3130909,8.94606499 55.8883636,8.51732357 C56.4490909,8.09627094 57.1087273,7.81398261 57.7952727,7.68400549" id="Fill-20" fill="#002248"></path>
                    <path d="M93.4694436,7.73307826 C94.2392982,7.55074416 95.0443891,7.54049245 95.8236255,7.66900503 C96.4734436,7.77884485 97.1068982,8.0098746 97.6578436,8.37783799 C98.2527164,8.76996613 98.7392982,9.32099588 99.0745709,9.95147643 C99.4538073,10.6614078 99.6498073,11.4610416 99.7062073,12.26214 C99.7399891,12.6052064 99.7247527,12.9501034 99.7283527,13.2942682 L99.7283527,20.9453437 C99.0880255,20.9449776 98.4476255,20.9457098 97.8076618,20.9449776 C97.8083527,18.4680897 97.8076618,15.9912018 97.8080255,13.5146801 C97.8116255,12.7234673 97.7232618,11.911751 97.37708,11.1912018 C97.08948,10.5793941 96.6083527,10.0554581 96.0043527,9.75156796 C95.2952618,9.38873043 94.4716618,9.29829565 93.6887164,9.39202563 C92.8767164,9.49381053 92.0912982,9.85481739 91.5148982,10.4442911 C90.7789345,11.1780211 90.40148,12.2236961 90.3767164,13.2554581 C90.3760255,15.8187533 90.3763527,18.3820485 90.3763527,20.9453437 L88.4425709,20.9453437 C88.4425709,16.5836046 88.4429345,12.2218654 88.4425709,7.86012632 C89.0868982,7.86049245 89.7316255,7.86049245 90.3763527,7.86012632 C90.3763527,8.61326133 90.3760255,9.36603021 90.3767164,10.1191652 C90.6880255,9.60291808 91.0679891,9.12621327 91.5232618,8.7315222 C92.0785345,8.24603021 92.7538073,7.90296384 93.4694436,7.73307826" id="Fill-22" fill="#002248"></path>
                    <path d="M108.176367,9.32831121 C107.257458,9.40995881 106.352367,9.75412357 105.646913,10.359341 C105.092731,10.8279908 104.67164,11.4522471 104.434913,12.1405767 C103.961458,13.531881 104.127276,15.1651991 104.992004,16.3690435 C105.412367,16.9618124 105.988004,17.4396156 106.640731,17.7530252 C108.604004,18.707167 111.181458,18.0997529 112.510913,16.3573272 C113.373822,15.2523387 113.604004,13.7065263 113.164004,12.3800275 C112.953458,11.7279451 112.572367,11.1355423 112.081458,10.6617666 C111.056731,9.66881465 109.584367,9.19796796 108.176367,9.32831121 M104.86364,8.61837986 C106.11964,7.77114874 107.690549,7.42881465 109.184367,7.64556522 C110.068731,7.76345995 110.926549,8.08748741 111.66364,8.5953135 C112.301822,9.02588558 112.840367,9.58972998 113.306185,10.2011716 C113.309458,9.42094279 113.307276,8.64034783 113.30764,7.86011899 C113.947276,7.86048513 114.586913,7.86085126 115.226913,7.85975286 C115.226185,11.3189748 115.226913,14.7778307 115.226549,18.2370526 C115.222549,18.6372357 115.240367,19.0392494 115.199276,19.4383341 C115.140367,20.1782883 114.985095,20.9145812 114.700004,21.6003478 C114.44364,22.2125217 114.081822,22.7829565 113.617822,23.2567323 C113.128367,23.7627277 112.530549,24.1566865 111.887276,24.4353135 C111.209822,24.7274874 110.485095,24.8977391 109.754185,24.9782883 C108.104367,25.1452449 106.410185,24.9431396 104.864004,24.3309657 C104.134185,24.0435515 103.439276,23.6664348 102.798185,23.2131625 C103.090913,22.7057025 103.384367,22.1986453 103.674549,21.6893181 C104.81564,22.5438719 106.168004,23.1231304 107.583276,23.2962746 C108.430549,23.3987918 109.300367,23.3958627 110.133822,23.1941236 C110.773822,23.0385172 111.390185,22.7554966 111.894549,22.3245584 C112.468731,21.8423616 112.872004,21.1738032 113.090185,20.4576476 C113.421458,19.3969611 113.31964,18.2732998 113.333095,17.1789291 C112.89564,17.758151 112.404004,18.3018581 111.824367,18.7404851 C111.300731,19.1439634 110.709095,19.4595698 110.079276,19.6576476 C108.628367,20.1109199 107.013822,19.9886316 105.638185,19.344238 C104.471276,18.8041922 103.481822,17.8764119 102.890185,16.7260229 C102.530549,16.0358627 102.316367,15.2732082 102.237458,14.4992037 C102.149095,13.526389 102.231276,12.5290435 102.55564,11.6045584 C102.972367,10.38973 103.797458,9.32428375 104.86364,8.61837986" id="Fill-24" fill="#002248"></path>
                    <path d="M82.9218218,7.86049245 C83.5665491,7.86012632 84.2109127,7.86049245 84.85564,7.86049245 C84.85564,12.2218654 84.8560036,16.5836046 84.85564,20.9453437 L82.9218218,20.9453437 L82.9218218,7.86049245 Z" id="Fill-26" fill="#002248"></path>
                    <g id="Group-30" transform="translate(0.000000, 10.352549)">
                        <mask id="mask-4" fill="white">
                            <use xlink:href="#path-3"></use>
                        </mask>
                        <g id="Clip-29"></g>
                        <path d="M1.30617455,1.36404577 C1.44653818,0.913336384 1.59272,0.464091533 1.73744727,0.0144805492 C1.88217455,0.465556064 2.02653818,0.916631579 2.17126545,1.36770709 C2.63890182,1.36880549 3.10617455,1.36734096 3.57381091,1.36843936 C3.19672,1.64853089 2.81817455,1.92642563 2.44072,2.2057849 C2.58435636,2.65722654 2.73053818,3.10830206 2.87417455,3.55974371 C2.49417455,3.28148284 2.11635636,3.00029291 1.73562909,2.7227643 C1.35781091,3.00285584 0.979265455,3.2811167 0.599992727,3.55937757 C0.744356364,3.10830206 0.887992727,2.65759268 1.03381091,2.20724943 C0.695265455,1.94839359 0.341447273,1.70784439 0.00981090909,1.44093364 C0.00726545455,1.42299314 0.00253818182,1.386746 -7.27272727e-06,1.36880549 C0.435629091,1.36477803 0.870901818,1.37356522 1.30617455,1.36404577" id="Fill-28" fill="#002248" mask="url(#mask-4)"></path>
                    </g>
                    <path d="M7.27962909,10.387167 C7.44581091,10.8235973 7.56835636,11.2776018 7.71853818,11.7206224 C8.18581091,11.7209886 8.65308364,11.7202563 9.12035636,11.7209886 C8.74399273,12.0018124 8.36472,12.2789748 7.98762909,12.5583341 C8.13126545,13.0094096 8.27744727,13.4597529 8.41999273,13.9111945 C8.04035636,13.634032 7.66290182,13.3532082 7.28399273,13.0753135 C6.90472,13.353611 6.52726545,13.634032 6.14762909,13.9111945 C6.29053818,13.460119 6.43599273,13.0094096 6.58072,12.5587002 C6.20326545,12.2789748 5.82435636,12.0010801 5.44726545,11.7209886 C5.91453818,11.7202563 6.38217455,11.7209886 6.84981091,11.7206224 C6.99381091,11.2765034 7.13199273,10.8301876 7.27962909,10.387167" id="Fill-31" fill="#002248"></path>
                    <path d="M12.8298255,10.3670371 C12.9767345,10.8166481 13.1203709,11.2673574 13.26328,11.718433 C13.73128,11.7239249 14.1996436,11.7191652 14.6680073,11.7209959 C14.2909164,12.0014535 13.9120073,12.278616 13.5349164,12.5583414 C13.6785527,13.0097831 13.8243709,13.4608586 13.9680073,13.9123002 C13.5901891,13.6333071 13.2098255,13.3579387 12.8349164,13.0756503 C12.4516436,13.3502499 12.0749164,13.6347716 11.6938255,13.9123002 C11.8378255,13.4608586 11.9829164,13.0097831 12.12728,12.5583414 C11.7498255,12.278616 11.3709164,12.0010874 10.9938255,11.7209959 C11.4618255,11.7191652 11.9301891,11.7239249 12.3985527,11.718433 C12.5403709,11.2673574 12.68728,10.8177465 12.8298255,10.3670371" id="Fill-33" fill="#002248"></path>
                    <path d="M18.0530873,1.04711396 C18.5730873,1.28656476 19.0738145,1.56738856 19.55636,1.87567231 C19.3981782,1.99283478 19.2392691,2.10926499 19.0814509,2.22679359 C19.2254509,2.67786911 19.3709055,3.12857849 19.5145418,3.58002014 C19.1341782,3.30285767 18.7567236,3.0213016 18.3770873,2.743773 C17.9985418,3.02276613 17.62036,3.3021254 17.2414509,3.58002014 C17.3832691,3.12821236 17.5305418,2.67823524 17.6738145,2.22679359 C17.2967236,1.94743432 16.9181782,1.66990572 16.5421782,1.38981419 C17.0087236,1.38834966 17.4756327,1.38944805 17.9429055,1.38908192 C17.9799964,1.27521465 18.01636,1.16098124 18.0530873,1.04711396" id="Fill-35" fill="#D82028"></path>
                    <path d="M18.296,5.45390206 C18.3210909,5.37701419 18.3378182,5.29463432 18.3854545,5.22763204 C18.5298182,5.66882197 18.6690909,6.11184256 18.8116364,6.55376476 C19.2796364,6.55449703 19.7472727,6.55303249 20.2149091,6.55449703 C19.8381818,6.83532082 19.4592727,7.11284943 19.0814545,7.39257483 C19.2250909,7.84365034 19.3712727,8.29399359 19.5141818,8.74543524 C19.1341818,8.4686389 18.7567273,8.1878151 18.3774545,7.90955423 C17.9985455,8.18854737 17.62,8.46790664 17.2407273,8.74689977 C17.384,8.29509199 17.5298182,7.84438261 17.6741818,7.39294096 C17.2967273,7.1124833 16.9170909,6.83568696 16.5403636,6.55449703 C17.008,6.55303249 17.4756364,6.55413089 17.9432727,6.55376476 C18.0610909,6.1872659 18.1785455,5.82076705 18.296,5.45390206" id="Fill-37" fill="#D82028"></path>
                    <path d="M136.206905,6.13051533 C137.119269,5.85884485 138.085087,5.82735744 139.027305,5.92035515 C140.662215,6.07120183 142.248396,6.71559542 143.521124,7.76163661 C142.963996,8.58506911 142.40036,9.40410801 141.845487,10.2286389 C141.214542,9.79037803 140.548396,9.39458856 139.829815,9.12072128 C139.238905,8.89371899 138.609451,8.75532082 137.975669,8.76081281 C137.520724,8.77289519 137.047269,8.852346 136.66436,9.11413089 C136.379996,9.30451991 136.174905,9.62049245 136.153451,9.96758627 C136.134178,10.2377922 136.166905,10.5259387 136.312033,10.7606297 C136.501815,11.0535359 136.817451,11.2285474 137.127633,11.3669455 C137.694178,11.6111561 138.291633,11.7707899 138.885451,11.933719 C139.725087,12.1504696 140.565451,12.38333 141.359633,12.7395771 C141.96036,13.0094169 142.541087,13.354314 142.998905,13.837243 C143.525851,14.3769227 143.835633,15.1069913 143.919669,15.8550005 C144.002942,16.6220485 143.957815,17.4143231 143.706905,18.1477236 C143.487996,18.786259 143.110578,19.370973 142.609815,19.8213162 C142.087996,20.2972888 141.448724,20.6297373 140.778905,20.8387991 C139.945087,21.0980211 139.063669,21.1800348 138.194178,21.141957 C136.053815,21.0658014 133.945815,20.2214993 132.354178,18.7756412 C132.987269,18.0001355 133.626905,17.2297922 134.262542,16.4565565 C135.221451,17.2616824 136.333815,17.9353666 137.577087,18.1634307 C138.123633,18.2626892 138.686905,18.2993025 139.239305,18.220584 C139.585087,18.1696915 139.931269,18.0657098 140.221815,17.8643368 C140.479269,17.6871286 140.677815,17.4125291 140.729451,17.0991195 C140.779269,16.7937648 140.758178,16.4572888 140.589087,16.1911103 C140.405451,15.9179753 140.117815,15.7411332 139.827305,15.6038334 C139.290178,15.3512018 138.717815,15.1882728 138.148724,15.0286389 C137.266905,14.7957785 136.378178,14.5713391 135.535996,14.2136275 C134.975996,13.9745428 134.429451,13.6746801 133.990942,13.2444741 C133.606542,12.8820027 133.323996,12.4173803 133.16036,11.9150462 C132.991996,11.4050233 132.937451,10.863513 132.943633,10.328227 C132.940724,9.55788375 133.133815,8.78278078 133.527305,8.11934828 C134.107669,7.12603021 135.118905,6.44392494 136.206905,6.13051533" id="Fill-39" fill="#D82028"></path>
                    <path d="M152.183291,9.91852449 C151.534164,11.5188906 150.890164,13.1210874 150.240018,14.7210874 C151.535618,14.719989 152.831255,14.7229181 154.127291,14.7196229 C153.478927,13.1192568 152.836382,11.5166938 152.183291,9.91852449 M150.734164,5.98442838 C151.728345,5.98223158 152.722527,5.98516064 153.717109,5.98296384 C155.809473,10.9704238 157.908345,15.9553208 159.996709,20.9442453 C158.872745,20.9468082 157.748745,20.9446114 156.624745,20.9453437 C156.1738,19.8359616 155.730564,18.7236503 155.2822,17.6135359 C153.215982,17.6146343 151.149436,17.6113391 149.083291,17.6150005 C148.642927,18.7269455 148.190527,19.8341309 147.747655,20.9449776 C146.6502,20.9446114 145.552709,20.9475039 144.455618,20.943513 C146.545073,15.955687 148.643618,10.9718883 150.734164,5.98442838" id="Fill-41" fill="#D82028"></path>
                    <g id="Group" transform="translate(158.000000, 6.000000)" fill="#797A93">
                        <polygon id="Fill-1" points="0.924383543 0.329359042 0 0.329359042 0 0 2.25 0 2.25 0.329359042 1.3211438 0.329359042 1.3211438 3 0.924383543 3"></polygon>
                        <path d="M4.99270995,1.6824864 C4.97093701,1.2640848 4.94479005,0.761149604 4.94916407,0.387247201 L4.93604199,0.387247201 C4.83577955,0.738875201 4.71364697,1.1127776 4.56541602,1.5267144 L4.0465105,2.9821904 L3.75869946,2.9821904 L3.28343701,1.553404 C3.14390552,1.1305872 3.02614697,0.743340003 2.94328344,0.387247201 L2.93458398,0.387247201 C2.92588453,0.761149604 2.90401439,1.2640848 2.87786742,1.7136408 L2.79937792,3 L2.4375,3 L2.64244751,0 L3.12645801,0 L3.62791602,1.4510112 C3.75,1.8204488 3.85026244,2.149852 3.92442652,2.46139599 L3.9375,2.46139599 C4.01161547,2.158732 4.11630054,1.8293784 4.24708398,1.4510112 L4.77036353,0 L5.25437403,0 L5.4375,3 L5.06682543,3 L4.99270995,1.6824864 Z" id="Fill-2"></path>
                    </g>
                    <path d="M118.034924,6.08035149 L121.263651,6.08035149 C121.262924,8.63083204 121.263251,11.1813126 121.263251,13.7317931 C121.267287,14.2824568 121.240015,14.8364156 121.325433,15.3826856 C121.422924,16.0585666 121.661796,16.735546 122.124742,17.2473995 C122.550196,17.725935 123.158196,18.0122508 123.783651,18.1070792 C124.417796,18.2030059 125.080742,18.1663927 125.688378,17.9511066 C126.271287,17.7449739 126.777469,17.3264842 127.083287,16.7849739 C127.463251,16.1193446 127.588705,15.3354545 127.576378,14.5760952 L127.576378,6.08035149 L130.812742,6.08035149 L130.812742,13.8786124 C130.825833,14.8356833 130.791651,15.8026398 130.559978,16.7351799 C130.290924,17.8705574 129.723978,18.9572394 128.839287,19.7272165 C128.341469,20.1636467 127.758524,20.4971936 127.139651,20.724562 C126.360342,21.0130746 125.53056,21.1390243 124.703651,21.1694133 C123.893433,21.1910151 123.076705,21.1291387 122.289833,20.9273995 C121.618196,20.7556833 120.969433,20.478887 120.400742,20.0779716 C119.840705,19.6843789 119.363651,19.1728915 119.00656,18.5870792 C118.270196,17.3799396 118.032705,15.935546 118.034524,14.5380174 C118.035287,11.7187954 118.034524,8.89957346 118.034924,6.08035149" id="Fill-43" fill="#D82028"></path>
                    <path d="M23.6323636,6.10634325 C24.0767273,6.86716705 24.4487273,7.67119451 24.7330909,8.50634325 C24.4621818,8.30716705 24.1945455,8.10359725 23.9196364,7.90991304 C23.5450909,8.19220137 23.1658182,8.46789931 22.788,8.74579405 C22.9305455,8.29398627 23.0774545,7.84364302 23.2203636,7.39220137 C22.8425455,7.11247597 22.4636364,6.83458124 22.0861818,6.55412357 C22.5545455,6.55302517 23.0229091,6.5544897 23.4912727,6.5533913 C23.5378182,6.40437529 23.5872727,6.25609153 23.6323636,6.10634325" id="Fill-45" fill="#D82028"></path>
                    <path d="M18.2883673,10.6441922 C18.3167309,10.558151 18.33564,10.4673501 18.3843673,10.3900961 C18.5294582,10.8323844 18.6687309,11.2768696 18.8120036,11.7202563 C19.2792764,11.7213547 19.7465491,11.7198902 20.2141855,11.7209886 C19.8378218,12.0018124 19.4585491,12.2786087 19.0814582,12.5587002 C19.2250945,13.0097757 19.3712764,13.4604851 19.5141855,13.9119268 C19.1349127,13.634032 18.7567309,13.3539405 18.3778218,13.0756796 C17.9985491,13.3539405 17.6207309,13.634032 17.2410945,13.9119268 C17.3840036,13.460119 17.5305491,13.0097757 17.6738218,12.557968 C17.2963673,12.2789748 16.9174582,12.0010801 16.5407309,11.7209886 C17.0080036,11.7198902 17.47564,11.7213547 17.9432764,11.7202563 C18.0585491,11.3618124 18.1730945,11.0030023 18.2883673,10.6441922" id="Fill-47" fill="#D82028"></path>
                    <path d="M23.9236291,10.36666 C24.06872,10.8155387 24.2156291,11.2640513 24.3538109,11.7154929 C24.6930836,11.7272092 25.03272,11.7176897 25.3719927,11.7202526 C25.3785382,11.8125181 25.3839927,11.9051497 25.3879927,11.9977812 C25.1345382,12.1852412 24.8796291,12.3708705 24.6276291,12.5601611 C24.7741745,13.0101382 24.9174473,13.4612137 25.0614473,13.9119597 C24.6832655,13.6336622 24.3036291,13.357232 23.9279927,13.075676 C23.5450836,13.3502755 23.1694473,13.6351268 22.7876291,13.911557 C22.9316291,13.4604815 23.0763564,13.0097721 23.22072,12.5586966 C22.8436291,12.2789712 22.46472,12.0010764 22.0872655,11.721351 C22.5552655,11.7187881 23.0232655,11.7228156 23.4912655,11.7195204 C23.6341745,11.2680787 23.7803564,10.8177355 23.9236291,10.36666" id="Fill-49" fill="#D82028"></path>
                    <path d="M1.30472,16.8728275 C1.45381091,16.4280128 1.59053818,15.9791341 1.73744727,15.5335506 C1.88217455,15.9838938 2.02690182,16.4342371 2.17053818,16.8849098 C2.63853818,16.8860082 3.10690182,16.8849098 3.57526545,16.8856787 C3.19817455,17.166832 2.81890182,17.4440311 2.44108364,17.724086 C2.58435636,18.1755277 2.73053818,18.6262737 2.87381091,19.0777153 C2.49490182,18.7998206 2.11635636,18.5215231 1.73926545,18.2414682 C1.62726545,18.320919 1.51708364,18.4032989 1.40690182,18.4845803 C1.14035636,17.9675643 0.906538182,17.4337428 0.711265455,16.8853126 C0.908356364,16.8765254 1.11235636,16.9032165 1.30472,16.8728275" id="Fill-51" fill="#D82028"></path>
                    <path d="M12.8279964,15.5379112 C12.9821782,15.9838975 13.1181782,16.4364009 13.26436,16.8849135 C13.7327236,16.8860119 14.2010873,16.8849135 14.6694509,16.8856824 C14.2919964,17.1664696 13.9127236,17.4443643 13.5349055,17.7240897 C13.6781782,18.1759341 13.82436,18.6262773 13.9676327,19.0780485 C13.58836,18.7998243 13.2098145,18.5208311 12.8316327,18.2414719 C12.4516327,18.5193666 12.0738145,18.7998243 11.6941782,19.077719 C11.8374509,18.6262773 11.9829055,18.1759341 12.1272691,17.724822 C11.7498145,17.4443643 11.3698145,17.1672018 10.9930873,16.8860119 C11.4621782,16.8823872 11.9312691,16.8907716 12.40036,16.8816183 C12.5389055,16.4324101 12.6869055,15.9864238 12.8279964,15.5379112" id="Fill-53" fill="#D82028"></path>
                    <path d="M23.9243564,15.5335469 C24.0683564,15.9820595 24.2156291,16.4298032 24.3538109,16.8801465 C24.4581745,16.8860046 24.5629018,16.8863707 24.6679927,16.8853089 C24.4916291,17.3799542 24.2843564,17.8632494 24.0490836,18.3322288 C24.0072655,18.3018398 23.9658109,18.2718535 23.9250836,18.2418307 C23.5450836,18.5189931 23.1683564,18.8001831 22.7883564,19.0773455 C22.9305382,18.6259039 23.0774473,18.175524 23.2203564,17.7240824 C22.8429018,17.4440275 22.4629018,17.1664989 22.0858109,16.8856751 C22.5541745,16.8849062 23.0225382,16.8863707 23.4909018,16.8849062 C23.6356291,16.4342334 23.7789018,15.983524 23.9243564,15.5335469" id="Fill-55" fill="#D82028"></path>
                    <path d="M6.84981818,16.8853053 C6.99527273,16.4345593 7.13818182,15.9831176 7.28436364,15.5324449 C7.42945455,15.9831176 7.57272727,16.4345593 7.71818182,16.8853053 C8.18618182,16.8856714 8.65418182,16.8845364 9.12218182,16.8860375 C8.74509091,17.1668247 8.36472727,17.4440238 7.98763636,17.7255432 C8.13236364,18.1759231 8.27745455,18.6262664 8.42036364,19.077708 C8.04072727,18.8001794 7.66327273,18.5193556 7.284,18.2414609 C6.90472727,18.5200513 6.52690909,18.8001794 6.14727273,19.077708 C6.29018182,18.6262664 6.43636364,18.1759231 6.58036364,17.7248476 C6.20254545,17.4443899 5.82327273,17.1664952 5.44581818,16.8860375 C5.91381818,16.8845364 6.38181818,16.8860375 6.84981818,16.8853053" id="Fill-57" fill="#D82028"></path>
                    <path d="M17.94364,16.8853053 C18.0887309,16.4349254 18.23164,15.9835204 18.3778218,15.5331405 C18.52364,15.9835204 18.6661855,16.4349254 18.81164,16.8853053 C19.27964,16.8856714 19.7472764,16.8845364 20.2152764,16.8860375 C19.8385491,17.1671908 19.4589127,17.4443899 19.0814582,17.7244815 C19.2254582,18.1755204 19.3709127,18.6262664 19.5145491,19.077708 C19.1349127,18.8001794 18.7570945,18.5204174 18.3785491,18.2414609 C17.9985491,18.5175249 17.6240036,18.8008751 17.2425491,19.0740101 C17.3843673,18.6236668 17.5305491,18.1748247 17.6741855,17.7248476 C17.2967309,17.4443899 16.9167309,17.1668247 16.53964,16.8860375 C17.00764,16.8845364 17.47564,16.8860375 17.94364,16.8853053" id="Fill-59" fill="#D82028"></path>
                    <path d="M7.28000364,20.7153977 C7.44364,21.1543908 7.56909455,21.6076632 7.71854909,22.0521849 C8.18582182,22.0532467 8.65309455,22.0517822 9.12073091,22.0528805 C8.74400364,22.3333382 8.36473091,22.6105373 7.98764,22.8905922 C8.12873091,23.3409355 8.28218545,23.7879835 8.41564,24.2408897 C8.03854909,23.9626288 7.66109455,23.6847707 7.28400364,23.4072421 C7.08691273,23.5525602 6.88945818,23.6964503 6.69345818,23.8429034 C6.57309455,23.7802947 6.45564,23.7129263 6.33782182,23.6462902 C6.41927636,23.3943908 6.49964,23.1421254 6.58000364,22.8902261 C6.20291273,22.6105373 5.82400364,22.3330087 5.44727636,22.0528805 C5.91454909,22.0517822 6.38182182,22.0528805 6.84909455,22.052551 C6.99418545,21.607297 7.13273091,21.1599195 7.28000364,20.7153977" id="Fill-61" fill="#D82028"></path>
                    <path d="M12.3974582,22.0514233 C12.5421855,21.600714 12.6832764,21.14854 12.8323673,20.6992952 C12.9785491,21.151103 13.1163673,21.6062059 13.2709127,22.0554508 C13.7363673,22.0488604 14.2018218,22.0539863 14.66764,22.0528879 C14.2909127,22.3333455 13.91164,22.6101419 13.5349127,22.8905995 C13.6785491,23.3416751 13.8243673,23.7920183 13.9680036,24.24346 C13.5880036,23.9659314 13.2101855,23.6854737 12.8305491,23.4072128 C12.4512764,23.6854737 12.0738218,23.9659314 11.6941855,24.24346 C11.8374582,23.7920183 11.9829127,23.3416751 12.1269127,22.8905995 C11.7498218,22.6105446 11.3705491,22.3326133 10.9934582,22.0525217 C11.4614582,22.0514233 11.9294582,22.0539863 12.3974582,22.0514233" id="Fill-63" fill="#D82028"></path>
                    <path d="M17.9432655,22.0525327 C18.0934473,21.6087799 18.2156291,21.1544092 18.3829018,20.7172101 C18.5290836,21.1613657 18.6676291,21.608011 18.81272,22.0525327 C19.2799927,22.0528989 19.7469018,22.0517638 20.2141745,22.053265 C19.8370836,22.3325876 19.4596291,22.6112513 19.0818109,22.8894755 C19.1461745,23.0949126 19.21272,23.2995808 19.2781745,23.5046151 C19.13672,23.5902902 18.9945382,23.6745007 18.8494473,23.7535854 C18.6912655,23.6389858 18.5349018,23.522519 18.3774473,23.4072238 C17.9985382,23.6858142 17.62072,23.9655762 17.2410836,24.2434709 C17.3843564,23.7923954 17.5294473,23.341686 17.6741745,22.89094 C17.2974473,22.6101162 16.9170836,22.3344549 16.5414473,22.0521666 C17.00872,22.0525327 17.4759927,22.0525327 17.9432655,22.0525327" id="Fill-65" fill="#D82028"></path>
                </g>
            </g>
        </g>
    </g>
</svg>