<?xml version="1.0" encoding="UTF-8"?>
<svg width="235px" height="48px" viewBox="0 0 235 48" version="1.1" xmlns="http://www.w3.org/2000/svg" xmlns:xlink="http://www.w3.org/1999/xlink">
    <!-- Generator: Sketch 46.2 (44496) - http://www.bohemiancoding.com/sketch -->
    <title>Page 1</title>
    <desc>Created with Sketch.</desc>
    <defs>
        <polygon id="path-1" points="0.0177831818 0.0129473684 5.29837409 0.0129473684 5.29837409 5.10766842 0.0177831818 5.10766842 0.0177831818 0.0129473684"></polygon>
        <polygon id="path-3" points="0 5.11713158 0 0.0208157895 5.13735318 0.0208157895 5.13735318 5.11713158"></polygon>
    </defs>
    <g id="Symbols" stroke="none" stroke-width="1" fill="none" fill-rule="evenodd">
        <g id="Header---Desktop" transform="translate(-32.000000, -20.000000)">
            <g id="Group-74">
                <g id="Page-1" transform="translate(32.000000, 20.000000)">
                    <g id="Group" transform="translate(227.000000, 9.000000)" fill="#797A93">
                        <polygon id="Fill-1" points="1.23251139 0.43914539 0 0.43914539 0 0 3 0 3 0.43914539 1.76152506 0.43914539 1.76152506 4 1.23251139 4"></polygon>
                        <path d="M6.6569466,2.2433152 C6.62791602,1.6854464 6.5930534,1.01486614 6.59888543,0.516329602 L6.58138932,0.516329602 C6.44770607,0.985166934 6.28486262,1.48370347 6.08722136,2.0356192 L5.39534733,3.97625387 L5.01159927,3.97625387 L4.37791602,2.07120533 C4.19187403,1.50744961 4.03486262,0.991120004 3.92437792,0.516329602 L3.91277864,0.516329602 C3.90117937,1.01486614 3.87201918,1.6854464 3.83715656,2.2848544 L3.73250389,4 L3.25,4 L3.52326335,0 L4.16861068,0 L4.83722136,1.93468159 C5,2.42726506 5.13368326,2.86646933 5.23256869,3.28186133 L5.25,3.28186133 C5.34882063,2.87830933 5.48840073,2.4391712 5.66277864,1.93468159 L6.36048471,0 L7.00583204,0 L7.25,4 L6.75576724,4 L6.6569466,2.2433152 Z" id="Fill-2"></path>
                    </g>
                    <g id="Group-2" transform="translate(231.000000, 41.500000)" fill="#797A93">
                        <polygon id="Fill-4" points="1.13003202 0.846572974 0.567775447 0.846572974 0.567775447 0.643639656 1.93631707 0.643639656 1.93631707 0.846572974 1.37131044 0.846572974 1.37131044 2.49214374 1.13003202 2.49214374"></polygon>
                        <path d="M3.69989633,1.68032226 C3.68614606,1.42249161 3.66969762,1.11261747 3.67244767,0.882235482 L3.66424939,0.882235482 C3.60115379,1.09886719 3.52435979,1.32924917 3.43106547,1.58432976 L3.10469099,2.48121097 L2.92370623,2.48121097 L2.62472853,1.60077821 C2.5369862,1.34024939 2.46294226,1.10166913 2.41084688,0.882235482 L2.40534677,0.882235482 C2.39984665,1.11261747 2.38620015,1.42249161 2.36969982,1.69952076 L2.32035449,2.49215931 L2.09267068,2.49215931 L2.22161195,0.643655222 L2.52603787,0.643655222 L2.84141212,1.5376826 C2.918258,1.76536642 2.98130172,1.96829974 3.02794888,2.16028472 L3.03614716,2.16028472 C3.08274244,1.97374796 3.1485881,1.77081464 3.2308822,1.5376826 L3.56000673,0.643655222 L3.86443266,0.643655222 L3.97962365,2.49215931 L3.74649161,2.49215931 L3.69989633,1.68032226 Z" id="Fill-6"></path>
                    </g>
                    <polygon id="Fill-10" fill="#002147" points="47.558832 29.9275017 50.3019342 29.9275017 50.3019342 3.75449989 47.558832 3.75449989"></polygon>
                    <g id="Group-55" transform="translate(0.000000, 3.021482)">
                        <path d="M68.9330237,16.6161334 C68.6480039,13.2458629 66.7243143,10.3058982 63.0549624,10.3058982 C59.8487612,10.3058982 57.4262739,12.9948814 57.070012,16.6161334 L68.9330237,16.6161334 Z M63.5537082,24.9341164 C66.0830326,24.9341164 67.86429,23.8943879 69.3605276,22.3167902 L71.0704912,23.8584816 C69.2179917,25.9379903 66.9736353,27.3363155 63.4824662,27.3363155 C58.4237656,27.3363155 54.2913147,23.4282276 54.2913147,17.6558618 C54.2913147,12.2778435 58.0319087,7.97540804 63.1262043,7.97540804 C68.5767619,7.97540804 71.711721,12.3495006 71.711721,17.7992798 C71.711721,18.0502612 71.711721,18.3370972 71.676126,18.6597876 L57.070012,18.6597876 C57.461869,22.6753352 60.3118601,24.9341164 63.5537082,24.9341164 Z" id="Fill-11" fill="#002147"></path>
                        <path d="M78.0170424,26.9060408 L75.2739402,26.9060408 L75.2739402,8.36978671 L78.0170424,8.36978671 L78.0170424,11.5966392 C79.2282601,9.58883948 81.1520015,7.97543917 84.3226076,7.97543917 C88.7756734,7.97543917 91.3762398,10.9871128 91.3762398,15.3970598 L91.3762398,26.9060408 L88.6331894,26.9060408 L88.6331894,16.0782952 C88.6331894,12.6363676 86.78069,10.4851499 83.5388419,10.4851499 C80.3682358,10.4851499 78.0170424,12.8156401 78.0170424,16.2934222 L78.0170424,26.9060408 Z" id="Fill-13" fill="#002147"></path>
                        <path d="M104.200941,10.449311 C100.638478,10.449311 97.7172444,13.1024397 97.7172444,17.6200021 C97.7172444,22.0299491 100.70972,24.8265477 104.200941,24.8265477 C107.62092,24.8265477 110.862716,21.9582401 110.862716,17.6200021 C110.862716,13.3175667 107.62092,10.449311 104.200941,10.449311 L104.200941,10.449311 Z M110.755879,26.9060564 L110.755879,23.177241 C109.259641,25.4001677 107.086527,27.300404 103.702195,27.300404 C99.284724,27.300404 94.9029002,23.7867674 94.9029002,17.6558566 C94.9029002,11.5607484 99.284724,7.97540285 103.702195,7.97540285 C107.122122,7.97540285 109.330883,9.83978461 110.755879,11.9192933 L110.755879,0.733054648 L113.498981,0.733054648 L113.498981,26.9060564 L110.755879,26.9060564 Z" id="Fill-15" fill="#002147"></path>
                        <path d="M118.628249,26.906072 L121.371351,26.906072 L121.371351,8.36981784 L118.628249,8.36981784 L118.628249,26.906072 Z M118.45017,4.31836388 L121.585129,4.31836388 L121.585129,1.27083573 L118.45017,1.27083573 L118.45017,4.31836388 Z" id="Fill-17" fill="#002147"></path>
                        <path d="M129.243893,26.9060408 L126.500791,26.9060408 L126.500791,8.36978671 L129.243893,8.36978671 L129.243893,11.5966392 C130.455111,9.58883948 132.378852,7.97543917 135.549406,7.97543917 C140.002524,7.97543917 142.60309,10.9871128 142.60309,15.3970598 L142.60309,26.9060408 L139.86004,26.9060408 L139.86004,16.0782952 C139.86004,12.6363676 138.00754,10.4851499 134.765692,10.4851499 C131.595086,10.4851499 129.243893,12.8156401 129.243893,16.2934222 L129.243893,26.9060408 Z" id="Fill-19" fill="#002147"></path>
                        <path d="M155.320871,10.4134357 C151.82965,10.4134357 148.944064,12.8156349 148.944064,16.6878164 C148.944064,20.4882889 151.900892,23.0338542 155.320871,23.0338542 C158.81204,23.0338542 162.089535,20.5241434 162.089535,16.7236709 C162.089535,12.8873439 158.81204,10.4134357 155.320871,10.4134357 M155.356518,32.7143079 C152.292801,32.7143079 149.44281,31.853852 146.984727,30.1328882 L148.23154,27.9816705 C150.333412,29.5233099 152.684606,30.3479632 155.320871,30.3479632 C159.38208,30.3479632 162.018293,28.0892339 162.018293,23.750944 L162.018293,21.5638718 C160.415167,23.7150895 158.17081,25.4718559 154.786478,25.4718559 C150.369007,25.4718559 146.129719,22.1733982 146.129719,16.7595254 C146.129719,11.3097981 150.404654,7.97543398 154.786478,7.97543398 C158.242104,7.97543398 160.486409,9.69639777 161.982646,11.7041456 L161.982646,8.36978152 L164.725748,8.36978152 L164.725748,23.679235 C164.725748,29.6667279 161.020801,32.7143079 155.356518,32.7143079" id="Fill-20" fill="#002147"></path>
                        <path d="M177.775181,27.2367739 C172.158841,27.2367739 168.723296,24.0797624 168.723296,17.8860673 L168.723296,5.8594533 L173.323931,5.8594533 L173.323931,17.7658432 C173.323931,21.1933979 175.026734,22.9673391 177.834904,22.9673391 C180.643073,22.9673391 182.345928,21.253484 182.345928,17.9161623 L182.345928,5.8594533 L186.946511,5.8594533 L186.946511,17.7357483 C186.946511,24.1098574 183.391468,27.2367739 177.775181,27.2367739" id="Fill-21" fill="#D82027"></path>
                        <path d="M198.02983,27.2067257 C194.863219,27.2067257 191.666617,26.0942505 189.157218,23.8392571 L191.875725,20.5619696 C193.757853,22.1254539 195.729539,23.117653 198.119492,23.117653 C200.001516,23.117653 201.13677,22.3660059 201.13677,21.1332547 L201.13677,21.0731167 C201.13677,19.9005035 200.419784,19.2992273 196.924515,18.3972092 C192.712261,17.3147771 189.993702,16.1422158 189.993702,11.9629621 L189.993702,11.9028241 C189.993702,8.08434654 193.040867,5.55875811 197.312896,5.55875811 C200.360009,5.55875811 202.959071,6.52091422 205.080141,8.23471749 L202.690188,11.7224101 C200.838,10.4295729 199.015699,9.64783076 197.253121,9.64783076 C195.490543,9.64783076 194.564449,10.4596159 194.564449,11.4818581 L194.564449,11.5419961 C194.564449,12.9250664 195.460656,13.3760754 199.075422,14.3081366 C203.317564,15.4206117 205.707517,16.954001 205.707517,20.6221595 L205.707517,20.6822975 C205.707517,24.8615512 202.540855,27.2067257 198.02983,27.2067257" id="Fill-22" fill="#D82027"></path>
                        <path d="M217.448157,11.2714115 L214.669874,18.0965815 L220.226439,18.0965815 L217.448157,11.2714115 Z M223.781482,26.906046 L221.869519,22.1856022 L213.026794,22.1856022 L211.114831,26.906046 L206.424586,26.906046 L215.386809,5.70908755 L219.62895,5.70908755 L228.591225,26.906046 L223.781482,26.906046 Z" id="Fill-23" fill="#D82027"></path>
                        <polygon id="Fill-24" fill="#002147" points="4.83067432 40.0949735 1.78605189 40.0949735 1.78605189 41.556083 4.48645043 41.556083 4.48645043 42.4129068 1.78605189 42.4129068 1.78605189 44.5930779 0.845066019 44.5930779 0.845066019 39.2382016 4.83067432 39.2382016"></polygon>
                        <polygon id="Fill-25" fill="#002147" points="7.86775226 44.5930779 8.80868624 44.5930779 8.80868624 39.2382016 7.86775226 39.2382016"></polygon>
                        <polygon id="Fill-26" fill="#002147" points="15.9307688 39.2382172 16.8563959 39.2382172 16.8563959 44.5930935 16.0684791 44.5930935 13.1156463 40.7834887 13.1156463 44.5930935 12.1899673 44.5930935 12.1899673 39.2382172 13.0620461 39.2382172 15.9307688 42.9407254"></polygon>
                        <path d="M22.5021554,40.3244682 L21.5842078,42.4664499 L23.4277825,42.4664499 L22.5021554,40.3244682 Z M25.3096505,44.5931246 L24.3151682,44.5931246 L23.7720583,43.3002874 L21.239932,43.3002874 L20.6891426,44.5931246 L19.7252742,44.5931246 L22.0814489,39.1999551 L22.9535277,39.1999551 L25.3096505,44.5931246 Z" id="Fill-27" fill="#002147"></path>
                        <polygon id="Fill-28" fill="#002147" points="31.9193147 39.2382172 32.8449418 39.2382172 32.8449418 44.5930935 32.0570251 44.5930935 29.1041922 40.7834887 29.1041922 44.5930935 28.1785132 44.5930935 28.1785132 39.2382172 29.0505921 39.2382172 31.9193147 42.9407254"></polygon>
                        <path d="M38.6590307,44.6849194 C37.0984522,44.6849194 35.9356977,43.4686167 35.9356977,41.9232932 C35.9356977,40.3933285 37.0755178,39.146412 38.697272,39.146412 C39.6841267,39.146412 40.2807849,39.4906878 40.793333,39.9802495 L40.1889954,40.6763767 C39.7606094,40.2786045 39.3016096,40.0108633 38.6896445,40.0108633 C37.6645485,40.0108633 36.9225006,40.8523283 36.9225006,41.9079863 C36.9225006,42.9636962 37.6645485,43.8204681 38.6896445,43.8204681 C39.3475304,43.8204681 39.7682369,43.5527269 40.2272367,43.1243409 L40.8315743,43.7363579 C40.2731574,44.3177092 39.6611404,44.6849194 38.6590307,44.6849194" id="Fill-29" fill="#002147"></path>
                        <polygon id="Fill-30" fill="#002147" points="43.8228042 44.5930779 44.7637381 44.5930779 44.7637381 39.2382016 43.8228042 39.2382016"></polygon>
                        <polygon id="Fill-31" fill="#002147" points="51.8857948 39.2382172 52.8114218 39.2382172 52.8114218 44.5930935 52.0235051 44.5930935 49.0706722 40.7834887 49.0706722 44.5930935 48.1449933 44.5930935 48.1449933 39.2382172 49.0170721 39.2382172 51.8857948 42.9407254"></polygon>
                        <path d="M58.6790745,44.6849194 C57.0037201,44.6849194 55.9021414,43.4914992 55.9021414,41.9232932 C55.9021414,40.416263 57.0496409,39.146412 58.6637676,39.146412 C59.5970222,39.146412 60.1707979,39.4064738 60.7215872,39.873153 L60.1248771,40.5845871 C59.7117981,40.2326838 59.3063465,40.0108633 58.6255263,40.0108633 C57.6386716,40.0108633 56.8889961,40.8676352 56.8889961,41.9079863 C56.8889961,43.0171925 57.6157371,43.8280956 58.7096365,43.8280956 C59.214557,43.8280956 59.6735567,43.6675028 60.0024737,43.422696 L60.0024737,42.4205343 L58.6331538,42.4205343 L58.6331538,41.6020038 L60.9127939,41.6020038 L60.9127939,43.8510819 C60.3849908,44.3024023 59.627636,44.6849194 58.6790745,44.6849194" id="Fill-32" fill="#002147"></path>
                        <polygon id="Fill-33" fill="#002147" points="68.3333768 39.2382172 69.2743108 39.2382172 69.2743108 43.7363216 72.0894852 43.7363216 72.0894852 44.5930935 68.3333768 44.5930935"></polygon>
                        <polygon id="Fill-34" fill="#002147" points="75.0729786 44.5930779 76.0139126 44.5930779 76.0139126 39.2382016 75.0729786 39.2382016"></polygon>
                        <polygon id="Fill-35" fill="#002147" points="83.3807708 40.0949735 80.3361484 40.0949735 80.3361484 41.556083 83.0365469 41.556083 83.0365469 42.4129068 80.3361484 42.4129068 80.3361484 44.5930779 79.3951625 44.5930779 79.3951625 39.2382016 83.3807708 39.2382016"></polygon>
                        <polygon id="Fill-36" fill="#002147" points="90.3346019 40.0796718 87.3052864 40.0796718 87.3052864 41.471978 89.990378 41.471978 89.990378 42.313443 87.3052864 42.313443 87.3052864 43.7516181 90.3728432 43.7516181 90.3728432 44.5930831 86.3643005 44.5930831 86.3643005 39.2382068 90.3346019 39.2382068"></polygon>
                        <path d="M93.7007006,40.286258 L93.310556,40.286258 L93.310556,39.2382275 L94.3279726,39.2382275 L94.3279726,40.1332408 C94.3279726,40.9823852 93.9225211,41.341916 93.1499112,41.4030917 L93.0504941,41.0053196 C93.5171214,40.9211575 93.7389419,40.6840301 93.7007006,40.286258" id="Fill-37" fill="#002147"></path>
                        <path d="M99.5146961,41.4872798 C100.646889,41.7627004 101.235919,42.1681 101.235919,43.0631133 C101.235919,44.0729024 100.448003,44.6696125 99.3234375,44.6696125 C98.5049588,44.6696125 97.7322971,44.3865644 97.0897181,43.8127887 L97.6558144,43.1396478 C98.1683624,43.5833407 98.6808586,43.835775 99.3464238,43.835775 C99.9277751,43.835775 100.294985,43.5680338 100.294985,43.1549547 C100.294985,42.7647582 100.080792,42.5582446 99.0863101,42.3287448 C97.9464901,42.0533241 97.3039111,41.7167796 97.3039111,40.7222974 C97.3039111,39.7890428 98.0688935,39.1617189 99.1322308,39.1617189 C99.9125201,39.1617189 100.532113,39.3988463 101.075275,39.8348598 L100.570406,40.5463458 C100.088472,40.186815 99.6065375,39.9955564 99.1169239,39.9955564 C98.5661346,39.9955564 98.2448451,40.2786045 98.2448451,40.6381353 C98.2448451,41.0588419 98.4896519,41.242473 99.5146961,41.4872798" id="Fill-38" fill="#002147"></path>
                        <polygon id="Fill-39" fill="#002147" points="108.595269 44.5930779 109.536203 44.5930779 109.536203 39.2382016 108.595269 39.2382016"></polygon>
                        <polygon id="Fill-40" fill="#002147" points="115.549002 43.2773114 115.51844 43.2773114 113.843086 40.7682233 113.843086 44.5930831 112.917458 44.5930831 112.917458 39.2382068 113.91962 39.2382068 115.549002 41.7703331 117.178436 39.2382068 118.180597 39.2382068 118.180597 44.5930831 117.239663 44.5930831 117.239663 40.7529164"></polygon>
                        <path d="M123.543324,40.0949735 L122.449373,40.0949735 L122.449373,42.0227103 L123.543324,42.0227103 C124.254758,42.0227103 124.698451,41.6326176 124.698451,41.0588419 C124.698451,40.4239424 124.247079,40.0949735 123.543324,40.0949735 M123.51271,42.8719066 L122.449373,42.8719066 L122.449373,44.5930779 L121.508439,44.5930779 L121.508439,39.2382016 L123.619859,39.2382016 C124.866723,39.2382016 125.65464,39.9420082 125.65464,41.0359594 C125.65464,42.2446346 124.690772,42.8719066 123.51271,42.8719066" id="Fill-41" fill="#002147"></path>
                        <path d="M131.124521,40.0108581 C130.061183,40.0108581 129.319135,40.8599507 129.319135,41.908033 C129.319135,42.9560635 130.07649,43.8204629 131.139828,43.8204629 C132.203113,43.8204629 132.945161,42.9713704 132.945161,41.923288 C132.945161,40.8752576 132.187806,40.0108581 131.124521,40.0108581 M131.124521,44.6849142 C129.47978,44.6849142 128.332281,43.4379977 128.332281,41.923288 C128.332281,40.4086303 129.495087,39.1464068 131.139828,39.1464068 C132.784516,39.1464068 133.931964,40.3933234 133.931964,41.908033 C133.931964,43.4226908 132.769209,44.6849142 131.124521,44.6849142" id="Fill-42" fill="#002147"></path>
                        <path d="M139.332984,40.0949735 L137.963612,40.0949735 L137.963612,41.8926794 L139.340612,41.8926794 C140.013804,41.8926794 140.44219,41.5407761 140.44219,40.9900386 C140.44219,40.4009561 140.029111,40.0949735 139.332984,40.0949735 L139.332984,40.0949735 Z M140.457497,44.5930779 L139.141725,42.7265688 L137.963612,42.7265688 L137.963612,44.5930779 L137.02273,44.5930779 L137.02273,39.2382016 L139.409467,39.2382016 C140.641076,39.2382016 141.398431,39.8884599 141.398431,40.9364904 C141.398431,41.8238242 140.870576,42.3593586 140.120953,42.5658722 L141.566755,44.5930779 L140.457497,44.5930779 Z" id="Fill-43" fill="#002147"></path>
                        <polygon id="Fill-44" fill="#002147" points="146.745903 44.5931039 145.797342 44.5931039 145.797342 40.1102545 144.099053 40.1102545 144.099053 39.2382275 148.44414 39.2382275 148.44414 40.1102545 146.745903 40.1102545"></polygon>
                        <path d="M153.018955,40.3244682 L152.100956,42.4664499 L153.944582,42.4664499 L153.018955,40.3244682 Z M155.826399,44.5931246 L154.831916,44.5931246 L154.288858,43.3002874 L151.756732,43.3002874 L151.205943,44.5931246 L150.242022,44.5931246 L152.598197,39.1999551 L153.470276,39.1999551 L155.826399,44.5931246 Z" id="Fill-45" fill="#002147"></path>
                        <polygon id="Fill-46" fill="#002147" points="162.436094 39.2382172 163.361721 39.2382172 163.361721 44.5930935 162.573752 44.5930935 159.62092 40.7834887 159.62092 44.5930935 158.695292 44.5930935 158.695292 39.2382172 159.567423 39.2382172 162.436094 42.9407254"></polygon>
                        <polygon id="Fill-47" fill="#002147" points="168.953943 44.5931039 168.005381 44.5931039 168.005381 40.1102545 166.307092 40.1102545 166.307092 39.2382275 170.65218 39.2382275 170.65218 40.1102545 168.953943 40.1102545"></polygon>
                        <polygon id="Fill-48" fill="#002147" points="180.474765 43.2773114 180.444203 43.2773114 178.768848 40.7682233 178.768848 44.5930831 177.843221 44.5930831 177.843221 39.2382068 178.845383 39.2382068 180.474765 41.7703331 182.104198 39.2382068 183.10636 39.2382068 183.10636 44.5930831 182.165426 44.5930831 182.165426 40.7529164"></polygon>
                        <path d="M188.989288,40.0108581 C187.925951,40.0108581 187.183903,40.8599507 187.183903,41.908033 C187.183903,42.9560635 187.941258,43.8204629 189.004595,43.8204629 C190.067881,43.8204629 190.809929,42.9713704 190.809929,41.923288 C190.809929,40.8752576 190.052574,40.0108581 188.989288,40.0108581 M188.989288,44.6849142 C187.344548,44.6849142 186.197048,43.4379977 186.197048,41.923288 C186.197048,40.4086303 187.359855,39.1464068 189.004595,39.1464068 C190.649284,39.1464068 191.796731,40.3933234 191.796731,41.908033 C191.796731,43.4226908 190.633977,44.6849142 188.989288,44.6849142" id="Fill-49" fill="#002147"></path>
                        <polygon id="Fill-50" fill="#002147" points="197.51901 43.2773114 197.488448 43.2773114 195.813094 40.7682233 195.813094 44.5930831 194.887467 44.5930831 194.887467 39.2382068 195.889628 39.2382068 197.51901 41.7703331 199.148444 39.2382068 200.150605 39.2382068 200.150605 44.5930831 199.209671 44.5930831 199.209671 40.7529164"></polygon>
                        <polygon id="Fill-51" fill="#002147" points="207.448738 40.0796718 204.419371 40.0796718 204.419371 41.471978 207.104462 41.471978 207.104462 42.313443 204.419371 42.313443 204.419371 43.7516181 207.486979 43.7516181 207.486979 44.5930831 203.478437 44.5930831 203.478437 39.2382068 207.448738 39.2382068"></polygon>
                        <polygon id="Fill-52" fill="#002147" points="214.295566 39.2382172 215.221193 39.2382172 215.221193 44.5930935 214.433224 44.5930935 211.480392 40.7834887 211.480392 44.5930935 210.554765 44.5930935 210.554765 39.2382172 211.426895 39.2382172 214.295566 42.9407254"></polygon>
                        <polygon id="Fill-53" fill="#002147" points="220.813415 44.5931039 219.864853 44.5931039 219.864853 40.1102545 218.166564 40.1102545 218.166564 39.2382275 222.511652 39.2382275 222.511652 40.1102545 220.813415 40.1102545"></polygon>
                        <path d="M227.407834,41.4872798 C228.539975,41.7627004 229.129058,42.1681 229.129058,43.0631133 C229.129058,44.0729024 228.341089,44.6696125 227.216576,44.6696125 C226.398045,44.6696125 225.625384,44.3865644 224.982856,43.8127887 L225.548901,43.1396478 C226.061449,43.5833407 226.573997,43.835775 227.23951,43.835775 C227.820913,43.835775 228.188124,43.5680338 228.188124,43.1549547 C228.188124,42.7647582 227.973879,42.5582446 226.979448,42.3287448 C225.839577,42.0533241 225.197049,41.7167796 225.197049,40.7222974 C225.197049,39.7890428 225.962032,39.1617189 227.025317,39.1617189 C227.805607,39.1617189 228.425251,39.3988463 228.968361,39.8348598 L228.463492,40.5463458 C227.981558,40.186815 227.499624,39.9955564 227.01001,39.9955564 C226.459273,39.9955564 226.137932,40.2786045 226.137932,40.6381353 C226.137932,41.0588419 226.382738,41.242473 227.407834,41.4872798" id="Fill-54" fill="#002147"></path>
                    </g>
                    <g>
                        <g id="Group-3" transform="translate(15.786364, 0.039684)">
                            <mask id="mask-2" fill="white">
                                <use xlink:href="#path-1"></use>
                            </mask>
                            <g id="Clip-2"></g>
                            <path d="M2.655465,0.0129315789 C2.87082864,0.658721053 3.07260136,1.30872105 3.28169227,1.95661579 C3.95391955,1.95872105 4.62614682,1.95608947 5.29837409,1.95766842 C4.75578318,2.35977368 4.21162409,2.75977368 3.66955591,3.16135263 C3.87707864,3.8103 4.08564682,4.45872105 4.29264682,5.10766842 C3.74482864,4.70819474 3.20328318,4.3003 2.65285136,3.90503684 C2.11235136,4.30924737 1.56714682,4.70714211 1.02403318,5.10714211 C1.22998773,4.45819474 1.43907864,3.80977368 1.64660136,3.16135263 C1.10401045,2.75924737 0.559851364,2.3603 0.0177831818,1.95766842 C0.690010455,1.95608947 1.36223773,1.95872105 2.034465,1.95661579 C2.24041955,1.30819474 2.45055591,0.661352632 2.655465,0.0129315789" id="Fill-1" fill="#002248" mask="url(#mask-2)"></path>
                        </g>
                        <path d="M9.90935136,1.8084 C10.2303059,1.64418947 10.5543968,1.48576842 10.8858059,1.34366316 C10.9558514,1.56103158 11.0248514,1.77945263 11.0954195,1.99682105 C11.7671241,1.99734737 12.4388286,1.99629474 13.1110559,1.99734737 C12.5689877,2.39997895 12.0248286,2.79945263 11.4822377,3.20103158 C11.6892377,3.84945263 11.8988514,4.49734737 12.1042832,5.14682105 C11.5590786,4.74682105 11.015965,4.34418947 10.4707605,3.94418947 C9.92555591,4.34418947 9.382965,4.74734737 8.836715,5.14629474 C9.04319227,4.49734737 9.25176045,3.84892632 9.45928318,3.20050526 C9.16916955,2.98629474 8.87905591,2.77155789 8.58841955,2.5584 C8.876965,2.37997895 9.16864682,2.20734737 9.46607864,2.04366316 C9.57951045,1.97366316 9.71855591,2.00313684 9.84557864,1.99576842 C9.86648773,1.93313684 9.88791955,1.87103158 9.90935136,1.8084" id="Fill-4" fill="#002248"></path>
                        <path d="M10.4608182,7.51208947 C10.5261591,7.61103684 10.5517727,7.72840526 10.5883636,7.83998421 C10.7561591,8.36735263 10.9255227,8.89419474 11.0948864,9.42156316 C11.7671136,9.42208947 12.4393409,9.41998421 13.1120909,9.42208947 C12.5700227,9.82524737 12.0248182,10.2247211 11.4822273,10.6273526 C11.68975,11.2757737 11.8983182,11.9241947 12.1053182,12.5731421 C11.5601136,12.1726158 11.0154318,11.7710368 10.47075,11.3699842 C9.92606818,11.7699842 9.38295455,12.1731421 8.83670455,12.5720895 C9.04265909,11.9231421 9.25227273,11.2752474 9.45927273,10.6268263 C8.91615909,10.2247211 8.37147727,9.82419474 7.82836364,9.42208947 C8.50111364,9.41998421 9.17386364,9.42261579 9.84713636,9.42103684 C10.0520455,8.78472105 10.25225,8.14735263 10.4608182,7.51208947" id="Fill-12" fill="#002248"></path>
                        <path d="M17.8213461,9.4205 C18.0283461,8.77207895 18.2348234,8.12313158 18.4460052,7.47628947 C18.651437,8.12471053 18.8615734,8.77207895 19.0670052,9.4205 C19.740278,9.42313158 20.4135507,9.41997368 21.0868234,9.42207895 C20.5437098,9.82418421 19.9995507,10.2252368 19.4559143,10.6268158 C19.6629143,11.2757632 19.8720052,11.9236579 20.0784825,12.5726053 C19.5322325,12.1731316 18.9896416,11.7689211 18.4428689,11.3699737 C17.8992325,11.7720789 17.3545507,12.1726053 16.8098689,12.5731316 C17.0163461,11.9236579 17.2259598,11.2757632 17.4329598,10.6268158 C16.8898461,10.2247105 16.3451643,9.82471053 15.8020507,9.42207895 C16.4753234,9.41944737 17.1485961,9.42313158 17.8213461,9.4205" id="Fill-14" fill="#002248"></path>
                        <path d="M1.48402273,10.7952421 C1.85306818,9.94734737 2.28745455,9.12892632 2.77777273,8.34576842 C2.88911364,8.70524211 3.00777273,9.06208421 3.12015909,9.42103158 C3.79343182,9.42261053 4.46670455,9.42050526 5.13997727,9.42208421 C4.59686364,9.82418947 4.05165909,10.2241895 3.50854545,10.6268211 C3.71606818,11.2757684 3.92515909,11.9241895 4.13163636,12.5731368 C3.58747727,12.1720842 3.04227273,11.7731368 2.49968182,11.3705053 C1.95186364,11.7684 1.40875,12.1731368 0.8625,12.5736632 C1.05747727,11.9768211 1.22945455,11.3705053 1.48402273,10.7952421" id="Fill-16" fill="#002248"></path>
                        <g id="Group-30" transform="translate(0.000000, 14.881789)">
                            <mask id="mask-4" fill="white">
                                <use xlink:href="#path-3"></use>
                            </mask>
                            <g id="Clip-29"></g>
                            <path d="M1.87762591,1.96081579 C2.07939864,1.31292105 2.289535,0.667131579 2.49758045,0.0208157895 C2.70562591,0.669236842 2.91314864,1.31765789 3.12119409,1.96607895 C3.79342136,1.96765789 4.46512591,1.96555263 5.13735318,1.96713158 C4.595285,2.36976316 4.05112591,2.76923684 3.508535,3.17081579 C3.71501227,3.81976316 3.92514864,4.46818421 4.13162591,5.11713158 C3.58537591,4.71713158 3.04226227,4.31292105 2.49496682,3.91397368 C1.95185318,4.31660526 1.40769409,4.71660526 0.862489545,5.11660526 C1.07001227,4.46818421 1.27648955,3.82028947 1.48610318,3.17292105 C0.999444091,2.80081579 0.490830455,2.45502632 0.0141031818,2.07134211 C0.0104440909,2.04555263 0.00364863636,1.99344737 -1.04545455e-05,1.96765789 C0.626216818,1.96186842 1.25192136,1.9745 1.87762591,1.96081579" id="Fill-28" fill="#002248" mask="url(#mask-4)"></path>
                        </g>
                        <path d="M10.4644668,14.9315526 C10.7033532,15.5589211 10.8795123,16.2115526 11.0953986,16.8483947 C11.7671032,16.8489211 12.4388077,16.8478684 13.1105123,16.8489211 C12.5694895,17.2526053 12.024285,17.6510263 11.4822168,18.0526053 C11.6886941,18.7010263 11.8988305,19.3483947 12.1037395,19.9973421 C11.5580123,19.5989211 11.0154214,19.1952368 10.4707395,18.7957632 C9.925535,19.1958158 9.38294409,19.5989211 8.83721682,19.9973421 C9.04264864,19.3489211 9.25173955,18.7010263 9.459785,18.0531316 C8.91719409,17.6510263 8.37251227,17.2515526 7.83044409,16.8489211 C8.50214864,16.8478684 9.17437591,16.8489211 9.84660318,16.8483947 C10.0536032,16.2099737 10.2522395,15.5683947 10.4644668,14.9315526" id="Fill-31" fill="#002248"></path>
                        <path d="M18.4428741,14.9026158 C18.6540559,15.5489316 18.8605332,16.1968263 19.065965,16.8452474 C19.738715,16.8531421 20.4119877,16.8463 21.0852605,16.8489316 C20.5431923,17.2520895 19.9985105,17.6505105 19.4564423,18.0526158 C19.6629195,18.7015632 19.8725332,19.3499842 20.0790105,19.9989316 C19.5358968,19.5978789 18.9891241,19.2020368 18.4501923,18.7962474 C17.8992377,19.1909842 17.3576923,19.5999842 16.8098741,19.9989316 C17.0168741,19.3499842 17.2254423,18.7015632 17.432965,18.0526158 C16.8903741,17.6505105 16.3456923,17.2515632 15.8036241,16.8489316 C16.4763741,16.8463 17.1496468,16.8531421 17.8229195,16.8452474 C18.0267832,16.1968263 18.237965,15.5505105 18.4428741,14.9026158" id="Fill-33" fill="#002248"></path>
                        <path d="M25.951313,1.50522632 C26.698813,1.84943684 27.4186084,2.25312105 28.1122675,2.69627895 C27.8848811,2.8647 27.6564493,3.03206842 27.4295857,3.20101579 C27.6365857,3.84943684 27.8456766,4.49733158 28.0521539,5.14627895 C27.5053811,4.74785789 26.9627902,4.34312105 26.417063,3.94417368 C25.8729039,4.34522632 25.3292675,4.74680526 24.7845857,5.14627895 C24.9884493,4.49680526 25.2001539,3.84996316 25.4061084,3.20101579 C24.8640402,2.79943684 24.3198811,2.40048947 23.7793811,1.99785789 C24.4500402,1.99575263 25.121222,1.99733158 25.7929266,1.99680526 C25.8462448,1.83312105 25.8985175,1.66891053 25.951313,1.50522632" id="Fill-35" fill="#D82028"></path>
                        <path d="M26.3005,7.83998421 C26.3365682,7.72945789 26.3606136,7.61103684 26.4290909,7.51472105 C26.6366136,8.14893158 26.8368182,8.78577368 27.0417273,9.42103684 C27.7144773,9.42208947 28.3867045,9.41998421 29.0589318,9.42208947 C28.5173864,9.82577368 27.9727045,10.2247211 27.4295909,10.6268263 C27.6360682,11.2752474 27.8462045,11.9226158 28.0516364,12.5715632 C27.5053864,12.1736684 26.9627955,11.7699842 26.4175909,11.3699842 C25.8729091,11.7710368 25.32875,12.1726158 24.7835455,12.5736684 C24.9895,11.9241947 25.1991136,11.2763 25.4066364,10.6273526 C24.8640455,10.2241947 24.3183182,9.8263 23.7767727,9.42208947 C24.449,9.41998421 25.1212273,9.42156316 25.7934545,9.42103684 C25.9628182,8.89419474 26.1316591,8.36735263 26.3005,7.83998421" id="Fill-37" fill="#D82028"></path>
                        <path d="M33.9715227,8.77786842 C34.6102955,9.87155263 35.1450455,11.0273421 35.5538182,12.2278684 C35.1643864,11.9415526 34.7796591,11.6489211 34.3844773,11.3705 C33.8460682,11.7762895 33.3008636,12.1726053 32.75775,12.5720789 C32.9626591,11.9226053 33.1738409,11.2752368 33.3792727,10.6262895 C32.8361591,10.2241842 32.2914773,9.82471053 31.7488864,9.42155263 C32.4221591,9.41997368 33.0954318,9.42207895 33.7687045,9.4205 C33.8356136,9.20628947 33.9067045,8.99313158 33.9715227,8.77786842" id="Fill-45" fill="#D82028"></path>
                        <path d="M26.289528,15.3010263 C26.3303007,15.1773421 26.3574825,15.0468158 26.427528,14.9357632 C26.6360961,15.5715526 26.8363007,16.2105 27.0422552,16.8478684 C27.7139598,16.8494474 28.3856643,16.8473421 29.0578916,16.8489211 C28.5168689,17.2526053 27.9716643,17.6505 27.4295961,18.0531316 C27.6360734,18.7015526 27.8462098,19.3494474 28.0516416,19.9983947 C27.506437,19.5989211 26.9628007,19.1962895 26.4181189,18.7962895 C25.8729143,19.1962895 25.3298007,19.5989211 24.7840734,19.9983947 C24.9895052,19.3489211 25.2001643,18.7015526 25.4061189,18.0520789 C24.863528,17.6510263 24.3188461,17.2515526 23.7773007,16.8489211 C24.4490052,16.8473421 25.1212325,16.8494474 25.7934598,16.8478684 C25.9591643,16.3326053 26.1238234,15.8168158 26.289528,15.3010263" id="Fill-47" fill="#D82028"></path>
                        <path d="M34.3902168,14.9020737 C34.598785,15.5473368 34.8099668,16.1920737 35.0086032,16.8410211 C35.4963077,16.8578632 35.984535,16.8441789 36.4722395,16.8478632 C36.4816486,16.9804947 36.4894895,17.1136526 36.4952395,17.2468105 C36.1308986,17.5162842 35.7644668,17.7831263 35.4022168,18.0552316 C35.6128759,18.7020737 35.8188305,19.3504947 36.0258305,19.9984421 C35.4821941,19.5983895 34.9364668,19.2010211 34.3964895,18.7962842 C33.8460577,19.1910211 33.3060805,19.6004947 32.7572168,19.9978632 C32.9642168,19.3494421 33.1722623,18.7015474 33.379785,18.0531263 C32.8377168,17.6510211 32.293035,17.2515474 31.7504441,16.8494421 C32.4231941,16.8457579 33.0959441,16.8515474 33.7686941,16.8468105 C33.9741259,16.1978632 34.1842623,15.5504947 34.3902168,14.9020737" id="Fill-49" fill="#D82028"></path>
                        <path d="M1.875535,24.2546895 C2.08985318,23.6152684 2.28639864,22.9700053 2.49758045,22.3294789 C2.70562591,22.9768474 2.91367136,23.6242158 3.12014864,24.2720579 C3.79289864,24.2736368 4.46617136,24.2720579 5.13944409,24.2731632 C4.59737591,24.6773211 4.05217136,25.0757947 3.50905773,25.4783737 C3.71501227,26.1273211 3.92514864,26.7752684 4.13110318,27.4242158 C3.58642136,27.0247421 3.04226227,26.6246895 2.50019409,26.2221105 C2.33919409,26.3363211 2.18080773,26.4547421 2.02242136,26.5715842 C1.63926227,25.8283737 1.30314864,25.0610053 1.02244409,24.2726368 C1.30576227,24.2600053 1.59901227,24.2983737 1.875535,24.2546895" id="Fill-51" fill="#D82028"></path>
                        <path d="M18.4402448,22.3357474 C18.6618811,22.9768526 18.8573811,23.6273263 19.0675175,24.2720632 C19.7407902,24.2736421 20.414063,24.2720632 21.0873357,24.2731684 C20.5447448,24.6768 19.9995402,25.0762737 19.4564266,25.4783789 C19.6623811,26.1279053 19.8725175,26.7752737 20.078472,27.4246947 C19.5332675,27.0247474 18.9891084,26.6236947 18.445472,26.2221158 C17.899222,26.6215895 17.3561084,27.0247474 16.8103811,27.4242211 C17.0163357,26.7752737 17.2254266,26.1279053 17.4329493,25.4794316 C16.8903584,25.0762737 16.3441084,24.6778526 15.802563,24.2736421 C16.4768811,24.2684316 17.1511993,24.2804842 17.8255175,24.2673263 C18.0246766,23.6215895 18.2374266,22.9804842 18.4402448,22.3357474" id="Fill-53" fill="#D82028"></path>
                        <path d="M34.3912623,22.3294737 C34.5982623,22.9742105 34.8099668,23.6178421 35.0086032,24.2652105 C35.1586259,24.2736316 35.3091714,24.2741579 35.4602395,24.2726316 C35.2067168,24.9836842 34.9087623,25.6784211 34.5705577,26.3525789 C34.5104441,26.3088947 34.4508532,26.2657895 34.3923077,26.2226316 C33.8460577,26.6210526 33.3045123,27.0252632 32.7582623,27.4236842 C32.9626486,26.7747368 33.1738305,26.1273158 33.3792623,25.4783684 C32.8366714,25.0757895 32.2904214,24.6768421 31.7483532,24.2731579 C32.4216259,24.2720526 33.0948986,24.2741579 33.7681714,24.2720526 C33.9762168,23.6242105 34.1821714,22.9763158 34.3912623,22.3294737" id="Fill-55" fill="#D82028"></path>
                        <path d="M9.84661364,24.2726263 C10.0557045,23.6246789 10.2611364,22.9757316 10.4712727,22.3278895 C10.6798409,22.9757316 10.8857955,23.6246789 11.0948864,24.2726263 C11.7676364,24.2731526 12.4403864,24.2715211 13.1131364,24.2736789 C12.5710682,24.6773105 12.0242955,25.0757842 11.4822273,25.4804684 C11.6902727,26.1278895 11.8988409,26.7752579 12.1042727,27.4242053 C11.5585455,27.0252579 11.0159545,26.6215737 10.47075,26.2221 C9.92554545,26.6225737 9.38243182,27.0252579 8.83670455,27.4242053 C9.04213636,26.7752579 9.25227273,26.1278895 9.45927273,25.4794684 C8.91615909,25.0763105 8.37095455,24.6768368 7.82836364,24.2736789 C8.50111364,24.2715211 9.17386364,24.2736789 9.84661364,24.2726263" id="Fill-57" fill="#D82028"></path>
                        <path d="M25.7939825,24.2726263 C26.0025507,23.6252053 26.2079825,22.9763105 26.4181189,22.3288895 C26.6277325,22.9763105 26.8326416,23.6252053 27.0417325,24.2726263 C27.7144825,24.2731526 28.3867098,24.2715211 29.0594598,24.2736789 C28.5179143,24.6778368 27.972187,25.0763105 27.4295961,25.4789421 C27.6365961,26.1273105 27.845687,26.7752579 28.0521643,27.4242053 C27.506437,27.0252579 26.9633234,26.6231 26.4191643,26.2221 C25.8729143,26.6189421 25.3345052,27.0262579 24.7861643,27.4188895 C24.990028,26.7715211 25.2001643,26.1263105 25.4066416,25.4794684 C24.8640507,25.0763105 24.3178007,24.6773105 23.7757325,24.2736789 C24.4484825,24.2715211 25.1212325,24.2736789 25.7939825,24.2726263" id="Fill-59" fill="#D82028"></path>
                        <path d="M10.4650052,29.7783842 C10.7002325,30.4094368 10.8805734,31.0610158 11.0954143,31.7000158 C11.7671189,31.7015421 12.4388234,31.6994368 13.1110507,31.7010158 C12.5695052,32.1041737 12.0243007,32.5026474 11.4822325,32.9052263 C11.6850507,33.5525947 11.9056416,34.1952263 12.0974825,34.8462789 C11.5554143,34.4462789 11.0128234,34.0468579 10.4707552,33.6479105 C10.187437,33.8568053 9.90359614,34.0636474 9.62184614,34.2741737 C9.44882341,34.1841737 9.2799825,34.0873316 9.11061886,33.9915421 C9.22770977,33.6294368 9.3432325,33.2668053 9.45875523,32.9047 C8.91668705,32.5026474 8.37200523,32.1037 7.83045977,31.7010158 C8.50216432,31.6994368 9.17386886,31.7010158 9.84557341,31.7005421 C10.0541416,31.0604895 10.2533007,30.4173842 10.4650052,29.7783842" id="Fill-61" fill="#D82028"></path>
                        <path d="M17.8213461,31.6989211 C18.0293916,31.0510263 18.2322098,30.4010263 18.446528,29.7552368 C18.6566643,30.4047105 18.854778,31.0589211 19.076937,31.7047105 C19.746028,31.6952368 20.4151189,31.7026053 21.0847325,31.7010263 C20.543187,32.1041842 19.9979825,32.5020789 19.456437,32.9052368 C19.6629143,33.5536579 19.872528,34.2010263 20.0790052,34.8499737 C19.5327552,34.4510263 18.9896416,34.0478684 18.4439143,33.6478684 C17.8987098,34.0478684 17.3561189,34.4510263 16.8103916,34.8499737 C17.0163461,34.2010263 17.225437,33.5536579 17.432437,32.9052368 C16.8903689,32.5026579 16.3451643,32.1031316 15.8030961,31.7005 C16.4758461,31.6989211 17.1485961,31.7026053 17.8213461,31.6989211" id="Fill-63" fill="#D82028"></path>
                        <path d="M25.7934441,31.7005158 C26.0093305,31.0626211 26.1849668,30.4094632 26.4254214,29.7809895 C26.6355577,30.4194632 26.8347168,31.0615158 27.043285,31.7005158 C27.7149895,31.7010421 28.3861714,31.6994105 29.0578759,31.7015684 C28.5158077,32.1030947 27.9732168,32.5036737 27.4301032,32.9036211 C27.5226259,33.1989368 27.618285,33.4931474 27.7123759,33.7878842 C27.509035,33.9110421 27.3046486,34.0320947 27.0960805,34.1457789 C26.8686941,33.9810421 26.6439214,33.8136211 26.4175805,33.6478842 C25.8728986,34.0483579 25.329785,34.4505158 24.7840577,34.8499895 C24.9900123,34.2015684 25.1985805,33.5536737 25.4066259,32.9057263 C24.8650805,32.5020421 24.3183077,32.1057789 23.7783305,31.6999895 C24.450035,31.7005158 25.1217395,31.7005158 25.7934441,31.7005158" id="Fill-65" fill="#D82028"></path>
                    </g>
                </g>
            </g>
        </g>
    </g>
</svg>