<?xml version="1.0" encoding="UTF-8"?>
<svg width="28px" height="28px" viewBox="0 0 28 28" version="1.1" xmlns="http://www.w3.org/2000/svg" xmlns:xlink="http://www.w3.org/1999/xlink">
    <!-- Generator: Sketch 53.2 (72643) - https://sketchapp.com -->
    <title>Shape</title>
    <desc>Created with Sketch.</desc>
    <g id="Page-1" stroke="none" stroke-width="1" fill="none" fill-rule="evenodd">
        <g id="noun_Info_2090974_000000" fill="#6C757D" fill-rule="nonzero">
            <path d="M27.3022036,13.8939654 C27.2934023,11.1772889 26.4514086,8.4635461 24.8701034,6.24854525 C23.2741293,4.01300797 21.0591284,2.3143517 18.4803394,1.36967584 C15.8839476,0.419132432 12.958973,0.331119153 10.300972,1.09096712 C7.74271937,1.82147734 5.3956986,3.34117328 3.70584365,5.39775023 C2.81690954,6.48324733 2.11573709,7.66555904 1.58178986,8.96228801 C1.06251152,10.2267454 0.769133924,11.5704148 0.663517989,12.9316869 C0.449352345,15.6659661 1.12118704,18.4677221 2.54406838,20.8118091 C3.91707552,23.0766841 5.98245379,24.9425656 8.39988518,26.0339303 C9.70834926,26.6236193 11.0666875,26.9962088 12.4895689,27.163434 C13.88898,27.3277255 15.3147951,27.2485135 16.6936698,26.966871 C19.3047304,26.4358576 21.7514995,25.0628504 23.5909771,23.1382934 C25.4392559,21.2049351 26.7125147,18.705358 27.1173758,16.059092 C27.2259255,15.3579196 27.2992699,14.6508796 27.3022036,13.9409058 C27.3022036,13.9350383 27.3080712,13.9262369 27.3080712,13.9203694 L27.3080712,13.9174356 C27.3080712,13.9086343 27.3022036,13.9027667 27.3022036,13.8939654 Z M12.8093504,6.9379826 C13.0059134,6.64753878 13.3110261,6.64167123 13.6220064,6.64167123 L14.4493312,6.64167123 C14.8424572,6.64167123 15.1651725,6.86170443 15.2121129,7.26069796 C15.2150467,7.27830061 15.2209143,7.29590327 15.2209143,7.3164397 L15.2209143,8.07922145 C15.2209143,8.41073813 15.2531858,8.75985747 14.9598082,8.99455954 C14.7309737,9.17938743 14.4405299,9.14418212 14.1676887,9.14418212 C13.9124502,9.14418212 13.6572117,9.14711589 13.4019732,9.14418212 C13.0000459,9.13831457 12.7037345,8.8537383 12.6919994,8.45181099 C12.6831981,8.20244004 12.6919994,7.95306908 12.6919994,7.70369812 C12.6919994,7.44552584 12.6567941,7.16388335 12.8093504,6.9379826 Z M17.0985309,20.1869148 C17.0985309,20.2866632 17.0955971,20.3834778 17.0926633,20.4832262 C17.0809282,20.7971402 16.8814315,21.0846503 16.5704512,21.1697298 C16.4325637,21.2078688 16.2770736,21.1961337 16.1362524,21.1961337 L11.7091845,21.1961337 C11.4832837,21.1961337 11.2691181,21.1814649 11.0842902,21.0259747 C10.785045,20.77367 10.8319854,20.3981467 10.8319854,20.0490273 C10.8319854,19.7497822 10.7703762,19.3449211 10.9170649,19.0720799 C11.0461511,18.8344441 11.2867207,18.705358 11.5536943,18.6965566 C11.6710454,18.6936228 11.7913302,18.6994904 11.911615,18.6994904 L12.4250258,18.6994904 C12.5071715,18.6994904 12.6157212,18.7170931 12.671463,18.6437487 C12.7242709,18.5762718 12.7008007,18.4149141 12.7008007,18.3357022 L12.7008007,13.820621 C12.7008007,13.7238064 12.7096021,13.6152567 12.697867,13.5184421 C12.6831981,13.4157599 12.6157212,13.3893559 12.5218404,13.3864221 C12.3780854,13.3805546 12.2313966,13.3864221 12.0876416,13.3864221 C11.7502573,13.3864221 11.3453962,13.4480314 11.0754888,13.2015943 C10.785045,12.9404882 10.837853,12.5561636 10.837853,12.2070442 C10.837853,11.9136666 10.7821113,11.5352095 10.9229325,11.2653021 C11.1165617,10.8956464 11.4891513,10.8956464 11.8470719,10.8956464 L14.2850397,10.8956464 C14.3554504,10.8956464 14.4287948,10.886845 14.4992054,10.8897788 C14.8131194,10.9044477 15.1094308,11.0951431 15.1945103,11.4061234 C15.2267818,11.5264082 15.2267818,11.6437592 15.2267818,11.7669778 L15.2267818,18.4647883 C15.2267818,18.5704043 15.2179805,18.6760202 15.3529342,18.6936228 C15.6257754,18.7229606 15.9132854,18.6936228 16.1890603,18.6936228 C16.3181465,18.6936228 16.4472326,18.6848215 16.573385,18.7200268 C16.8667626,18.8021726 17.0603918,19.0603448 17.0955971,19.3537224 C17.0985309,19.3713251 17.1043984,19.3889277 17.1043984,19.4094642 L17.1043984,20.1869148 L17.0985309,20.1869148 Z" id="Shape"></path>
        </g>
    </g>
</svg>