<?xml version="1.0" encoding="UTF-8"?>
<svg width="20px" height="19px" viewBox="0 0 20 19" version="1.1" xmlns="http://www.w3.org/2000/svg" xmlns:xlink="http://www.w3.org/1999/xlink">
    <!-- Generator: Sketch 50.2 (55047) - http://www.bohemiancoding.com/sketch -->
    <title>Fill 1</title>
    <desc>Created with Sketch.</desc>
    <defs></defs>
    <g id="Page-1" stroke="none" stroke-width="1" fill="none" fill-rule="evenodd">
        <g id="lusa-offers-with-apr" transform="translate(-468.000000, -639.000000)" fill="#FFFFFF">
            <g id="Group-5" transform="translate(170.000000, 409.000000)">
                <g id="Group-3" transform="translate(0.000000, 44.000000)">
                    <g id="Group-2" transform="translate(285.000000, 174.000000)">
                        <path d="M22.6406757,12.3002489 C22.8384056,11.899917 23.161635,11.899917 23.3593243,12.3002489 L25.8526694,17.3519018 C26.0503993,17.7522337 26.5737541,18.1326709 27.0154997,18.1968214 L32.5905074,19.0088537 C33.0326589,19.0730043 33.1325389,19.3807645 32.8125982,19.6925849 L28.7784218,23.6248513 C28.4585217,23.9366717 28.2587211,24.5517861 28.3342401,24.9919076 L29.286348,30.5441784 C29.3619076,30.9842999 29.0999866,31.1743155 28.7049329,30.9668412 L23.7186486,28.3435709 C23.3231889,28.1357312 22.6764051,28.1357312 22.2809454,28.3435709 L17.2950671,30.9648111 C16.8996074,31.1726914 16.638133,30.9826758 16.713652,30.5421483 L17.6657599,24.9898775 C17.7412789,24.549756 17.5415189,23.9342356 17.2215782,23.6228212 L13.1874018,19.6905548 C12.8674611,19.3787344 12.9673411,19.0713802 13.4094926,19.0068236 L18.9845003,18.1947913 C19.4266519,18.1306408 19.9500067,17.7502037 20.1473306,17.3498717 L22.6406757,12.3002489 Z" id="Fill-1"></path>
                    </g>
                </g>
            </g>
        </g>
    </g>
</svg>